<?xml version="1.0" ?><svg enable-background="new 0 0 24 24" id="Layer_1" version="1.1" viewBox="0 0 24 24" xml:space="preserve" xmlns="http://www.w3.org/2000/svg" xmlns:xlink="http://www.w3.org/1999/xlink"><g><path d="M12.000104,0C6.2335024,0,1.5059636,4.0639648,1.0020573,9.4536133   C0.982526,9.6630859,1.0967839,9.862793,1.2872136,9.9526367c0.1914063,0.0893555,0.4169922,0.0498047,0.5664063-0.0991211   C5.1192446,6.5874023,8.4385805,5,12.000104,5c2.7167969,0,3.8955078,1.4570313,3.9931641,5H8.0294008   c0.1132813-0.956543,0.5537109-1.9736328,1.3867188-3.2226563C9.5440493,6.5854492,9.524518,6.331543,9.368268,6.1616211   c-0.15625-0.1694336-0.40625-0.2109375-0.609375-0.0996094C5.7676821,7.7075195,3.0001042,9.8681641,3.0001042,14.5   c0,5.2382813,4.9345703,9.5,11,9.5c2.5283213,0,4.8603525-0.5595703,6.7451181-1.6176758   c0.1572266-0.0883789,0.2548828-0.2553711,0.2548828-0.4360352V17.5c0-0.1894531-0.1074219-0.362793-0.2763672-0.4472656   c-0.1708984-0.0839844-0.3720703-0.0664063-0.5244141,0.0478516C18.5001049,18.378418,16.7999096,19,15.000104,19   c-4.3789063,0-6.6650391-1.3095703-6.9667969-4h14.4667978c0.2763672,0,0.5-0.2236328,0.5-0.5v-4   C23.0001049,4.7104492,18.0655346,0,12.000104,0z" fill="#303C42"/><path d="M22.0001049,14H7.500104c-0.1347656,0-0.2626953,0.0541992-0.3574219,0.1499023   c-0.09375,0.0961914-0.1455078,0.2260742-0.1425781,0.3603516C7.0762758,18.152832,9.7676821,20,15.000104,20   c1.7109385,0,3.3886728-0.519043,5.000001-1.5449219v3.1938477C18.3106518,22.5336914,16.243269,23,14.000104,23   c-5.5136719,0-10-3.8129883-10-8.5c0-3.1650391,1.3925781-5.0449219,3.6103516-6.5688477   C7.1934633,8.8422852,7.000104,9.671875,7.000104,10.5c0,0.2763672,0.2236328,0.5,0.5,0.5h9.000001   c0.2763672,0,0.5-0.2236328,0.5-0.5c0-3.0263672-0.5683594-6.5-5.000001-6.5C8.5674868,4,5.3663149,5.3452148,2.2520573,8.1044922   C3.3350651,3.9672852,7.2852602,1,12.000104,1c5.5136728,0,10.000001,4.2617188,10.000001,9.5V14z" fill="#1565C0"/><path d="M4.731061,15.230957c0-2.5024414,0.880249-4.1960449,2.3408813-5.5509644   c0.0875244-0.5627441,0.2584229-1.1367798,0.5385132-1.7488403C5.3926821,9.4550781,4.000104,11.3349609,4.000104,14.5   c0,2.2749023,1.0628662,4.3391113,2.7811279,5.8662109C5.5007753,18.9376221,4.731061,17.161377,4.731061,15.230957z" opacity="0.1"/><path d="M12.731061,1.730957c2.6687622,0,5.0909433,1.0045166,6.8861094,2.6288452   C17.7814159,2.3077393,15.0500917,1,12.000104,1C7.2852602,1,3.3350651,3.9672852,2.2520573,8.1044922   C2.7461979,7.666626,3.2435734,7.2773438,3.7427189,6.9104614C5.3862123,3.8106689,8.7877016,1.730957,12.731061,1.730957z" fill="#FFFFFF" opacity="0.2"/><linearGradient gradientUnits="userSpaceOnUse" id="SVGID_1_" x1="1.6200039" x2="23.4023438" y1="6.7482629" y2="16.9055347"><stop offset="0" style="stop-color:#FFFFFF;stop-opacity:0.2"/><stop offset="1" style="stop-color:#FFFFFF;stop-opacity:0"/></linearGradient><path d="M12.000104,0C6.2335024,0,1.5059636,4.0639648,1.0020573,9.4536133   C0.982526,9.6630859,1.0967839,9.862793,1.2872136,9.9526367c0.1914063,0.0893555,0.4169922,0.0498047,0.5664063-0.0991211   C5.1192446,6.5874023,8.4385805,5,12.000104,5c2.7167969,0,3.8955078,1.4570313,3.9931641,5H8.0294008   c0.1132813-0.956543,0.5537109-1.9736328,1.3867188-3.2226563C9.5440493,6.5854492,9.524518,6.331543,9.368268,6.1616211   c-0.15625-0.1694336-0.40625-0.2109375-0.609375-0.0996094C5.7676821,7.7075195,3.0001042,9.8681641,3.0001042,14.5   c0,5.2382813,4.9345703,9.5,11,9.5c2.5283213,0,4.8603525-0.5595703,6.7451181-1.6176758   c0.1572266-0.0883789,0.2548828-0.2553711,0.2548828-0.4360352V17.5c0-0.1894531-0.1074219-0.362793-0.2763672-0.4472656   c-0.1708984-0.0839844-0.3720703-0.0664063-0.5244141,0.0478516C18.5001049,18.378418,16.7999096,19,15.000104,19   c-4.3789063,0-6.6650391-1.3095703-6.9667969-4h14.4667978c0.2763672,0,0.5-0.2236328,0.5-0.5v-4   C23.0001049,4.7104492,18.0655346,0,12.000104,0z" fill="url(#SVGID_1_)"/></g><g/><g/><g/><g/><g/><g/><g/><g/><g/><g/><g/><g/><g/><g/><g/></svg>