<?xml version="1.0" ?><svg enable-background="new 0 0 24 24" id="Layer_1" version="1.1" viewBox="0 0 24 24" xml:space="preserve" xmlns="http://www.w3.org/2000/svg" xmlns:xlink="http://www.w3.org/1999/xlink"><g><path d="M22.0410156,8.5097656c-0.7036133-0.5477295-1.8262939-1.4248657-3.0444946-2.3851929l1.0640259-1.0640259   c0.1953125-0.1953125,0.1953125-0.5117188,0-0.7070313l-1.4140625-1.4140625c-0.1953125-0.1953125-0.5117188-0.1953125-0.7070313,0   L16.631897,4.2470093c-1.5582886-1.2481079-2.677124-2.1686401-3.288147-2.7094116   C12.9463863,1.186121,12.4733753,1.0000858,12.0003462,1c-0.4732599-0.0000858-0.946538,0.1859493-1.3440962,0.5375977   c-1.6845703,1.4912109-6.6425781,5.3725586-8.6972656,6.972168C1.3496094,8.9848633,1,9.7026367,1,10.4785156V21   c0,1.1030273,0.8974609,2,2,2h18c1.1025391,0,2-0.8969727,2-2V10.4785156C23,9.7026367,22.6503906,8.9848633,22.0410156,8.5097656z   " fill="#303C42"/><path d="M18.2929688,4L19,4.7070313l-7,7l-3-3L9.7070313,8l1.9394531,1.9394531   c0.1953125,0.1953125,0.5117188,0.1953125,0.7070313,0L18.2929688,4z" fill="#F2F2F2"/><path d="M2.5742188,9.2988281c2.0605469-1.6054688,7.0390625-5.5024414,8.7441406-7.012207   c0.4296875-0.3808594,0.9335938-0.3808594,1.3632813,0c0.6103516,0.5404663,1.7138672,1.4494629,3.2393188,2.6713257L12,8.8789063   l-1.9394531-1.9394531c-0.1953125-0.1953125-0.5117188-0.1953125-0.7070313,0L7.9394531,8.3535156   c-0.1953125,0.1953125-0.1953125,0.5117188,0,0.7070313l3.7070313,3.7070313   C11.7441406,12.8652344,11.8720703,12.9140625,12,12.9140625s0.2558594-0.0488281,0.3535156-0.1464844l5.9310913-5.9310913   c1.2563477,0.9904785,2.4195557,1.8996582,3.1411743,2.4623413C21.7910156,9.5830078,22,10.0126953,22,10.4785156v0.2359619   l-10.000061,5.8974609L2,10.7144775v-0.2359619C2,10.0126953,2.2089844,9.5830078,2.5742188,9.2988281z" fill="#0288D1"/><path d="M2,21v-9.1246948l9.0158081,5.3170166l-8.1173096,4.7871094C2.3967285,21.9260254,2,21.5153198,2,21z" fill="#29B6F6"/><path d="M21,22H4.8319702L22,11.8753052V21C22,21.5512695,21.5517578,22,21,22z" fill="#81D4FA"/><linearGradient gradientUnits="userSpaceOnUse" id="SVGID_1_" x1="14.9626131" x2="19.1128216" y1="9.4514494" y2="13.6016569"><stop offset="0" style="stop-color:#000000;stop-opacity:0.1"/><stop offset="1" style="stop-color:#000000;stop-opacity:0"/></linearGradient><path d="M22,10.7144775v-0.2359619c0-0.4658203-0.2089844-0.8955078-0.5742188-1.1796875   c-0.7216187-0.5626831-1.8848267-1.4718628-3.1411743-2.4623413l-5.9310913,5.9310913   C12.2558594,12.8652344,12.1279297,12.9140625,12,12.9140625s-0.2558594-0.0488281-0.3535156-0.1464844l2.5493774,2.5493774   L22,10.7144775z" fill="url(#SVGID_1_)"/><linearGradient gradientUnits="userSpaceOnUse" id="SVGID_2_" x1="1.5527278" x2="24.0374966" y1="8.7334032" y2="19.2182236"><stop offset="0" style="stop-color:#FFFFFF;stop-opacity:0.2"/><stop offset="1" style="stop-color:#FFFFFF;stop-opacity:0"/></linearGradient><path d="M22.0410156,8.5097656c-0.7036133-0.5477295-1.8262939-1.4248657-3.0444946-2.3851929   l1.0640259-1.0640259c0.1953125-0.1953125,0.1953125-0.5117188,0-0.7070313l-1.4140625-1.4140625   c-0.1953125-0.1953125-0.5117188-0.1953125-0.7070313,0L16.631897,4.2470093   c-1.5582886-1.2481079-2.677124-2.1686401-3.288147-2.7094116C12.9463863,1.186121,12.4733753,1.0000858,12.0003462,1   c-0.4732599-0.0000858-0.946538,0.1859493-1.3440962,0.5375977c-1.6845703,1.4912109-6.6425781,5.3725586-8.6972656,6.972168   C1.3496094,8.9848633,1,9.7026367,1,10.4785156V21c0,1.1030273,0.8974609,2,2,2h18c1.1025391,0,2-0.8969727,2-2V10.4785156   C23,9.7026367,22.6503906,8.9848633,22.0410156,8.5097656z" fill="url(#SVGID_2_)"/></g><g/><g/><g/><g/><g/><g/><g/><g/><g/><g/><g/><g/><g/><g/><g/></svg>