<?xml version="1.0" ?><svg enable-background="new 0 0 24 24" id="Layer_1" version="1.1" viewBox="0 0 24 24" xml:space="preserve" xmlns="http://www.w3.org/2000/svg" xmlns:xlink="http://www.w3.org/1999/xlink"><g><path d="M22.5,4h-1.8818359l-1.8945313-0.9472656c-0.1005859-0.050293-0.215332-0.0654297-0.3242188-0.0424805   l-2.852478,0.5872803c-0.6015015-1.2811279-1.7608643-2.1953125-3.119812-2.4872437C11.6380005,0.4279175,10.6227417,0,9.5,0   C7.0185547,0,5,2.0185547,5,4.5v1.2689819l-3.6005859,0.741272C1.1669922,6.5581055,1,6.7626953,1,7v13.5   c0,0.2426758,0.1743164,0.4501953,0.4130859,0.4921875l17,3C18.4418945,23.9975586,18.4711914,24,18.5,24   c0.0410156,0,0.081543-0.0048828,0.1210938-0.0151367l4-1C22.84375,22.9291992,23,22.7294922,23,22.5v-18   C23,4.2236328,22.7763672,4,22.5,4z M6,5.5630493V4.5C6,2.5703125,7.5703125,1,9.5,1   c0.3248291,0,0.6333008,0.0588379,0.9319458,0.1420288C8.5135498,1.6131592,7.0817871,3.3084717,7.0147705,5.354187L6,5.5630493z    M8.0360107,5.1439209C8.2174072,3.3832397,9.6922607,2,11.5,2c0.1636353,0,0.3245239,0.015686,0.4835205,0.0383301   c0.5444336,0.5491943,0.8922729,1.2815552,0.9790039,2.0913086L8.0360107,5.1439209z M13.9421997,3.9279175   c-0.0522461-0.4058838-0.1392212-0.8007202-0.2925415-1.1655884c0.3577881,0.2838745,0.6652832,0.6329346,0.8924561,1.0420532   L13.9421997,3.9279175z" fill="#303C42"/><path d="M22,22.109375l-3.5180664,0.8798828L2,20.0805664V7.4077148l16.4311523-3.3833008l1.8452148,0.9228516   C20.3457031,4.9819336,20.4223633,5,20.5,5H22V22.109375z" fill="#689F38"/><path d="M13.4077148,8.5087891l-8,1.5C5.1713867,10.0527344,5,10.2592773,5,10.5v6   c0,0.2407227,0.1713867,0.4472656,0.4077148,0.4912109l8,1.5C13.4384766,18.4970703,13.4692383,18.5,13.5,18.5   c0.1157227,0,0.2290039-0.0400391,0.3193359-0.1152344C13.9335938,18.2895508,14,18.1489258,14,18V9   c0-0.1489258-0.0664063-0.2895508-0.1806641-0.3847656S13.5537109,8.4799805,13.4077148,8.5087891z" fill="#303C42"/><polygon fill="#FFFFFF" points="13,13 9.5,13 9.5,10.2587891 13,9.6025391  "/><polygon fill="#FFFFFF" points="8.5,10.4462891 8.5,13 6,13 6,10.9150391  "/><polygon fill="#FFFFFF" points="6,14 8.5,14 8.5,16.5537109 6,16.0849609  "/><polygon fill="#FFFFFF" points="9.5,16.7412109 9.5,14 13,14 13,17.3974609  "/><polygon fill="#FFFFFF" opacity="0.05" points="20.34375,4.9749231 20.34375,22.5236092 22,22.109375 22,5 20.4264698,5.0029411     "/><polygon opacity="0.03" points="18.4311523,4.0244141 18.4311523,22.9892578 20.34375,22.5236092 20.34375,4.9749231  "/><linearGradient gradientUnits="userSpaceOnUse" id="SVGID_1_" x1="0.8156435" x2="24.9080582" y1="7.2845097" y2="18.5189877"><stop offset="0" style="stop-color:#FFFFFF;stop-opacity:0.2"/><stop offset="1" style="stop-color:#FFFFFF;stop-opacity:0"/></linearGradient><path d="M22.5,4h-1.8818359l-1.8945313-0.9472656   c-0.1005859-0.050293-0.215332-0.0654297-0.3242188-0.0424805l-2.852478,0.5872803   c-0.6015015-1.2811279-1.7608643-2.1953125-3.119812-2.4872437C11.6380005,0.4279175,10.6227417,0,9.5,0   C7.0185547,0,5,2.0185547,5,4.5v1.2689819l-3.6005859,0.741272C1.1669922,6.5581055,1,6.7626953,1,7v13.5   c0,0.2426758,0.1743164,0.4501953,0.4130859,0.4921875l17,3C18.4418945,23.9975586,18.4711914,24,18.5,24   c0.0410156,0,0.081543-0.0048828,0.1210938-0.0151367l4-1C22.84375,22.9291992,23,22.7294922,23,22.5v-18   C23,4.2236328,22.7763672,4,22.5,4z M6,5.5630493V4.5C6,2.5703125,7.5703125,1,9.5,1   c0.3248291,0,0.6333008,0.0588379,0.9319458,0.1420288C8.5135498,1.6131592,7.0817871,3.3084717,7.0147705,5.354187L6,5.5630493z    M8.0360107,5.1439209C8.2174072,3.3832397,9.6922607,2,11.5,2c0.1636353,0,0.3245239,0.015686,0.4835205,0.0383301   c0.5444336,0.5491943,0.8922729,1.2815552,0.9790039,2.0913086L8.0360107,5.1439209z M13.9421997,3.9279175   c-0.0522461-0.4058838-0.1392212-0.8007202-0.2925415-1.1655884c0.3577881,0.2838745,0.6652832,0.6329346,0.8924561,1.0420532   L13.9421997,3.9279175z" fill="url(#SVGID_1_)"/></g><g/><g/><g/><g/><g/><g/><g/><g/><g/><g/><g/><g/><g/><g/><g/></svg>