<?xml version="1.0" ?><svg enable-background="new 0 0 24 24" id="Layer_1" version="1.1" viewBox="0 0 24 24" xml:space="preserve" xmlns="http://www.w3.org/2000/svg" xmlns:xlink="http://www.w3.org/1999/xlink"><g><path d="M22.8823242,21.6010742l-2.1689453-5.6391602C20.4921875,15.3867188,19.9296875,15,19.3129883,15H17.871582   L13.6918945,1.0722656C13.5039063,0.440918,12.9125977,0,12.2543945,0h-0.5087891   c-0.6582031,0-1.2495117,0.440918-1.4375,1.0722656L6.128418,15H4.6870117c-0.6166992,0-1.1791992,0.3867188-1.4003906,0.9614258   l-2.168457,5.6386719C1.0395508,21.8027344,1,22.0161133,1,22.2348633C1,23.2080078,1.7919922,24,2.7651367,24h18.4697266   C22.2080078,24,23,23.2080078,23,22.2348633C23,22.0161133,22.9604492,21.8027344,22.8823242,21.6010742z" fill="#303C42"/><path d="M13.4750366,3.8450928l1.1547241,3.8421631C13.9694214,7.8270264,12.9605103,8,12,8   c-0.9623413,0-1.9729004-0.1735229-2.6331177-0.3134766l1.1530151-3.8424072C10.9980469,3.937439,11.489624,4,12,4   C12.5085449,4,12.9983521,3.9378662,13.4750366,3.8450928z" fill="#FFFFFF"/><path d="M12,9c1.088562,0,2.2153931-0.2000122,2.918335-0.352356l0.822937,2.7380981   C15.2014771,11.6775513,13.892395,12,12,12c-1.894104,0-3.2040405-0.3231201-3.7429199-0.6150513l0.8215942-2.7379761   C9.7813721,8.7993774,10.9098511,9,12,9z" fill="#EF6C00"/><path d="M12,13c1.3380127,0,3.0125122-0.1819458,4.0308838-0.6505737l0.9388428,3.1240234   C16.7017822,16.1246948,14.8818359,17,12,17c-2.881958,0-4.7020264-0.8753662-4.9697876-1.5266724l0.9376221-3.1245117   C8.986145,12.8179321,10.661377,13,12,13z" fill="#FFFFFF"/><path d="M11.2661133,1.3574219C11.3300781,1.1435547,11.5224609,1,11.7456055,1h0.5087891   c0.2231445,0,0.4155273,0.1435547,0.4794922,0.3574219l0.4541626,1.526123   c-0.7758179,0.1367188-1.6040649,0.1364746-2.3796997-0.0006714L11.2661133,1.3574219z" fill="#EF6C00"/><linearGradient gradientUnits="userSpaceOnUse" id="SVGID_1_" x1="9.6976624" x2="12.5052052" y1="5.6074052" y2="6.916584"><stop offset="0" style="stop-color:#FFFFFF;stop-opacity:0.2"/><stop offset="1" style="stop-color:#FFFFFF;stop-opacity:0"/></linearGradient><path d="M10.7982788,3.8872681c-0.0924683-0.0153809-0.1869507-0.0253296-0.2783813-0.0431519   L9.3668823,7.6865234C10.0270996,7.8264771,11.0376587,8,12,8c-0.7745972,0-1.5879517-0.1735229-2.1193237-0.3134766   L10.7982788,3.8872681z" fill="url(#SVGID_1_)"/><path d="M13.4750366,3.8450928c-0.0911255,0.0177612-0.1853027,0.0276489-0.2774658,0.0429077l0.9190674,3.7992554   C13.585144,7.8270264,12.7730713,8,12,8c0.9605103,0,1.9694214-0.1729736,2.6297607-0.3127441L13.4750366,3.8450928z" opacity="0.1"/><linearGradient gradientUnits="userSpaceOnUse" id="SVGID_2_" x1="8.5080566" x2="12.1918993" y1="9.8706656" y2="11.5884695"><stop offset="0" style="stop-color:#FFFFFF;stop-opacity:0.2"/><stop offset="1" style="stop-color:#FFFFFF;stop-opacity:0"/></linearGradient><path d="M9.6224976,8.7553101C9.4248047,8.718689,9.2380371,8.6815186,9.0786743,8.6469727   l-0.8215942,2.7379761C8.7959595,11.6768799,10.105896,12,12,12c-1.5245361,0-2.5788574-0.3231201-3.0125732-0.6150513   L9.6224976,8.7553101z" fill="url(#SVGID_2_)"/><path d="M14.918335,8.647644c-0.1592407,0.0345459-0.3458862,0.0716553-0.5432739,0.1081543l0.6361694,2.6299438   C14.5767822,11.6775513,13.5231323,12,12,12c1.892395,0,3.2014771-0.3224487,3.741272-0.6142578L14.918335,8.647644z" opacity="0.1"/><linearGradient gradientUnits="userSpaceOnUse" id="SVGID_3_" x1="7.2370176" x2="12.3305206" y1="13.9160576" y2="16.2911968"><stop offset="0" style="stop-color:#FFFFFF;stop-opacity:0.2"/><stop offset="1" style="stop-color:#FFFFFF;stop-opacity:0"/></linearGradient><path d="M7.999939,15.4733276l0.6928101-2.8684082   c-0.2629395-0.0742188-0.5108032-0.1574707-0.7249146-0.2561035l-0.9376221,3.1245117C7.2979736,16.1246338,9.118042,17,12,17   C9.6803589,17,8.2154541,16.1246338,7.999939,15.4733276z" fill="url(#SVGID_3_)"/><path d="M16.0308838,12.3494263c-0.2140503,0.0985107-0.461853,0.1816406-0.7246704,0.2557983L16,15.4734497   C15.7843628,16.1246948,14.319519,17,12,17c2.8818359,0,4.7017822-0.8753052,4.9697266-1.5265503L16.0308838,12.3494263z" opacity="0.1"/><path d="M12.5906982,1.3574219l0.3655396,1.526123C12.6445313,2.9517822,12.3222656,2.9857178,12,2.9857178   c0.4003906,0,0.8007813-0.0339355,1.1880493-0.1021729l-0.4541626-1.526123C12.6699219,1.1435547,12.4775391,1,12.2543945,1   h-0.0496216C12.3843384,1,12.5391846,1.1435547,12.5906982,1.3574219z" opacity="0.1"/><linearGradient gradientUnits="userSpaceOnUse" id="SVGID_4_" x1="11.0438328" x2="12.2739439" y1="1.8211503" y2="2.3947606"><stop offset="0" style="stop-color:#FFFFFF;stop-opacity:0.2"/><stop offset="1" style="stop-color:#FFFFFF;stop-opacity:0"/></linearGradient><path d="M11.0408936,2.8828735l0.3684082-1.5254517C11.4608154,1.1435547,11.6156616,1,11.7952271,1   h-0.0496216c-0.2231445,0-0.4155273,0.1435547-0.4794922,0.3574219l-0.4577637,1.5254517   c0.3878784,0.0686035,0.7888794,0.1029053,1.1899414,0.1030273C11.6755981,2.9857788,11.3529663,2.951416,11.0408936,2.8828735z" fill="url(#SVGID_4_)"/><path d="M21.2348633,23H2.7651367C2.3432617,23,2,22.6567383,2,22.2348633   c0-0.0947266,0.0170898-0.1865234,0.0512695-0.2744141l2.1689453-5.6401367C4.2939453,16.1289063,4.4814453,16,4.6870117,16   h1.4758301C6.8797607,17.3694458,9.5898438,18,12,18s5.1202393-0.6305542,5.8371582-2h1.4758301   c0.2055664,0,0.3930664,0.1289063,0.4667969,0.3208008l2.1694336,5.640625C21.9829102,22.0483398,22,22.1401367,22,22.2348633   C22,22.6567383,21.6567383,23,21.2348633,23z" fill="#EF6C00"/><linearGradient gradientUnits="userSpaceOnUse" id="SVGID_5_" x1="9.9351759" x2="20.6667442" y1="13.1529589" y2="23.8845253"><stop offset="0" style="stop-color:#000000;stop-opacity:0.1"/><stop offset="1" style="stop-color:#000000;stop-opacity:0"/></linearGradient><path d="M22,22.2348633c0-0.0947266-0.0170898-0.1865234-0.0507813-0.2734375l-2.1694336-5.640625   C19.7060547,16.1289063,19.5185547,16,19.3129883,16h-1.4758301C17.1202393,17.3694458,14.4101563,18,12,18   c-2.0789795,0-4.3743286-0.472168-5.4279175-1.4800415l-0.0054932,0.0015869L13.0450439,23h8.1898193   C21.6567383,23,22,22.6567383,22,22.2348633z" fill="url(#SVGID_5_)"/><linearGradient gradientUnits="userSpaceOnUse" id="SVGID_6_" x1="5.5494351" x2="24.2976742" y1="11.1005249" y2="19.8429718"><stop offset="0" style="stop-color:#FFFFFF;stop-opacity:0.2"/><stop offset="1" style="stop-color:#FFFFFF;stop-opacity:0"/></linearGradient><path d="M22.8823242,21.6010742l-2.1689453-5.6391602C20.4921875,15.3867188,19.9296875,15,19.3129883,15   H17.871582L13.6918945,1.0722656C13.5039063,0.440918,12.9125977,0,12.2543945,0h-0.5087891   c-0.6582031,0-1.2495117,0.440918-1.4375,1.0722656L6.128418,15H4.6870117c-0.6166992,0-1.1791992,0.3867188-1.4003906,0.9614258   l-2.168457,5.6386719C1.0395508,21.8027344,1,22.0161133,1,22.2348633C1,23.2080078,1.7919922,24,2.7651367,24h18.4697266   C22.2080078,24,23,23.2080078,23,22.2348633C23,22.0161133,22.9604492,21.8027344,22.8823242,21.6010742z" fill="url(#SVGID_6_)"/></g><g/><g/><g/><g/><g/><g/><g/><g/><g/><g/><g/><g/><g/><g/><g/></svg>