<?xml version="1.0" ?><svg enable-background="new 0 0 24 24" id="Layer_1" version="1.1" viewBox="0 0 24 24" xml:space="preserve" xmlns="http://www.w3.org/2000/svg" xmlns:xlink="http://www.w3.org/1999/xlink"><g><path d="M23.5,3.0000963H14v-2.5c0-0.1489258-0.0664063-0.2905273-0.1816406-0.3852539   c-0.1142578-0.0947266-0.2675781-0.1342773-0.4130859-0.105957l-13,2.5C0.1699219,2.5542955,0,2.7603502,0,3.0000963v18   c0,0.2397461,0.1699219,0.4458008,0.4052734,0.4912109l13,2.5c0.03125,0.0058594,0.0634766,0.0087891,0.0947266,0.0087891   c0.1152344,0,0.2285156-0.0400391,0.3183594-0.1147461C13.9335938,23.7906227,14,23.6490211,14,23.5000954v-2.5h9.5   c0.2763672,0,0.5-0.2236328,0.5-0.5v-17C24,3.2237291,23.7763672,3.0000963,23.5,3.0000963z" fill="#303C42"/><path d="M18,8.0000963v-1.949707c0.9785156,0.1992188,1.75,0.9716797,1.9501953,1.949707H18z" fill="#E65100"/><path d="M17.5,9.0000963H19v0.5c0,1.378418-1.1210938,2.5-2.5,2.5s-2.5-1.121582-2.5-2.5s1.1210938-2.5,2.5-2.5H17   v1.5C17,8.7764635,17.2236328,9.0000963,17.5,9.0000963z" fill="#E65100"/><polygon fill="#E65100" points="13,22.8946266 1,20.5870094 1,3.4131823 13,1.1055651  "/><path d="M23,20.0000954h-9v-1.5h7.5c0.2763672,0,0.5-0.2236328,0.5-0.5s-0.2236328-0.5-0.5-0.5H14v-1.999999h7.5   c0.2763672,0,0.5-0.2236328,0.5-0.5s-0.2236328-0.5-0.5-0.5H14v-2.5582886c0.6359863,0.651062,1.5202637,1.0582886,2.5,1.0582886   c1.9296875,0,3.5-1.5703125,3.5-3.5v-0.5h0.5c0.2763672,0,0.5-0.2236328,0.5-0.5c0-1.9296875-1.5703125-3.5-3.5-3.5   c-0.2763672,0-0.5,0.2236328-0.5,0.5v0.5h-0.5c-0.9797363,0-1.8640137,0.4072266-2.5,1.0582886V4.0000963h9V20.0000954z" fill="#FFFFFF"/><path d="M6.5,8.0000963h-1c-0.2763672,0-0.5,0.2236328-0.5,0.5v7c0,0.2763672,0.2236328,0.499999,0.5,0.499999   S6,15.7764635,6,15.5000963v-2.5h0.5c1.3789063,0,2.5-1.121582,2.5-2.5S7.8789063,8.0000963,6.5,8.0000963z M6.5,12.0000963H6v-3   h0.5c0.8271484,0,1.5,0.6728516,1.5,1.5S7.3271484,12.0000963,6.5,12.0000963z" fill="#FFFFFF"/><linearGradient gradientUnits="userSpaceOnUse" id="SVGID_1_" x1="10" x2="22.5" y1="8.0000963" y2="20.5000954"><stop offset="0" style="stop-color:#000000;stop-opacity:0.1"/><stop offset="1" style="stop-color:#000000;stop-opacity:0"/></linearGradient><path d="M14,4.0000963v3.0582886c0.5351563-0.5478516,1.2511597-0.906311,2.046814-1.0114746L14,4.0000963z    M19.9541016,9.9541979C19.7286987,11.667882,18.2741699,13.0000963,16.5,13.0000963   c-0.9797363,0-1.8640137-0.4072266-2.5-1.0582886v2.5582886h7.5c0.2763672,0,0.5,0.2236328,0.5,0.5s-0.2236328,0.5-0.5,0.5H14   v1.999999h7.5c0.2763672,0,0.5,0.2236328,0.5,0.5s-0.2236328,0.5-0.5,0.5H14v1.5h9v-6.999999L19.9541016,9.9541979z" fill="url(#SVGID_1_)"/><linearGradient gradientUnits="userSpaceOnUse" id="SVGID_2_" x1="-1.4422562" x2="25.059269" y1="5.981926" y2="18.3397903"><stop offset="0" style="stop-color:#FFFFFF;stop-opacity:0.2"/><stop offset="1" style="stop-color:#FFFFFF;stop-opacity:0"/></linearGradient><path d="M23.5,3.0000963H14v-2.5c0-0.1489258-0.0664063-0.2905273-0.1816406-0.3852539   c-0.1142578-0.0947266-0.2675781-0.1342773-0.4130859-0.105957l-13,2.5C0.1699219,2.5542955,0,2.7603502,0,3.0000963v18   c0,0.2397461,0.1699219,0.4458008,0.4052734,0.4912109l13,2.5c0.03125,0.0058594,0.0634766,0.0087891,0.0947266,0.0087891   c0.1152344,0,0.2285156-0.0400391,0.3183594-0.1147461C13.9335938,23.7906227,14,23.6490211,14,23.5000954v-2.5h9.5   c0.2763672,0,0.5-0.2236328,0.5-0.5v-17C24,3.2237291,23.7763672,3.0000963,23.5,3.0000963z" fill="url(#SVGID_2_)"/></g><g/><g/><g/><g/><g/><g/><g/><g/><g/><g/><g/><g/><g/><g/><g/></svg>