<?xml version="1.0" ?><svg enable-background="new 0 0 24 24" id="Layer_1" version="1.1" viewBox="0 0 24 24" xml:space="preserve" xmlns="http://www.w3.org/2000/svg" xmlns:xlink="http://www.w3.org/1999/xlink"><g><path d="M13.5317249,9.0629883c-2.1884766,0-3.96875,1.7802734-3.96875,3.96875   C9.5629749,15.2197266,11.3432484,17,13.5317249,17c2.1879883,0,3.9682617-1.7802734,3.9682617-3.9682617   C17.4999866,10.8432617,15.7197132,9.0629883,13.5317249,9.0629883z M13.4999866,14c-0.5512695,0-1-0.4487305-1-1s0.4487305-1,1-1   s1,0.4487305,1,1S14.0512562,14,13.4999866,14z" fill="#303C42"/><path d="M13.5317249,10.0629883c-1.637207,0-2.96875,1.331543-2.96875,2.96875   c0,1.6367188,1.331543,2.9682617,2.96875,2.9682617c1.6367188,0,2.9682617-1.331543,2.9682617-2.9682617   C16.4999866,11.3945313,15.1684437,10.0629883,13.5317249,10.0629883z M13.4999866,14c-0.5512695,0-1-0.4487305-1-1   s0.4487305-1,1-1s1,0.4487305,1,1S14.0512562,14,13.4999866,14z" fill="#4FC3F7"/><path d="M13.4999866,11c-1.1030273,0-2,0.8969727-2,2s0.8969727,2,2,2s2-0.8969727,2-2S14.603014,11,13.4999866,11z    M13.4999866,14c-0.5512695,0-1-0.4487305-1-1s0.4487305-1,1-1s1,0.4487305,1,1S14.0512562,14,13.4999866,14z" fill="#303C42"/><path d="M9.965807,16.3188477l-3.5000005-9C6.3910995,7.1264648,6.2060409,7,5.9999862,7H3.9999864   C3.7939317,7,3.6088731,7.1264648,3.5341661,7.3188477l-3.5,9c-0.0600586,0.1538086-0.0400391,0.3271484,0.0532227,0.4633789   S0.3349473,17,0.4999864,17h2c0.2114258,0,0.3999023-0.1328125,0.4707031-0.3320313L3.38817,15.5h3.2236326l0.4174805,1.1679688   C7.1000838,16.8671875,7.2885604,17,7.4999862,17h2.0000005c0.1650391,0,0.3193359-0.081543,0.4125977-0.2177734   S10.0258656,16.4726563,9.965807,16.3188477z M4.4594588,12.5l0.5405273-1.5131836L5.5405135,12.5H4.4594588z" fill="#303C42"/><path d="M20.4999866,7h-2c-0.2763672,0-0.5,0.2236328-0.5,0.5v9c0,0.2763672,0.2236328,0.5,0.5,0.5h2   c0.2763672,0,0.5-0.2236328,0.5-0.5v-9C20.9999866,7.2236328,20.7763538,7,20.4999866,7z" fill="#303C42"/><rect fill="#4FC3F7" height="8" width="1" x="18.9999866" y="8"/><path d="M22.9999866,15c-0.5512695,0-1,0.4487305-1,1s0.4487305,1,1,1s1-0.4487305,1-1S23.5512562,15,22.9999866,15   z" fill="#303C42"/><g><path d="M5.6581893,8H4.341783l-3.1108396,8h0.9165039l0.4174805-1.1679688    C2.6357286,14.6328125,2.8242052,14.5,3.0356309,14.5h3.9287107c0.2114258,0,0.3999023,0.1328125,0.4707031,0.3320313    L7.8525252,16h0.9165044L5.6581893,8z M6.6586776,13.2880859C6.5649276,13.4208984,6.4125838,13.5,6.2499862,13.5H3.7499864    c-0.1625977,0-0.3149414-0.0791016-0.4086914-0.2119141s-0.1166992-0.3032227-0.0620117-0.4560547l1.2499998-3.5    c0.1416016-0.3984375,0.7998047-0.3984375,0.9414063,0l1.25,3.5C6.7753768,12.9848633,6.7524276,13.1552734,6.6586776,13.2880859z    " fill="#81D4FA"/><line fill="#81D4FA" x1="4.4594588" x2="5.5405135" y1="12.5" y2="12.5"/></g><linearGradient gradientUnits="userSpaceOnUse" id="SVGID_1_" x1="2.9843822" x2="23.2057705" y1="8.4952774" y2="17.9246655"><stop offset="0" style="stop-color:#FFFFFF;stop-opacity:0.2"/><stop offset="1" style="stop-color:#FFFFFF;stop-opacity:0"/></linearGradient><path d="M13.5317249,9.0629883c-2.1884766,0-3.96875,1.7802734-3.96875,3.96875   C9.5629749,15.2197266,11.3432484,17,13.5317249,17c2.1879883,0,3.9682617-1.7802734,3.9682617-3.9682617   C17.4999866,10.8432617,15.7197132,9.0629883,13.5317249,9.0629883z M13.4999866,14c-0.5512695,0-1-0.4487305-1-1s0.4487305-1,1-1   s1,0.4487305,1,1S14.0512562,14,13.4999866,14z M6.4658065,7.3188477C6.3910995,7.1264648,6.2060409,7,5.9999862,7H3.9999864   C3.7939317,7,3.6088731,7.1264648,3.5341661,7.3188477l-3.5,9c-0.0600586,0.1538086-0.0400391,0.3271484,0.0532227,0.4633789   S0.3349473,17,0.4999864,17h2c0.2114258,0,0.3999023-0.1328125,0.4707031-0.3320313L3.38817,15.5h3.2236326l0.4174805,1.1679688   C7.1000838,16.8671875,7.2885604,17,7.4999862,17h2.0000005c0.1650391,0,0.3193359-0.081543,0.4125977-0.2177734   s0.1132813-0.3095703,0.0532227-0.4633789L6.4658065,7.3188477z M4.4594588,12.5l0.5405273-1.5131836L5.5405135,12.5H4.4594588z    M20.4999866,7h-2c-0.2763672,0-0.5,0.2236328-0.5,0.5v9c0,0.2763672,0.2236328,0.5,0.5,0.5h2c0.2763672,0,0.5-0.2236328,0.5-0.5   v-9C20.9999866,7.2236328,20.7763538,7,20.4999866,7z M22.9999866,15c-0.5512695,0-1,0.4487305-1,1s0.4487305,1,1,1   s1-0.4487305,1-1S23.5512562,15,22.9999866,15z" fill="url(#SVGID_1_)"/></g><g/><g/><g/><g/><g/><g/><g/><g/><g/><g/><g/><g/><g/><g/><g/></svg>