<?xml version="1.0" ?><svg enable-background="new 0 0 24 24" id="Layer_1" version="1.1" viewBox="0 0 24 24" xml:space="preserve" xmlns="http://www.w3.org/2000/svg" xmlns:xlink="http://www.w3.org/1999/xlink"><g><path d="M20.8535156,5.1464844l-5-5C15.7597656,0.0527344,15.6328125,0,15.5,0H5C3.8969727,0,3,0.8969727,3,2v20   c0,1.1030273,0.8969727,2,2,2h14c1.1030273,0,2-0.8969727,2-2V5.5C21,5.3671875,20.9472656,5.2402344,20.8535156,5.1464844z" fill="#303C42"/><path d="M16,1.7070313L19.2929688,5H17c-0.5512695,0-1-0.4487305-1-1V1.7070313z" fill="#FEE886"/><path d="M19,23H5c-0.5512695,0-1-0.4487305-1-1V2c0-0.5512695,0.4487305-1,1-1h10v3c0,1.1030273,0.8969727,2,2,2h3   v16C20,22.5512695,19.5512695,23,19,23z" fill="#FDD835"/><path d="M16.5,12H15V9.5C15,9.2236328,14.7763672,9,14.5,9h-7C7.2236328,9,7,9.2236328,7,9.5v6   C7,15.7763672,7.2236328,16,7.5,16H9v2.5C9,18.7763672,9.2236328,19,9.5,19h7c0.2763672,0,0.5-0.2236328,0.5-0.5v-6   C17,12.2236328,16.7763672,12,16.5,12z M9,12.5V15H8v-5h6v2H9.5C9.2236328,12,9,12.2236328,9,12.5z M16,18h-6v-5h6V18z" fill="#FFFFFF"/><linearGradient gradientUnits="userSpaceOnUse" id="SVGID_1_" x1="16.5886536" x2="20.9553528" y1="4.4993591" y2="8.8660583"><stop offset="0" style="stop-color:#000000;stop-opacity:0.1"/><stop offset="1" style="stop-color:#000000;stop-opacity:0"/></linearGradient><path d="M20,9.8214111V6h-3c-0.5288696,0-1.0070801-0.2099609-1.3650513-0.5462646l-0.0016479,0.0009766   L20,9.8214111z" fill="url(#SVGID_1_)"/><linearGradient gradientUnits="userSpaceOnUse" id="SVGID_2_" x1="0.2651825" x2="23.0503139" y1="7.4215212" y2="18.046402"><stop offset="0" style="stop-color:#FFFFFF;stop-opacity:0.2"/><stop offset="1" style="stop-color:#FFFFFF;stop-opacity:0"/></linearGradient><path d="M20.8535156,5.1464844l-5-5C15.7597656,0.0527344,15.6328125,0,15.5,0H5   C3.8969727,0,3,0.8969727,3,2v20c0,1.1030273,0.8969727,2,2,2h14c1.1030273,0,2-0.8969727,2-2V5.5   C21,5.3671875,20.9472656,5.2402344,20.8535156,5.1464844z" fill="url(#SVGID_2_)"/></g><g/><g/><g/><g/><g/><g/><g/><g/><g/><g/><g/><g/><g/><g/><g/></svg>