<?xml version="1.0" ?><svg enable-background="new 0 0 24 24" id="Layer_1" version="1.1" viewBox="0 0 24 24" xml:space="preserve" xmlns="http://www.w3.org/2000/svg" xmlns:xlink="http://www.w3.org/1999/xlink"><g><path d="M21,1H3C1.8969727,1,1,1.8969727,1,3v18c0,1.1030273,0.8969727,2,2,2h18c1.1030273,0,2-0.8969727,2-2V3   C23,1.8969727,22.1030273,1,21,1z" fill="#303C42"/><path d="M22,21c0,0.5512695-0.4487305,1-1,1H3c-0.5512695,0-1-0.4487305-1-1V3c0-0.5512695,0.4487305-1,1-1h18   c0.5512695,0,1,0.4487305,1,1V21z" fill="#8E24AA"/><path d="M13.5,10C11,10,11,9.2475586,11,9s0-1,1.5-1c1.5410156,0,4.3071289,0.9624023,4.3349609,0.9716797   c0.152832,0.0541992,0.3222656,0.0302734,0.4541016-0.0639648C17.4213867,8.8139648,17.5,8.6621094,17.5,8.5v-3   c0-0.1962891-0.1147461-0.3745117-0.2939453-0.4555664C17.1118164,5.0019531,14.8666992,4,12,4C9.0913086,4,6,5.7524414,6,9   c0,3.6425781,3.3735352,5,5.5,5c1.5,0,1.5,0.675293,1.5,1c0,0.5795898-0.6308594,1-1.5,1   c-0.887207,0-3.8193359-0.7104492-4.8745117-0.9838867c-0.1499023-0.0395508-0.309082-0.0068359-0.4316406,0.0883789   C6.0717773,15.1992188,6,15.3452148,6,15.5v3c0,0.1870117,0.1044922,0.3583984,0.2705078,0.4443359   C6.3540039,18.9873047,8.3520508,20,11.5,20c3.9487305,0,6.5-1.9624023,6.5-5C18,11.7172852,15.7363281,10,13.5,10z" fill="#303C42"/><path d="M11.5,19c-2.253418,0-3.8833008-0.5688477-4.5-0.8237305v-2.0336914   C8.171875,16.4331055,10.5732422,17,11.5,17c1.4487305,0,2.5-0.8413086,2.5-2c0-0.7470703-0.324707-2-2.5-2   C10.2485352,13,7,12.28125,7,9c0-2.5981445,2.5761719-4,5-4c2.0698242,0,3.8261719,0.5810547,4.5,0.8369141v1.9731445   C15.5332031,7.5073242,13.7275391,7,12.5,7C10.9345703,7,10,7.7475586,10,9c0,1.3271484,1.1777344,2,3.5,2   c1.7392578,0,3.5,1.3740234,3.5,4C17,17.4672852,14.8925781,19,11.5,19z" fill="#FFFFFF"/><linearGradient gradientUnits="userSpaceOnUse" id="SVGID_1_" x1="9.6649456" x2="21.5759888" y1="9.9264202" y2="21.8374634"><stop offset="0" style="stop-color:#000000;stop-opacity:0.1"/><stop offset="1" style="stop-color:#000000;stop-opacity:0"/></linearGradient><path d="M11.5,16c0.8691406,0,1.5-0.4204102,1.5-1c0-0.324707,0-1-1.5-1   c-1.114563,0-2.5684204-0.3779907-3.7028198-1.2574463l-0.0009766,0.0015869l3.0387573,3.1884766   C11.1020508,15.9714966,11.3413086,16,11.5,16z M17.4275513,5.2449951l-0.0025024,0.0003662   C17.470459,5.3214111,17.5,5.4077759,17.5,5.5v3c0,0.1621094-0.0786133,0.3139648-0.2109375,0.4077148   c-0.1318359,0.0942383-0.3012695,0.1181641-0.4541016,0.0639648C16.8071289,8.9624023,14.0410156,8,12.5,8C11,8,11,8.7524414,11,9   s0,1,2.5,1c2.2363281,0,4.5,1.7172852,4.5,5c0,3.0375977-2.5512695,5-6.5,5c-3.1479492,0-5.1459961-1.0126953-5.2294922-1.0556641   c-0.1170044-0.0605469-0.1865845-0.1697388-0.227417-0.2907104L6,18.7055054L9.2944946,22H21c0.5512695,0,1-0.4487305,1-1   V9.8174438L17.4275513,5.2449951z" fill="url(#SVGID_1_)"/><linearGradient gradientUnits="userSpaceOnUse" id="SVGID_2_" x1="-0.6523309" x2="24.6523304" y1="6.100121" y2="17.8998795"><stop offset="0" style="stop-color:#FFFFFF;stop-opacity:0.2"/><stop offset="1" style="stop-color:#FFFFFF;stop-opacity:0"/></linearGradient><path d="M21,1H3C1.8969727,1,1,1.8969727,1,3v18c0,1.1030273,0.8969727,2,2,2h18   c1.1030273,0,2-0.8969727,2-2V3C23,1.8969727,22.1030273,1,21,1z" fill="url(#SVGID_2_)"/></g><g/><g/><g/><g/><g/><g/><g/><g/><g/><g/><g/><g/><g/><g/><g/></svg>