<?xml version="1.0" ?><svg enable-background="new 0 0 24 24" id="Layer_1" version="1.1" viewBox="0 0 24 24" xml:space="preserve" xmlns="http://www.w3.org/2000/svg" xmlns:xlink="http://www.w3.org/1999/xlink"><g><path d="M21,9h-3.0467529C17.9703369,8.8594971,18,8.7217407,18,8.578125V2c0-1.1030273-0.8974609-2-2-2H8   C6.8974609,0,6,0.8969727,6,2v6.578125C6,8.7217407,6.0297241,8.8594971,6.046814,9H3c-1.1025391,0-2,0.8969727-2,2v11   c0,1.1030273,0.8974609,2,2,2h18c1.1025391,0,2-0.8969727,2-2V11C23,9.8969727,22.1025391,9,21,9z" fill="#303C42"/><path d="M7,2c0-0.5512695,0.4482422-1,1-1h8c0.5517578,0,1,0.4487305,1,1v6.578125   c0,0.7529297-0.3339844,1.4584961-0.9169922,1.9355469v-0.0004883L12,13.8540039l-4.0830078-3.340332   C7.3339844,10.0366211,7,9.3310547,7,8.578125V2z" fill="#4DD0E1"/><path d="M9,8.578125V2c0-0.5512695,0.2689209-1,0.5999756-1H8C7.4482422,1,7,1.4487305,7,2v6.578125   c0,0.7529297,0.3339844,1.4584961,0.9169922,1.9355469L12,13.8540039l-2.4498291-3.340332   C9.2003784,10.0366211,9,9.3310547,9,8.578125z" fill="#FFFFFF" opacity="0.2"/><path d="M16,1h-1.5999756C14.7310791,1,15,1.4487305,15,2v6.578125   c0,0.7529297-0.2003784,1.4584961-0.5501709,1.9355469v-0.0004883L12,13.8540039l4.0830078-3.3408203v0.0004883   C16.6660156,10.0366211,17,9.3310547,17,8.578125V2C17,1.4487305,16.5517578,1,16,1z" opacity="0.1"/><path d="M22,22c0,0.5512695-0.4482422,1-1,1H3c-0.5517578,0-1-0.4487305-1-1V11c0-0.5512695,0.4482422-1,1-1   h3.3091431c0.1738892,0.3904419,0.428772,0.7380371,0.7376099,1.0449829C6.8724365,11.1230469,6.75,11.2964478,6.75,11.5v2   c0,0.2763672,0.2236328,0.5,0.5,0.5h2c0.2763672,0,0.5-0.2236328,0.5-0.5v-0.1948853l1.9335938,1.5820923   C11.7753906,14.9624023,11.8876953,15,12,15s0.2246094-0.0375977,0.3164063-0.112793L14.25,13.3051147V13.5   c0,0.2763672,0.2236328,0.5,0.5,0.5h2c0.2763672,0,0.5-0.2236328,0.5-0.5v-2c0-0.2036743-0.1224976-0.3771362-0.296936-0.4551392   C17.2619629,10.7380371,17.5169678,10.3905029,17.6908569,10H21c0.5517578,0,1,0.4487305,1,1V22z" fill="#808080"/><path d="M6,17.5v-2C6,15.2236328,5.7763672,15,5.5,15h-2C3.2236328,15,3,15.2236328,3,15.5v2   C3,17.7763672,3.2236328,18,3.5,18h2C5.7763672,18,6,17.7763672,6,17.5z" fill="#303C42"/><path d="M7.25,18h2c0.2763672,0,0.5-0.2236328,0.5-0.5v-2c0-0.2763672-0.2236328-0.5-0.5-0.5h-2   c-0.2763672,0-0.5,0.2236328-0.5,0.5v2C6.75,17.7763672,6.9736328,18,7.25,18z" fill="#303C42"/><linearGradient gradientUnits="userSpaceOnUse" id="SVGID_1_" x1="15.6034088" x2="24.3102264" y1="11.3965912" y2="20.1034088"><stop offset="0" style="stop-color:#000000;stop-opacity:0.1"/><stop offset="1" style="stop-color:#000000;stop-opacity:0"/></linearGradient><path d="M21,23c0.5517578,0,1-0.4487305,1-1V11c0-0.5512695-0.4482422-1-1-1h-3.3091431   c-0.1738892,0.3905029-0.428894,0.7380371-0.737793,1.0448608C17.1275024,11.1228638,17.25,11.2963257,17.25,11.5v2   c0,0.2763672-0.2236328,0.5-0.5,0.5h-2c-0.2763672,0-0.5-0.2236328-0.5-0.5v-0.1948853l-1.9335938,1.5820923   C12.2246094,14.9624023,12.1123047,15,12,15l8,8H21z" fill="url(#SVGID_1_)"/><path d="M3.5,14h2C5.7763672,14,6,13.7763672,6,13.5v-2C6,11.2236328,5.7763672,11,5.5,11h-2   C3.2236328,11,3,11.2236328,3,11.5v2C3,13.7763672,3.2236328,14,3.5,14z" fill="#303C42"/><path d="M12,9c1.6542969,0,3-1.3457031,3-3c0-0.2763672-0.2236328-0.5-0.5-0.5h-2C12.2236328,5.5,12,5.7236328,12,6   s0.2236328,0.5,0.5,0.5h1.4365234C13.7138672,7.3618164,12.9306641,8,12,8c-1.1025391,0-2-0.8969727-2-2s0.8974609-2,2-2   c0.4374924,0,0.8535156,0.1386719,1.2011719,0.4003906c0.21875,0.1655273,0.5341797,0.1230469,0.7001953-0.0986328   c0.1660156-0.2207031,0.1220703-0.5341797-0.0986328-0.7001953C13.2792969,3.2080078,12.65625,3,12,3c-1.6542969,0-3,1.3457031-3,3   S10.3457031,9,12,9z" fill="#303C42"/><path d="M18,19H6c-0.2763672,0-0.5,0.2236328-0.5,0.5v2C5.5,21.7763672,5.7236328,22,6,22h12   c0.2763672,0,0.5-0.2236328,0.5-0.5v-2C18.5,19.2236328,18.2763672,19,18,19z" fill="#303C42"/><path d="M10.5,15.5v2c0,0.2763672,0.2236328,0.5,0.5,0.5h2c0.2763672,0,0.5-0.2236328,0.5-0.5v-2   c0-0.2763672-0.2236328-0.5-0.5-0.5h-1h-1C10.7236328,15,10.5,15.2236328,10.5,15.5z" fill="#303C42"/><path d="M14.75,18h2c0.2763672,0,0.5-0.2236328,0.5-0.5v-2c0-0.2763672-0.2236328-0.5-0.5-0.5h-2   c-0.2763672,0-0.5,0.2236328-0.5,0.5v2C14.25,17.7763672,14.4736328,18,14.75,18z" fill="#303C42"/><path d="M20.5,15h-2c-0.2763672,0-0.5,0.2236328-0.5,0.5v2c0,0.2763672,0.2236328,0.5,0.5,0.5h2   c0.2763672,0,0.5-0.2236328,0.5-0.5v-2C21,15.2236328,20.7763672,15,20.5,15z" fill="#303C42"/><path d="M20.5,11h-2c-0.2763672,0-0.5,0.2236328-0.5,0.5v2c0,0.2763672,0.2236328,0.5,0.5,0.5h2   c0.2763672,0,0.5-0.2236328,0.5-0.5v-2C21,11.2236328,20.7763672,11,20.5,11z" fill="#303C42"/><g><polygon fill="#F2F2F2" points="16.25,12 16.25,13 15.25,13 15.25,12.4869385 15.8451538,12   "/><polygon fill="#F2F2F2" points="7.75,12 8.1548462,12 8.75,12.4869385 8.75,13 7.75,13   "/><rect fill="#F2F2F2" height="1" width="11" x="6.5" y="20"/><rect fill="#F2F2F2" height="1" width="1" x="4" y="16"/><rect fill="#F2F2F2" height="1" width="1" x="7.75" y="16"/><rect fill="#F2F2F2" height="1" width="1" x="11.5" y="16"/><rect fill="#F2F2F2" height="1" width="1" x="15.25" y="16"/><rect fill="#F2F2F2" height="1" width="1" x="19" y="16"/><rect fill="#F2F2F2" height="1" width="1" x="4" y="12"/><rect fill="#F2F2F2" height="1" width="1" x="19" y="12"/></g><linearGradient gradientUnits="userSpaceOnUse" id="SVGID_2_" x1="1.9653965" x2="24.5887718" y1="8.486557" y2="19.0360107"><stop offset="0" style="stop-color:#FFFFFF;stop-opacity:0.2"/><stop offset="1" style="stop-color:#FFFFFF;stop-opacity:0"/></linearGradient><path d="M21,9h-3.0467529C17.9703369,8.8594971,18,8.7217407,18,8.578125V2c0-1.1030273-0.8974609-2-2-2H8   C6.8974609,0,6,0.8969727,6,2v6.578125C6,8.7217407,6.0297241,8.8594971,6.046814,9H3c-1.1025391,0-2,0.8969727-2,2v11   c0,1.1030273,0.8974609,2,2,2h18c1.1025391,0,2-0.8969727,2-2V11C23,9.8969727,22.1025391,9,21,9z" fill="url(#SVGID_2_)"/></g><g/><g/><g/><g/><g/><g/><g/><g/><g/><g/><g/><g/><g/><g/><g/></svg>