<?xml version="1.0" ?><svg enable-background="new 0 0 24 24" id="Layer_1" version="1.1" viewBox="0 0 24 24" xml:space="preserve" xmlns="http://www.w3.org/2000/svg" xmlns:xlink="http://www.w3.org/1999/xlink"><g><path d="M22.5,1h-21C1.2236328,1,1,1.2236328,1,1.5v21C1,22.7763672,1.2236328,23,1.5,23h21   c0.2763672,0,0.5-0.2236328,0.5-0.5v-21C23,1.2236328,22.7763672,1,22.5,1z" fill="#303C42"/><rect fill="#FFCA28" height="20" width="20" x="2" y="2"/><rect fill="#4E342E" height="18" width="18" x="3" y="3"/><path d="M14.5,17c0.2763672,0,0.5-0.2236328,0.5-0.5v-4.8818359l0.0527344-0.1054688   C15.5185547,10.5795898,16.4570313,10,17.5,10c0.2763672,0,0.5-0.2236328,0.5-0.5S17.7763672,9,17.5,9   c-0.947937,0-1.8269653,0.3563232-2.5,0.9660034V9.5C15,9.2236328,14.7763672,9,14.5,9S14,9.2236328,14,9.5v7   C14,16.7763672,14.2236328,17,14.5,17z" fill="#FFCA28"/><path d="M7.5,17h3c1.3789063,0,2.5-1.121582,2.5-2.5v-1c0-0.9375-0.5185547-1.7558594-1.2841797-2.1835938   C12.1982422,10.8603516,12.5,10.2148438,12.5,9.5C12.5,8.121582,11.3789063,7,10,7H7.5C7.2236328,7,7,7.2236328,7,7.5v9   C7,16.7763672,7.2236328,17,7.5,17z M8,8h2c0.8271484,0,1.5,0.6728516,1.5,1.5S10.8271484,11,10,11H8V8z M8,12h2.5   c0.8271484,0,1.5,0.6728516,1.5,1.5v1c0,0.8271484-0.6728516,1.5-1.5,1.5H8V12z" fill="#FFCA28"/><linearGradient gradientUnits="userSpaceOnUse" id="SVGID_1_" x1="-1.0996976" x2="25.0996971" y1="5.8915105" y2="18.10849"><stop offset="0" style="stop-color:#FFFFFF;stop-opacity:0.2"/><stop offset="1" style="stop-color:#FFFFFF;stop-opacity:0"/></linearGradient><path d="M22.5,1h-21C1.2236328,1,1,1.2236328,1,1.5v21C1,22.7763672,1.2236328,23,1.5,23h21   c0.2763672,0,0.5-0.2236328,0.5-0.5v-21C23,1.2236328,22.7763672,1,22.5,1z" fill="url(#SVGID_1_)"/></g><g/><g/><g/><g/><g/><g/><g/><g/><g/><g/><g/><g/><g/><g/><g/></svg>