<?xml version="1.0" ?><svg enable-background="new 0 0 24 24" id="Layer_1" version="1.1" viewBox="0 0 24 24" xml:space="preserve" xmlns="http://www.w3.org/2000/svg" xmlns:xlink="http://www.w3.org/1999/xlink"><g><path d="M23.9355469,18.7548828l-9-16C14.8476563,2.5976563,14.6806641,2.5,14.5,2.5h-1.2929688   l-0.3535156-0.3535156C12.7597656,2.0527344,12.6328125,2,12.5,2h-3C9.3193359,2,9.1523438,2.0976563,9.0644531,2.2548828   L7.2851563,5.4174805C7.2158203,5.5405273,7.2021484,5.6870117,7.2460938,5.8208008L7.4570313,6.453125L4.125,12.6420898   l-1.25,0.75C2.7998047,13.4365234,2.7382813,13.5,2.6962891,13.5756836l-2.6318359,4.6791992   c-0.0878906,0.1567383-0.0859375,0.3481445,0.0068359,0.5024414l1.5,2.5C1.6611328,21.4077148,1.8242188,21.5,2,21.5h0.5   C2.5,21.7763672,2.7236328,22,3,22h19c0.1757813,0,0.3388672-0.0922852,0.4287109-0.2426758l1.5-2.5   C24.0214844,19.1030273,24.0234375,18.9116211,23.9355469,18.7548828z M10.5,17   c-0.1728516,0-0.3339844,0.0898438-0.4257813,0.2373047c-0.0908203,0.1474609-0.0986328,0.331543-0.0214844,0.4863281   L10.1914063,18H6.3417969l5.1601563-9.4589844L16.1542969,17H10.5z" fill="#303C42"/><path d="M17.4384766,17.2592773l-5.5-10C11.8505859,7.0991211,11.6826172,7,11.5,7h-0.0009766   c-0.1826172,0.0004883-0.3505859,0.1000977-0.4375,0.2607422l-6,11c-0.0849609,0.1547852-0.0820313,0.3427734,0.0087891,0.4946289   C5.1601563,18.9067383,5.3232422,19,5.5,19H11c0.1728516,0,0.3339844-0.0898438,0.4257813-0.2373047   c0.0908203-0.1474609,0.0986328-0.331543,0.0214844-0.4863281L11.3085938,18H17   c0.1767578,0,0.3408203-0.0932617,0.4306641-0.2456055C17.5205078,17.6025391,17.5234375,17.4140625,17.4384766,17.2592773z    M10.5,17c-0.1728516,0-0.3339844,0.0898438-0.4257813,0.2373047c-0.0908203,0.1474609-0.0986328,0.331543-0.0214844,0.4863281   L10.1914063,18H6.3417969l5.1601563-9.4589844L16.1542969,17H10.5z" fill="#303C42"/><g><path d="M14.2080078,3.5H13c-0.1328125,0-0.2597656-0.0527344-0.3535156-0.1464844L12.2929688,3H9.7919922    L8.2646484,5.7148438l0.2099609,0.6269531c0.0429688,0.1308594,0.03125,0.2739258-0.0341797,0.3950195l-3.5,6.5    c-0.0429688,0.0795898-0.1064453,0.1455078-0.1835938,0.1918945l-1.2539063,0.7529297L1.078125,18.4916992L2.2832031,20.5H3    c0.2763672,0,0.5,0.2236328,0.5,0.5h18.2167969l1.2050781-2.0083008L14.2080078,3.5z M17.4306641,17.7543945    C17.3408203,17.9067383,17.1767578,18,17,18h-5.6914063l0.1386719,0.2763672    c0.0771484,0.1547852,0.0693359,0.3388672-0.0214844,0.4863281C11.3339844,18.9101563,11.1728516,19,11,19H5.5    c-0.1767578,0-0.3398438-0.0932617-0.4296875-0.2446289c-0.0908203-0.1518555-0.09375-0.3398438-0.0087891-0.4946289l6-11    C11.1484375,7.1000977,11.3164063,7.0004883,11.4990234,7H11.5c0.1826172,0,0.3505859,0.0991211,0.4384766,0.2592773l5.5,10    C17.5234375,17.4140625,17.5205078,17.6025391,17.4306641,17.7543945z" fill="#29B6F6"/></g><linearGradient gradientUnits="userSpaceOnUse" id="SVGID_1_" x1="3.9144242" x2="23.9041138" y1="9.995245" y2="19.3165913"><stop offset="0" style="stop-color:#FFFFFF;stop-opacity:0.2"/><stop offset="1" style="stop-color:#FFFFFF;stop-opacity:0"/></linearGradient><path d="M23.9355469,18.7548828l-9-16C14.8476563,2.5976563,14.6806641,2.5,14.5,2.5h-1.2929688   l-0.3535156-0.3535156C12.7597656,2.0527344,12.6328125,2,12.5,2h-3C9.3193359,2,9.1523438,2.0976563,9.0644531,2.2548828   L7.2851563,5.4174805C7.2158203,5.5405273,7.2021484,5.6870117,7.2460938,5.8208008L7.4570313,6.453125L4.125,12.6420898   l-1.25,0.75C2.7998047,13.4365234,2.7382813,13.5,2.6962891,13.5756836l-2.6318359,4.6791992   c-0.0878906,0.1567383-0.0859375,0.3481445,0.0068359,0.5024414l1.5,2.5C1.6611328,21.4077148,1.8242188,21.5,2,21.5h0.5   C2.5,21.7763672,2.7236328,22,3,22h19c0.1757813,0,0.3388672-0.0922852,0.4287109-0.2426758l1.5-2.5   C24.0214844,19.1030273,24.0234375,18.9116211,23.9355469,18.7548828z M10.5,17   c-0.1728516,0-0.3339844,0.0898438-0.4257813,0.2373047c-0.0908203,0.1474609-0.0986328,0.331543-0.0214844,0.4863281   L10.1914063,18H6.3417969l5.1601563-9.4589844L16.1542969,17H10.5z" fill="url(#SVGID_1_)"/></g><g/><g/><g/><g/><g/><g/><g/><g/><g/><g/><g/><g/><g/><g/><g/></svg>