<?xml version="1.0" ?><svg enable-background="new 0 0 24 24" id="Layer_1" version="1.1" viewBox="0 0 24 24" xml:space="preserve" xmlns="http://www.w3.org/2000/svg" xmlns:xlink="http://www.w3.org/1999/xlink"><path d="M11.3535156,11.6464844v-0.7929688l-0.5,0.5v0.7929688c0,0.5512695,0.4487305,1,1,1h0.7929688  l0.5-0.5h-0.7929688C11.8022461,12.6464844,11.3535156,12.1977539,11.3535156,11.6464844z" fill="#FFFFFF" opacity="0.2"/><g><path d="M24,5.5C24,2.4672852,21.5327148,0,18.5,0c-1.7042236,0-3.2296753,0.7792358-4.2393188,2H2   C0.8969727,2,0,2.8969727,0,4v18c0,1.1030273,0.8969727,2,2,2h18c1.1030273,0,2-0.8969727,2-2v-4.2143555v-4.3686523V9.7393188   C23.2207642,8.7296753,24,7.2042236,24,5.5z" fill="#303C42"/><circle cx="18.5" cy="5.5" fill="#FFCA28" r="4.5"/><path d="M2,3h11.6071777C13.2218628,3.7510986,13,4.5994263,13,5.5   c0,0.6816406,0.1303711,1.3319702,0.3580933,1.9348755L1,19.7929688V4C1,3.4487305,1.4487305,3,2,3z" fill="#66BB6A"/><path d="M1,22v-0.7929688l12.824646-12.824646c0.4506226,0.7282104,1.0647583,1.3423462,1.7929688,1.7929688   L2.7929688,23H2C1.4487305,23,1,22.5512695,1,22z" fill="#F2F2F2"/><polygon fill="#CCCCCC" points="11,16.2070313 11,23 4.2070313,23  "/><path d="M21,22c0,0.5512695-0.4487305,1-1,1h-8v-7.269043   c0.343689-0.2789917,1.2468262-0.9299927,2.5651245-1.4588013l3.5813599,3.5813599C18.2441406,17.9511719,18.3720703,18,18.5,18   s0.2558594-0.0488281,0.3535156-0.1464844L21,15.7070313v2.0786133V22z" fill="#FFCA28"/><path d="M21,14.2929688l-2.5,2.5l-2.8782959-2.8782959C16.4682617,13.6732178,17.4238892,13.5,18.5,13.5   c0.8388672,0,1.6782227,0.1015625,2.5,0.3022461V14.2929688z" fill="#FFB300"/><path d="M21,12.8023682C20.1751709,12.6188354,19.3397217,12.5,18.5,12.5   c-1.9824829,0-3.6279907,0.4998779-4.8571777,1.064209l2.9223022-2.9223022C17.1680298,10.8696289,17.8183594,11,18.5,11   c0.9005737,0,1.7489014-0.2218628,2.5-0.6071777V12.8023682z" fill="#CCCCCC"/><path d="M5.5,10.5c1.6542969,0,3-1.3457031,3-3C8.5,7.2236328,8.2763672,7,8,7H6C5.7236328,7,5.5,7.2236328,5.5,7.5   S5.7236328,8,6,8h1.4365234C7.2143555,8.8618164,6.4301758,9.5,5.5,9.5c-1.1030273,0-2-0.8969727-2-2s0.8969727-2,2-2   c0.4370117,0,0.8525391,0.1386719,1.2016602,0.4008789C6.921875,6.065918,7.2353516,6.0224609,7.4018555,5.8012695   c0.1655273-0.2207031,0.1210938-0.5341797-0.0996094-0.7001953C6.7788086,4.7080078,6.1557617,4.5,5.5,4.5   c-1.6542969,0-3,1.3457031-3,3S3.8457031,10.5,5.5,10.5z" fill="#FFFFFF"/><linearGradient gradientUnits="userSpaceOnUse" id="SVGID_1_" x1="17.5641327" x2="20.8618011" y1="9.6428986" y2="12.940567"><stop offset="0" style="stop-color:#000000;stop-opacity:0.1"/><stop offset="1" style="stop-color:#000000;stop-opacity:0"/></linearGradient><path d="M17.7792969,12.5440063C18.0194092,12.5288696,18.2489014,12.5,18.5,12.5   c0.8397217,0,1.6751709,0.1188354,2.5,0.3023682v-2.4095459C20.2489014,10.7781372,19.4005737,11,18.5,11   c-0.6816406,0-1.3319702-0.1303711-1.9348755-0.3580933l-0.3439331,0.3439331L17.7792969,12.5440063z" fill="url(#SVGID_1_)"/><linearGradient gradientUnits="userSpaceOnUse" id="SVGID_2_" x1="19.5470886" x2="22.2362366" y1="16.726593" y2="19.415741"><stop offset="0" style="stop-color:#000000;stop-opacity:0.1"/><stop offset="1" style="stop-color:#000000;stop-opacity:0"/></linearGradient><path d="M21,20.6519775v-2.866333v-2.0786133l-2.1464844,2.1464844   C18.7558594,17.9511719,18.6279297,18,18.5,18c-0.0643311,0-0.1286011-0.0125122-0.1890869-0.0372314l-0.000061,0.000061   L21,20.6519775z" fill="url(#SVGID_2_)"/><linearGradient gradientUnits="userSpaceOnUse" id="SVGID_3_" x1="-1.3340245" x2="23.9706364" y1="6.4175115" y2="18.217268"><stop offset="0" style="stop-color:#FFFFFF;stop-opacity:0.2"/><stop offset="1" style="stop-color:#FFFFFF;stop-opacity:0"/></linearGradient><path d="M24,5.5C24,2.4672852,21.5327148,0,18.5,0c-1.7042236,0-3.2296753,0.7792358-4.2393188,2H2   C0.8969727,2,0,2.8969727,0,4v18c0,1.1030273,0.8969727,2,2,2h18c1.1030273,0,2-0.8969727,2-2v-4.2143555v-4.3686523V9.7393188   C23.2207642,8.7296753,24,7.2042236,24,5.5z" fill="url(#SVGID_3_)"/></g><g/><g/><g/><g/><g/><g/><g/><g/><g/><g/><g/><g/><g/><g/><g/></svg>