<?xml version="1.0" ?><svg enable-background="new 0 0 24 24" id="Layer_1" version="1.1" viewBox="0 0 24 24" xml:space="preserve" xmlns="http://www.w3.org/2000/svg" xmlns:xlink="http://www.w3.org/1999/xlink"><g><path d="M20.4970703,10.6772461C20.4990234,10.6186523,20.5,10.5595703,20.5,10.5C20.5,6.9160156,17.5839844,4,14,4   c-2.3662109,0-4.5400391,1.2973633-5.6796875,3.347168C7.8291016,7.1191406,7.2949219,7,6.75,7   c-1.9355469,0-3.5341797,1.4746094-3.7246094,3.4257813C1.203125,11.2114258,0,13.0097656,0,15c0,2.7568359,2.2431641,5,5,5h14.25   c2.6191406,0,4.75-2.1308594,4.75-4.75C24,13.0883789,22.5517578,11.2319336,20.4970703,10.6772461z" fill="#303C42"/><path d="M19.25,19H5c-2.2060547,0-4-1.7944336-4-4c0-1.6787109,1.0732422-3.1875,2.6699219-3.7539063   C3.8886719,11.168457,4.0253906,10.980957,4,10.75C4,9.2333984,5.2333984,8,6.75,8   c0.5351563,0,1.0566406,0.1572266,1.5087891,0.4541016c0.1220703,0.0820313,0.2744141,0.1054688,0.4140625,0.0625   c0.140625-0.0405273,0.2558594-0.1411133,0.3164063-0.2744141C9.8779297,6.2724609,11.8447266,5,14,5   c3.0322266,0,5.5,2.4672852,5.5,5.5c0,0.1767578-0.0097656,0.3510742-0.0273438,0.5239258   c-0.0253906,0.2607422,0.1552734,0.4970703,0.4130859,0.5415039C21.6904297,11.8754883,23,13.4248047,23,15.25   C23,17.3178711,21.3173828,19,19.25,19z" fill="#81D4FA"/><linearGradient gradientUnits="userSpaceOnUse" id="SVGID_1_" x1="13.9689264" x2="14.0314264" y1="4.9689245" y2="16.0939255"><stop offset="0" style="stop-color:#26C6DA;stop-opacity:0.47"/><stop offset="0.1090711" style="stop-color:#2BC7DB;stop-opacity:0.4187366"/><stop offset="0.2454281" style="stop-color:#3BCBDE;stop-opacity:0.3546488"/><stop offset="0.396334" style="stop-color:#54D2E2;stop-opacity:0.283723"/><stop offset="0.5578345" style="stop-color:#78DCE8;stop-opacity:0.2078178"/><stop offset="0.7277147" style="stop-color:#A6E8F0;stop-opacity:0.1279741"/><stop offset="0.9019194" style="stop-color:#DDF6F9;stop-opacity:0.0460979"/><stop offset="1" style="stop-color:#FFFFFF;stop-opacity:0"/></linearGradient><circle cx="14" cy="10.5" fill="url(#SVGID_1_)" r="5.5"/><linearGradient gradientUnits="userSpaceOnUse" id="SVGID_2_" x1="5.0337963" x2="10.1796303" y1="12.0562601" y2="8.1395931"><stop offset="0" style="stop-color:#4FC3F7;stop-opacity:0.39"/><stop offset="1" style="stop-color:#FFFFFF;stop-opacity:0.1"/></linearGradient><circle cx="6.75" cy="10.75" fill="url(#SVGID_2_)" r="2.75"/><linearGradient gradientUnits="userSpaceOnUse" id="SVGID_3_" x1="1.7213143" x2="8.1047897" y1="13.5150881" y2="16.4061546"><stop offset="0" style="stop-color:#4FC3F7;stop-opacity:0.39"/><stop offset="1" style="stop-color:#FFFFFF;stop-opacity:0"/></linearGradient><circle cx="5" cy="15" fill="url(#SVGID_3_)" r="4"/><linearGradient gradientUnits="userSpaceOnUse" id="SVGID_4_" x1="21.5018806" x2="17.0956306" y1="18.5240116" y2="12.1177616"><stop offset="0" style="stop-color:#4FC3F7;stop-opacity:0.39"/><stop offset="1" style="stop-color:#FFFFFF;stop-opacity:0.1"/></linearGradient><circle cx="19.25" cy="15.25" fill="url(#SVGID_4_)" r="3.75"/><linearGradient gradientUnits="userSpaceOnUse" id="SVGID_5_" x1="5.5261383" x2="18.9904938" y1="21.1804962" y2="7.7161407"><stop offset="0" style="stop-color:#FFFFFF;stop-opacity:0.1"/><stop offset="1" style="stop-color:#1976D2;stop-opacity:0.22"/></linearGradient><path d="M19.25,19H5c-2.2060547,0-4-1.7944336-4-4c0-1.6787109,1.0732422-3.1875,2.6699219-3.7539063   C3.8886719,11.168457,4.0253906,10.980957,4,10.75C4,9.2333984,5.2333984,8,6.75,8   c0.5351563,0,1.0566406,0.1572266,1.5087891,0.4541016c0.1220703,0.0820313,0.2744141,0.1054688,0.4140625,0.0625   c0.140625-0.0405273,0.2558594-0.1411133,0.3164063-0.2744141C9.8779297,6.2724609,11.8447266,5,14,5   c3.0322266,0,5.5,2.4672852,5.5,5.5c0,0.1767578-0.0097656,0.3510742-0.0273438,0.5239258   c-0.0253906,0.2607422,0.1552734,0.4970703,0.4130859,0.5415039C21.6904297,11.8754883,23,13.4248047,23,15.25   C23,17.3178711,21.3173828,19,19.25,19z" fill="url(#SVGID_5_)"/><linearGradient gradientUnits="userSpaceOnUse" id="SVGID_6_" x1="2.4570346" x2="23.0878239" y1="8.6383133" y2="18.2586079"><stop offset="0" style="stop-color:#FFFFFF;stop-opacity:0.2"/><stop offset="1" style="stop-color:#FFFFFF;stop-opacity:0"/></linearGradient><path d="M20.4970703,10.6772461C20.4990234,10.6186523,20.5,10.5595703,20.5,10.5   C20.5,6.9160156,17.5839844,4,14,4c-2.3662109,0-4.5400391,1.2973633-5.6796875,3.347168C7.8291016,7.1191406,7.2949219,7,6.75,7   c-1.9355469,0-3.5341797,1.4746094-3.7246094,3.4257813C1.203125,11.2114258,0,13.0097656,0,15c0,2.7568359,2.2431641,5,5,5h14.25   c2.6191406,0,4.75-2.1308594,4.75-4.75C24,13.0883789,22.5517578,11.2319336,20.4970703,10.6772461z" fill="url(#SVGID_6_)"/></g><g/><g/><g/><g/><g/><g/><g/><g/><g/><g/><g/><g/><g/><g/><g/></svg>