<?xml version="1.0" ?><svg enable-background="new 0 0 24 24" id="Layer_1" version="1.1" viewBox="0 0 24 24" xml:space="preserve" xmlns="http://www.w3.org/2000/svg" xmlns:xlink="http://www.w3.org/1999/xlink"><g><path d="M21.8691406,14.1401367C21.9560547,13.8486328,22,13.5507813,22,13.25   c0-1.7310791-1.3641968-3.1375122-3.0720825-3.2319946C18.9729004,9.7536011,19,9.4989014,19,9.25   C19,6.3549805,16.6450195,4,13.75,4c-1.8261719,0-3.5253906,0.9750977-4.4711914,2.5253906C8.6538086,6.1801758,7.9624023,6,7.25,6   C4.9067383,6,3,7.9067383,3,10.25c0,0.4365234,0.0708008,0.8676758,0.2109375,1.2885742C1.3974609,11.8007813,0,13.3652344,0,15.25   C0,17.3178711,1.6821289,19,3.75,19h2.3082886C6.6895752,19.6166382,7.5500488,20,8.5,20H21c1.6542969,0,3-1.3457031,3-3   C24,15.6665039,23.1054688,14.5161133,21.8691406,14.1401367z" fill="#303C42"/><path d="M1,15.25c0-1.512207,1.2270508-2.7431641,2.7949219-2.7431641c0.0039063,0,0.0083008,0,0.0126953,0   c0.0112305,0.0014648,0.1108398,0.0126953,0.1220703,0.0136719c0.1889648,0.0078125,0.355957-0.0756836,0.4545898-0.2285156   c0.0986328-0.1533203,0.105957-0.3476563,0.0195313-0.5083008C4.1357422,11.2875977,4,10.7714844,4,10.25   C4,8.4580078,5.4580078,7,7.25,7c0.6860352,0,1.3486328,0.2211914,1.9165039,0.6391602   c0.1210938,0.0883789,0.2753906,0.1191406,0.4189453,0.0820313C9.7304688,7.684082,9.8515625,7.5844727,9.9150391,7.4492188   C10.6157227,5.9614258,12.1210938,5,13.75,5C16.0932617,5,18,6.9067383,18,9.25   c0,0.2741699-0.0471802,0.5678101-0.1208496,0.8849487c-0.4712524,0.1338501-0.9130859,0.3612671-1.2819824,0.68927   C15.7553711,9.6845703,14.4301758,9,13,9c-2.2983398,0-4.2001953,1.7324219-4.4638672,4.0004883C8.5239258,13,8.512207,13,8.5,13   C6.5703125,13,5,14.5703125,5,16.5c0,0.5388184,0.1325684,1.0435791,0.3510742,1.5H3.75C2.2333984,18,1,16.7666016,1,15.25z" fill="#0D47A1"/><path d="M1.5,15.75c0-1.512207,1.2270508-2.7431641,2.7949219-2.7431641   c0.0039063,0,0.0083008,0,0.0126953,0c0.0112305,0.0014648,0.1108398,0.0126953,0.1220703,0.0136719   c0.1889648,0.0078125,0.355957-0.0756836,0.4545898-0.2285156c0.0986328-0.1533203,0.105957-0.3476563,0.0195313-0.5083008   C4.6357422,11.7875977,4.5,11.2714844,4.5,10.75c0-1.7919922,1.4580078-3.25,3.25-3.25   c0.6860352,0,1.3486328,0.2211914,1.9165039,0.6391602c0.1210938,0.0883789,0.2753906,0.1191406,0.4189453,0.0820313   c0.1450195-0.0371094,0.2661133-0.1367188,0.3295898-0.2719727C11.1157227,6.4614258,12.6210938,5.5,14.25,5.5   c1.0441284,0,1.9890747,0.3931274,2.7297974,1.0202026C16.199585,5.5985718,15.0491333,5,13.75,5   c-1.6289063,0-3.1342773,0.9614258-3.8349609,2.4492188C9.8515625,7.5844727,9.7304688,7.684082,9.5854492,7.7211914   C9.4418945,7.7583008,9.2875977,7.7275391,9.1665039,7.6391602C8.5986328,7.2211914,7.9360352,7,7.25,7   C5.4580078,7,4,8.4580078,4,10.25c0,0.5214844,0.1357422,1.0375977,0.4038086,1.5336914   c0.0864258,0.1606445,0.0791016,0.3549805-0.0195313,0.5083008c-0.0986328,0.152832-0.265625,0.2363281-0.4545898,0.2285156   c-0.0112305-0.0009766-0.1108398-0.012207-0.1220703-0.0136719c-0.0043945,0-0.0087891,0-0.0126953,0   C2.2270508,12.5068359,1,13.737793,1,15.25c0,0.8858643,0.4279175,1.6665649,1.0802002,2.1697998   C1.7218628,16.9553833,1.5,16.3807373,1.5,15.75z" fill="#FFFFFF" opacity="0.2"/><path d="M21,19H8.5C7.121582,19,6,17.878418,6,16.5S7.121582,14,8.5,14   c0.1445313,0,0.2836914,0.0205078,0.421875,0.0439453c0.1430664,0.0253906,0.2910156-0.0419922,0.4033203-0.1367188   C9.4375,13.8120117,9.5,13.6469727,9.5,13.5c0-1.9296875,1.5703125-3.5,3.5-3.5   c1.2900391,0,2.4707031,0.7202148,3.0820313,1.8793945c0.0805664,0.152832,0.2348633,0.253418,0.4072266,0.2651367   c0.1689453,0.0151367,0.3393555-0.0654297,0.4404297-0.2055664C17.3608398,11.3422852,18.0244141,11,18.75,11   c1.2407227,0,2.25,1.0092773,2.25,2.25c0,0.3505859-0.0893555,0.6987305-0.2661133,1.0351563   c-0.078125,0.1494141-0.0761719,0.3286133,0.0058594,0.4755859c0.0825195,0.1474609,0.2329102,0.2436523,0.4013672,0.2553711   C22.1835938,15.0908203,23,15.9624023,23,17C23,18.1030273,22.1030273,19,21,19z" fill="#0D47A1"/><path d="M6.5,17c0-1.378418,1.121582-2.5,2.5-2.5   c0.1445313,0,0.2836914,0.0205078,0.421875,0.0439453c0.1430664,0.0253906,0.2910156-0.0419922,0.4033203-0.1367188   C9.9375,14.3120117,10,14.1469727,10,14c0-1.9296875,1.5703125-3.5,3.5-3.5c0.7985229,0,1.5543213,0.2770996,2.1599731,0.7623291   C15.0031738,10.4736938,14.039917,10,13,10c-1.9296875,0-3.5,1.5703125-3.5,3.5c0,0.1469727-0.0625,0.3120117-0.1748047,0.4072266   c-0.1123047,0.0947266-0.2602539,0.1621094-0.4033203,0.1367188C8.7836914,14.0205078,8.6445313,14,8.5,14   C7.121582,14,6,15.121582,6,16.5c0,0.8167114,0.399353,1.536499,1.006958,1.993042C6.6929932,18.0751343,6.5,17.5617065,6.5,17z" fill="#FFFFFF" opacity="0.2"/><linearGradient gradientUnits="userSpaceOnUse" id="SVGID_1_" x1="2.7105405" x2="23.6671867" y1="8.6062555" y2="18.3785"><stop offset="0" style="stop-color:#FFFFFF;stop-opacity:0.2"/><stop offset="1" style="stop-color:#FFFFFF;stop-opacity:0"/></linearGradient><path d="M21.8691406,14.1401367C21.9560547,13.8486328,22,13.5507813,22,13.25   c0-1.7310791-1.3641968-3.1375122-3.0720825-3.2319946C18.9729004,9.7536011,19,9.4989014,19,9.25   C19,6.3549805,16.6450195,4,13.75,4c-1.8261719,0-3.5253906,0.9750977-4.4711914,2.5253906C8.6538086,6.1801758,7.9624023,6,7.25,6   C4.9067383,6,3,7.9067383,3,10.25c0,0.4365234,0.0708008,0.8676758,0.2109375,1.2885742C1.3974609,11.8007813,0,13.3652344,0,15.25   C0,17.3178711,1.6821289,19,3.75,19h2.3082886C6.6895752,19.6166382,7.5500488,20,8.5,20H21c1.6542969,0,3-1.3457031,3-3   C24,15.6665039,23.1054688,14.5161133,21.8691406,14.1401367z" fill="url(#SVGID_1_)"/></g><g/><g/><g/><g/><g/><g/><g/><g/><g/><g/><g/><g/><g/><g/><g/></svg>