<?xml version="1.0" ?><svg enable-background="new 0 0 24 24" id="Layer_1" version="1.1" viewBox="0 0 24 24" xml:space="preserve" xmlns="http://www.w3.org/2000/svg" xmlns:xlink="http://www.w3.org/1999/xlink"><g><path d="M22.8046875,1.1034865c-0.1240234-0.0952148-0.2841797-0.1264649-0.4345703-0.0864258   C22.3339844,1.0268264,18.6220703,1.9999709,12,1.9999709S1.6660156,1.0268264,1.6298828,1.0170608   C1.4785156,0.9770216,1.3183594,1.0082717,1.1953125,1.1034865C1.0722656,1.1982131,1,1.3446975,1,1.4999709v21   c0,0.1552734,0.0722656,0.3017578,0.1953125,0.3964844s0.2832031,0.125,0.4345703,0.0864258   C1.6660156,22.9731159,5.3779297,21.9999714,12,21.9999714s10.3339844,0.9731445,10.3701172,0.9829102   C22.4130859,22.994112,22.4570313,22.9999714,22.5,22.9999714c0.1083984,0,0.2158203-0.0356445,0.3046875-0.1035156   C22.9277344,22.8017292,23,22.6552448,23,22.4999714v-21C23,1.3446975,22.9277344,1.1982131,22.8046875,1.1034865z" fill="#303C42"/><path d="M22,21.8705769c-1.3330078-0.2822266-4.7431641-0.8706055-10-0.8706055s-8.6669922,0.5883789-10,0.8706055   V2.1293654C3.3330078,2.411592,6.7431641,2.9999709,12,2.9999709s8.6669922-0.5883789,10-0.8706055V21.8705769z" fill="#AB47BC"/><path d="M2.833313,2.2887282C2.5080566,2.2305617,2.2166138,2.1752028,2,2.1293654v19.7412109   c0.2166138-0.0458374,0.5080566-0.1012573,0.833313-0.1594238V2.2887282z" fill="#FFFFFF" opacity="0.2"/><path d="M21.166687,2.2887282V21.711153C21.4919434,21.7693195,21.7833862,21.8247395,22,21.8705769V2.1293654   C21.7833862,2.1752028,21.4919434,2.2305617,21.166687,2.2887282z" opacity="0.1"/><path d="M8.4257813,4.2377639c-0.1171875-0.1899414-0.3457031-0.28125-0.5615234-0.21875   C7.7617188,4.0478225,7.6748047,4.1073928,7.6113281,4.1855178c-0.2070313,0.0576172-1.015625,0.0576172-1.2226563,0   C6.2646484,4.0326858,6.062489,3.9672561,5.8681641,4.017549C5.6513672,4.0766311,5.5,4.274385,5.5,4.4999709   c0,0.1533203,0.0507813,0.2836914,0.1494141,0.3911133L10.5,13.1362009v6.3637705c0,0.2763672,0.2236328,0.5,0.5,0.5   c0.1572266,0,0.296875-0.0722656,0.3886719-0.1855469c0.2070313-0.0576172,1.015625-0.0576172,1.2226563,0   C12.703125,19.9277058,12.8427734,19.9999714,13,19.9999714c0.2763672,0,0.5-0.2236328,0.5-0.5v-6.3637705l4.8505859-8.2451172   C18.4492188,4.7836623,18.5,4.6532912,18.5,4.4999709c0-0.2255859-0.1513672-0.4233398-0.3681641-0.4824219   c-0.1933594-0.0507813-0.3964844,0.0151367-0.5205078,0.1679688c-0.2070313,0.0576172-1.015625,0.0576172-1.2226563,0   c-0.0634766-0.078125-0.1503906-0.1376953-0.2529297-0.1665039c-0.2158203-0.0625-0.4443359,0.0288086-0.5615234,0.21875   L12,10.0458689L8.4257813,4.2377639z" fill="#303C42"/><path d="M16.1777344,5.16501c0.2167969,0.0551758,0.484375,0.0834961,0.8007813,0.0849609l-4.4091797,7.4965816   C12.5234375,12.8232126,12.5,12.910615,12.5,12.9999704v5.7768564c-0.1503906-0.0180664-0.3173828-0.0268555-0.5-0.0268555   s-0.3496094,0.0087891-0.5,0.0268555v-5.7768564c0-0.0893555-0.0234375-0.1767578-0.0693359-0.253418L7.0214844,5.2499709   C7.3378906,5.2485061,7.6054688,5.2201858,7.8222656,5.16501l3.7519531,6.0971675   c0.1816406,0.2958984,0.6699219,0.2958984,0.8515625,0L16.1777344,5.16501z" fill="#FFFFFF"/><linearGradient gradientUnits="userSpaceOnUse" id="SVGID_1_" x1="7.5584707" x2="23.1619854" y1="5.1050744" y2="20.7085896"><stop offset="0" style="stop-color:#000000;stop-opacity:0.1"/><stop offset="1" style="stop-color:#000000;stop-opacity:0"/></linearGradient><path d="M18.3412476,4.1432204l-0.0093994,0.0090332   c0.0165405,0.0157471,0.0423584,0.0202637,0.0565796,0.038147L18.3412476,4.1432204z M18.3986816,4.2006545   C18.4619141,4.2850051,18.5,4.3887649,18.5,4.4999709c0,0.1533203-0.0507813,0.2836914-0.1494141,0.3911133L13.5,13.1362009   v6.3637705c0,0.2763672-0.2236328,0.5-0.5,0.5c-0.1572266,0-0.296875-0.0722656-0.3886719-0.1855469   c-0.2070313-0.0576172-1.015625-0.0576172-1.2226563,0C11.296875,19.9277058,11.1572266,19.9999714,11,19.9999714   c-0.1054688,0-0.1977539-0.0400391-0.2783813-0.0956421l-0.0133057,0.0956421l1.0039673,1.0039673   C11.8112793,21.0035114,11.8996582,20.9999714,12,20.9999714c5.2568359,0,8.6669922,0.5883789,10,0.8706055V7.8019729   L18.3986816,4.2006545z M12.8510132,8.6629953L8.4257813,4.2377639L12,10.0458689L12.8510132,8.6629953z" fill="url(#SVGID_1_)"/><linearGradient gradientUnits="userSpaceOnUse" id="SVGID_2_" x1="-1.0994581" x2="25.0995121" y1="5.8915224" y2="18.1083031"><stop offset="0" style="stop-color:#FFFFFF;stop-opacity:0.2"/><stop offset="1" style="stop-color:#FFFFFF;stop-opacity:0"/></linearGradient><path d="M22.8046875,1.1034865c-0.1240234-0.0952148-0.2841797-0.1264649-0.4345703-0.0864258   C22.3339844,1.0268264,18.6220703,1.9999709,12,1.9999709S1.6660156,1.0268264,1.6298828,1.0170608   C1.4785156,0.9770216,1.3183594,1.0082717,1.1953125,1.1034865C1.0722656,1.1982131,1,1.3446975,1,1.4999709v21   c0,0.1552734,0.0722656,0.3017578,0.1953125,0.3964844s0.2832031,0.125,0.4345703,0.0864258   C1.6660156,22.9731159,5.3779297,21.9999714,12,21.9999714s10.3339844,0.9731445,10.3701172,0.9829102   C22.4130859,22.994112,22.4570313,22.9999714,22.5,22.9999714c0.1083984,0,0.2158203-0.0356445,0.3046875-0.1035156   C22.9277344,22.8017292,23,22.6552448,23,22.4999714v-21C23,1.3446975,22.9277344,1.1982131,22.8046875,1.1034865z" fill="url(#SVGID_2_)"/></g><g/><g/><g/><g/><g/><g/><g/><g/><g/><g/><g/><g/><g/><g/><g/></svg>