<?xml version="1.0" ?><svg enable-background="new 0 0 24 24" id="Layer_1" version="1.1" viewBox="0 0 24 24" xml:space="preserve" xmlns="http://www.w3.org/2000/svg" xmlns:xlink="http://www.w3.org/1999/xlink"><g><path d="M23.9326057,14.2490234c-0.0029907-0.005127-0.0090332-0.0071411-0.012146-0.012085l0.0033569-0.0020752   l-7.5003052-12C16.3322029,2.0888672,16.1720467,2,15.9996824,2H7.9993162C7.8266478,2,7.6709471,2.0927124,7.5799437,2.237854   L7.5759153,2.2353516L7.5645628,2.25354C7.5643797,2.2539063,7.5638914,2.2540283,7.5638914,2.2540283   C7.5635862,2.2546387,7.5636473,2.2549438,7.5636473,2.2549438L0.0760985,14.2348633   c-0.0976563,0.15625-0.1015625,0.3535156-0.0102539,0.5131836l4.0001831,7C4.1539183,21.9018555,4.3165159,21.9975586,4.493762,22   c0.0019531,0,0.0043945,0,0.0063477,0h14.9996958c0.1791992,0,0.3452148-0.0961914,0.434082-0.2519531l4.0001831-7   C24.0224495,14.5932617,24.0219612,14.4033203,23.9326057,14.2490234z M9.6237059,14l2.3757324-3.9251099L14.3751097,14H9.6237059z   " fill="#303C42"/><polygon fill="#FFEE58" points="15.7216063,3 22.5969124,14 15.5438719,14 8.886157,3  "/><polygon fill="#66BB6A" points="1.0824462,14.5117188 7.9925413,3.454834 11.4150267,9.109436 4.5121336,20.5136719  "/><polygon fill="#26C6DA" points="19.2089119,21 5.3869505,21 9.0184813,15 22.6371346,15  "/><linearGradient gradientUnits="userSpaceOnUse" id="SVGID_1_" x1="6.6839628" x2="11.5915861" y1="4.7634125" y2="9.6710358"><stop offset="0" style="stop-color:#000000;stop-opacity:0.1"/><stop offset="1" style="stop-color:#000000;stop-opacity:0"/></linearGradient><polygon fill="url(#SVGID_1_)" points="11.4150267,9.109436 7.9925413,3.454834 10.2830076,10.9796143  "/><linearGradient gradientUnits="userSpaceOnUse" id="SVGID_2_" x1="16.100956" x2="20.8336525" y1="11.0305634" y2="15.7632599"><stop offset="0" style="stop-color:#000000;stop-opacity:0.1"/><stop offset="1" style="stop-color:#000000;stop-opacity:0"/></linearGradient><polygon fill="url(#SVGID_2_)" points="14.634326,12.4971924 15.5438719,14 22.5969124,14  "/><linearGradient gradientUnits="userSpaceOnUse" id="SVGID_3_" x1="5.4789882" x2="9.8852377" y1="20.3602581" y2="15.3602591"><stop offset="0" style="stop-color:#000000;stop-opacity:0.1"/><stop offset="1" style="stop-color:#000000;stop-opacity:0"/></linearGradient><polygon fill="url(#SVGID_3_)" points="9.0184813,15 5.3869505,21 11.3869505,15  "/><linearGradient gradientUnits="userSpaceOnUse" id="SVGID_4_" x1="2.7458124" x2="22.5441074" y1="8.5007801" y2="17.7328758"><stop offset="0" style="stop-color:#FFFFFF;stop-opacity:0.2"/><stop offset="1" style="stop-color:#FFFFFF;stop-opacity:0"/></linearGradient><path d="M23.9326057,14.2490234c-0.0029907-0.005127-0.0090332-0.0071411-0.012146-0.012085   l0.0033569-0.0020752l-7.5003052-12C16.3322029,2.0888672,16.1720467,2,15.9996824,2H7.9993162   C7.8266478,2,7.6709471,2.0927124,7.5799437,2.237854L7.5759153,2.2353516L7.5645628,2.25354   C7.5643797,2.2539063,7.5638914,2.2540283,7.5638914,2.2540283C7.5635862,2.2546387,7.5636473,2.2549438,7.5636473,2.2549438   L0.0760985,14.2348633c-0.0976563,0.15625-0.1015625,0.3535156-0.0102539,0.5131836l4.0001831,7   C4.1539183,21.9018555,4.3165159,21.9975586,4.493762,22c0.0019531,0,0.0043945,0,0.0063477,0h14.9996958   c0.1791992,0,0.3452148-0.0961914,0.434082-0.2519531l4.0001831-7   C24.0224495,14.5932617,24.0219612,14.4033203,23.9326057,14.2490234z M9.6237059,14l2.3757324-3.9251099L14.3751097,14H9.6237059z   " fill="url(#SVGID_4_)"/></g><g/><g/><g/><g/><g/><g/><g/><g/><g/><g/><g/><g/><g/><g/><g/></svg>