<?xml version="1.0" ?><svg enable-background="new 0 0 24 24" id="Layer_1" version="1.1" viewBox="0 0 24 24" xml:space="preserve" xmlns="http://www.w3.org/2000/svg" xmlns:xlink="http://www.w3.org/1999/xlink"><g><path d="M19.3009338,9.5000553l4.5118408-3.6093755c0.1289063-0.1035156,0.1992188-0.2641602,0.1855469-0.4296875   c-0.0126953-0.1650391-0.1064453-0.3129883-0.25-0.3950195L16.7481384,1.065973   c-0.1855469-0.1069336-0.4199219-0.0820313-0.5800781,0.0605469l-4.1680908,3.7048337L7.8319397,1.1265199   C7.6708069,0.9839418,7.4364319,0.9590394,7.2518616,1.065973L0.2516785,5.0659728   c-0.1435547,0.0820313-0.2373047,0.2299805-0.25,0.3950195c-0.0136719,0.1655273,0.0566406,0.3261719,0.1855347,0.4296875   l4.5118527,3.6093755l-4.5118527,3.609375c-0.1288941,0.1035156-0.1992066,0.2641602-0.1855347,0.4296875   c0.0126953,0.1650391,0.1064453,0.3129883,0.25,0.3950195l4.7481689,2.7131958v1.8527222   c0,0.1738281,0.0898438,0.3349609,0.2382813,0.4257813l6.5001221,4c0.0800781,0.0493164,0.1708984,0.0742188,0.2617188,0.0742188   s0.1816406-0.0249023,0.2617798-0.0742188l6.5001221-4c0.1484375-0.0908203,0.2382813-0.2519531,0.2382813-0.4257813v-1.8527222   l4.7481689-2.7131958c0.1435547-0.0820313,0.2373047-0.2299805,0.25-0.3950195   c0.0136719-0.1655273-0.0566406-0.3261719-0.1855469-0.4296875L19.3009338,9.5000553z M11.9997253,12.9132023l-5.5463867-3.413147   l5.5463867-3.4131474l5.5463867,3.4131474L11.9997253,12.9132023z" fill="#303C42"/><polygon fill="#1976D2" points="16.5632019,2.1123598 22.6130066,5.5693908 18.4616394,8.8897038 12.8346863,5.4268126  "/><polygon fill="#1976D2" points="7.4362488,2.1123598 11.1647644,5.4268126 5.5378113,8.8897038 1.3864441,5.5693908  "/><polygon fill="#1976D2" points="5.5378113,10.1104069 11.1647644,13.5732975 7.4362488,16.8877506 1.3864441,13.4307194  "/><path d="M17.9997253,18.2207584l-6,3.6923828l-6-3.6923828v-1.0020142l1.2519531,0.7153931   c0.0771484,0.0444336,0.1630859,0.065918,0.2480469,0.065918c0.1191406,0,0.2382813-0.0429688,0.3320313-0.1264648   l4.1679688-3.704834l4.1679688,3.704834c0.09375,0.0834961,0.2128906,0.1264648,0.3320313,0.1264648   c0.0849609,0,0.1708984-0.0214844,0.2480469-0.065918l1.2519531-0.7153931V18.2207584z" fill="#1976D2"/><polygon fill="#1976D2" points="16.5632019,16.8877506 12.8346863,13.5732975 18.4616394,10.1104069 22.6130066,13.4307194  "/><linearGradient gradientUnits="userSpaceOnUse" id="SVGID_1_" x1="8.9997253" x2="15.5007324" y1="14.2187443" y2="20.7197514"><stop offset="0" style="stop-color:#000000;stop-opacity:0.1"/><stop offset="1" style="stop-color:#000000;stop-opacity:0"/></linearGradient><path d="M11.9997253,21.9131413l6-3.6923828v-1.0020142l-1.2519531,0.7153931   c-0.0771484,0.0444336-0.1630859,0.065918-0.2480469,0.065918c-0.1191406,0-0.2382813-0.0429688-0.3320313-0.1264648   l-4.1679688-3.704834l-4.1679688,3.704834c-0.09375,0.0834961-0.2128906,0.1264648-0.3320313,0.1264648   c-0.0849609,0-0.1708984-0.0214844-0.2480469-0.065918l-1.2519531-0.7153931l2.6054077,2.6053467L11.9997253,21.9131413z" fill="url(#SVGID_1_)"/><linearGradient gradientUnits="userSpaceOnUse" id="SVGID_2_" x1="0.0130538" x2="22.875679" y1="5.3611073" y2="16.0221233"><stop offset="0" style="stop-color:#FFFFFF;stop-opacity:0.2"/><stop offset="1" style="stop-color:#FFFFFF;stop-opacity:0"/></linearGradient><path d="M19.3009338,9.5000553l4.5118408-3.6093755   c0.1289063-0.1035156,0.1992188-0.2641602,0.1855469-0.4296875c-0.0126953-0.1650391-0.1064453-0.3129883-0.25-0.3950195   L16.7481384,1.065973c-0.1855469-0.1069336-0.4199219-0.0820313-0.5800781,0.0605469l-4.1680908,3.7048337L7.8319397,1.1265199   C7.6708069,0.9839418,7.4364319,0.9590394,7.2518616,1.065973L0.2516785,5.0659728   c-0.1435547,0.0820313-0.2373047,0.2299805-0.25,0.3950195c-0.0136719,0.1655273,0.0566406,0.3261719,0.1855347,0.4296875   l4.5118527,3.6093755l-4.5118527,3.609375c-0.1288941,0.1035156-0.1992066,0.2641602-0.1855347,0.4296875   c0.0126953,0.1650391,0.1064453,0.3129883,0.25,0.3950195l4.7481689,2.7131958v1.8527222   c0,0.1738281,0.0898438,0.3349609,0.2382813,0.4257813l6.5001221,4c0.0800781,0.0493164,0.1708984,0.0742188,0.2617188,0.0742188   s0.1816406-0.0249023,0.2617798-0.0742188l6.5001221-4c0.1484375-0.0908203,0.2382813-0.2519531,0.2382813-0.4257813v-1.8527222   l4.7481689-2.7131958c0.1435547-0.0820313,0.2373047-0.2299805,0.25-0.3950195   c0.0136719-0.1655273-0.0566406-0.3261719-0.1855469-0.4296875L19.3009338,9.5000553z M11.9997253,12.9132023l-5.5463867-3.413147   l5.5463867-3.4131474l5.5463867,3.4131474L11.9997253,12.9132023z" fill="url(#SVGID_2_)"/></g><g/><g/><g/><g/><g/><g/><g/><g/><g/><g/><g/><g/><g/><g/><g/></svg>