<?xml version="1.0" ?><!DOCTYPE svg  PUBLIC '-//W3C//DTD SVG 1.1//EN'  'http://www.w3.org/Graphics/SVG/1.1/DTD/svg11.dtd'><svg height="512px" style="enable-background:new 0 0 512 512;" version="1.1" viewBox="0 0 512 512" width="512px" xml:space="preserve" xmlns="http://www.w3.org/2000/svg" xmlns:xlink="http://www.w3.org/1999/xlink"><g id="social__x2C__media__x2C__social_media__x2C__reddit__x2C_"><g><g><g><path d="M383.99,72.082      c49.094,73.473-126.147,206.842-177.037,244.511c-53.199,39.378-112.912,59.534-166.111,7.253      c-60.841-59.793,36.064-102.539,80.439-130.622c59.97-37.98,117.221-90.882,174.37-124.82      C322.841,52.237,361.469,41.253,383.99,72.082L383.99,72.082z" style="fill-rule:evenodd;clip-rule:evenodd;fill:#E2F0FC;"/><path d="M420.004,97.419c55.455-4.353,93.057,57.876,55.609,109.742      c-19.496,27.099-110.297,120.157-136.973,142.696c-57.508,47.253-200.019,127.514-272.813,76.736      c-40.784-28.447-38.784-73.681,2.462-102.748c61.457-43.315,121.325-38.653,186.374-99.534      C298.934,182.861,358.288,105.917,420.004,97.419L420.004,97.419z" style="fill-rule:evenodd;clip-rule:evenodd;fill:#E2F0FC;"/><path d="M472.381,242.188      c34.883,69.119-131.433,166.063-179.603,193.266c-50.376,28.445-104.396,39.533-145.077-11.606      c-46.479-58.55,42.168-85.182,83.721-104.818c56.071-26.53,111.424-66.271,164.622-89.587      C421.388,218.301,456.066,212.965,472.381,242.188L472.381,242.188z" style="fill-rule:evenodd;clip-rule:evenodd;fill:#E2F0FC;"/></g></g><g><g><g><path d="M181.695,334.057l1.136,1.318l1.115,1.318l1.136,1.318l1.126,1.308l1.136,1.308l1.137,1.297       l1.125,1.276l1.147,1.286l1.125,1.297l1.094,1.223c0.9,1.007,2.54,0.761,3.141-0.461c0.321-0.676,0.214-1.501-0.3-2.069       l-1.072-1.211l-1.136-1.276l-1.125-1.286l-1.125-1.297l-1.136-1.286l-1.125-1.286l-1.136-1.308l-1.125-1.318l-1.093-1.297       l-1.136-1.319l-1.115-1.318c-0.3-0.364-0.708-0.579-1.158-0.653c0.021-0.439-0.139-0.879-0.44-1.244l-0.621-0.75l-1.126-1.318       l-1.093-1.329l-1.083-1.34l-1.093-1.318l-1.061-1.329l-1.094-1.318l-1.083-1.34l-1.061-1.318l-1.072-1.34l-1.5-1.877       c-0.611-0.782-1.736-0.942-2.573-0.354c-0.89,0.633-1.072,1.876-0.396,2.723l1.49,1.887l1.072,1.34l1.083,1.329l1.072,1.34       l1.093,1.329l1.094,1.34l1.104,1.34l1.093,1.33l1.094,1.34l1.114,1.329l0.633,0.761c0.311,0.375,0.729,0.579,1.168,0.644       c-0.011,0.429,0.118,0.879,0.429,1.254L181.695,334.057z M93.809,219.287c-1.983-2.337-2.808-5.252-2.562-8.104       c0.268-2.83,1.598-5.585,3.956-7.557c0.225-0.214,0.472-0.408,0.729-0.568l-0.333-0.719l-0.568-1.243l-0.568-1.254       l-0.558-1.233l-0.557-1.244l-0.546-1.243l-0.547-1.243l-0.536-1.233l-0.525-1.233l-0.525-1.232l-0.515-1.222l-0.503-1.211       l-0.515-1.222l-0.247-0.579c-0.579-1.468,0.761-2.969,2.315-2.551c0.558,0.161,0.986,0.557,1.211,1.093l0.236,0.568       l0.504,1.201l0.504,1.211l0.515,1.222l0.514,1.222l0.525,1.211l0.525,1.222l0.536,1.222l0.547,1.222l0.547,1.232l0.546,1.222       l0.557,1.244l0.579,1.244l0.311,0.654c1.308-0.375,2.659-0.493,3.988-0.408c2.84,0.236,5.574,1.533,7.546,3.881       c1.972,2.326,2.809,5.252,2.551,8.093c-0.246,2.83-1.586,5.595-3.955,7.589c-0.161,0.129-0.311,0.268-0.493,0.407l0.622,1.169       l0.664,1.286l0.676,1.275l0.707,1.275l0.687,1.297l0.696,1.287l0.697,1.297l0.718,1.286l0.708,1.275l0.74,1.297l0.718,1.308       l0.611,1.083c0.332,0.558,0.311,1.254,0.011,1.833c-0.75,1.297-2.583,1.329-3.323,0.054l-0.622-1.094l-0.729-1.308       l-0.718-1.297l-0.719-1.308l-0.718-1.297l-0.708-1.297l-0.708-1.297l-0.697-1.286l-0.697-1.286l-0.686-1.297l-0.675-1.275       l-0.654-1.233c-1.383,0.429-2.819,0.579-4.245,0.461C98.515,222.932,95.781,221.624,93.809,219.287L93.809,219.287z        M101.688,219.395c1.887,0.149,3.816-0.429,5.37-1.737c1.565-1.318,2.455-3.119,2.616-4.995       c0.161-1.875-0.386-3.805-1.683-5.349c-1.297-1.532-3.119-2.401-4.984-2.54c-1.875-0.161-3.805,0.407-5.37,1.726       c-1.554,1.308-2.433,3.13-2.604,4.995c-0.161,1.865,0.386,3.795,1.683,5.338C98.032,218.376,99.833,219.244,101.688,219.395       L101.688,219.395z M157.148,297.033l-0.997-1.33l-0.976-1.34l-0.975-1.329l-0.986-1.329l-0.954-1.34l-0.965-1.34l-0.965-1.318       l-0.933-1.34l-0.943-1.34l-0.965-1.351c-0.793-1.136-2.497-1.04-3.205,0.15c-0.364,0.643-0.343,1.437,0.075,2.036l0.986,1.383       l0.954,1.329l0.954,1.351l0.954,1.34l0.976,1.34l0.954,1.33l0.986,1.34l0.976,1.35l0.997,1.34l0.997,1.34l1.382,1.877       c0.869,1.146,2.626,0.942,3.237-0.354c0.311-0.632,0.236-1.372-0.171-1.929L157.148,297.033z M135.796,266.451l-0.857-1.34       l-0.868-1.308l-0.847-1.318l-0.847-1.329l-0.836-1.318l-0.836-1.318l-0.847-1.319l-0.804-1.318l-0.825-1.318l-0.804-1.308       l-0.611-0.997c-0.311-0.482-0.815-0.804-1.404-0.879c-1.565-0.182-2.669,1.544-1.854,2.884l0.622,0.997l0.815,1.329       l0.825,1.329l0.836,1.318l0.825,1.329l0.847,1.329l0.857,1.329l0.836,1.318l0.857,1.34l0.868,1.329l0.868,1.329l1.115,1.684       c0.793,1.2,2.562,1.093,3.248-0.161c0.333-0.632,0.3-1.34-0.075-1.94L135.796,266.451z M85.513,167.16l-0.396-1.168       l-0.397-1.136l-0.365-1.147l-0.386-1.136l-0.343-1.136l-0.364-1.136l-0.365-1.136l-0.343-1.125l-0.332-1.125l-0.343-1.125       l-0.333-1.115l-0.322-1.114l-0.3-1.104l-0.321-1.104l-0.365-1.33c-0.128-0.482-0.429-0.89-0.847-1.136       c-1.458-0.868-3.248,0.482-2.819,2.133l0.375,1.383l0.321,1.115l0.311,1.104l0.322,1.147l0.343,1.136l0.332,1.136l0.343,1.125       l0.365,1.158l0.354,1.147l0.354,1.136l0.386,1.168l0.375,1.158l0.375,1.157l0.396,1.169l0.386,1.146l0.268,0.782       c0.172,0.429,0.418,0.762,0.815,0.997c1.511,0.911,3.355-0.579,2.787-2.251L85.513,167.16z M76.016,131.154l-0.172-0.997       l-0.171-1.018l-0.171-1.008l-0.161-0.997l-0.139-1.008l-0.139-0.986l-0.14-0.997l-0.128-0.986l-0.107-0.976l-0.118-0.976       l-0.107-0.976l-0.096-0.964l-0.097-0.954l-0.085-0.964l-0.086-0.943l-0.075-0.943l-0.064-0.933l-0.064-0.933l-0.011-0.407       c-0.032-0.461-0.214-0.868-0.525-1.201c-1.233-1.244-3.366-0.311-3.269,1.436l0.021,0.439l0.064,0.943l0.064,0.976l0.085,0.976       l0.064,0.976l0.097,0.976l0.097,0.975l0.096,0.986l0.107,1.008l0.129,0.976l0.107,1.029l0.128,0.997l0.15,1.007l0.161,1.019       l0.139,1.019l0.161,1.018l0.15,1.04l0.182,1.04l0.171,1.029l0.118,0.579c0.085,0.536,0.396,0.986,0.857,1.286       c1.404,0.826,3.151-0.375,2.883-1.983L76.016,131.154z M74.45,93.681l0.107-0.804l0.129-0.783l0.118-0.793l0.118-0.761       l0.14-0.783l0.15-0.761l0.139-0.761l0.172-0.74l0.161-0.75l0.171-0.739l0.183-0.729l0.192-0.718l0.183-0.729l0.193-0.718       l0.214-0.696l0.214-0.697l0.225-0.696l0.236-0.676l0.225-0.696l0.247-0.665l0.247-0.664l0.246-0.676l0.258-0.643l0.118-0.225       c0.182-0.45,0.204-0.933,0.043-1.383c-0.579-1.629-2.84-1.661-3.538-0.086l-0.118,0.29l-0.29,0.696l-0.268,0.697l-0.269,0.708       l-0.257,0.718l-0.257,0.718l-0.247,0.739l-0.214,0.74l-0.247,0.75l-0.214,0.75l-0.204,0.751l-0.204,0.761l-0.193,0.761       l-0.204,0.772l-0.161,0.793l-0.193,0.782l-0.15,0.783l-0.16,0.793l-0.15,0.804l-0.15,0.814l-0.139,0.814l-0.14,0.826       l-0.118,0.815l-0.096,0.847l-0.118,0.954c-0.075,0.568,0.118,1.125,0.514,1.532c1.115,1.137,3.044,0.461,3.237-1.104       L74.45,93.681z M89.018,61.577l0.472-0.45l0.482-0.439l0.482-0.429l0.504-0.429l0.493-0.418l0.503-0.396l0.515-0.418       l0.525-0.386l0.525-0.375l0.536-0.364l0.525-0.375l0.557-0.354l0.536-0.354l0.557-0.354l0.568-0.311l0.568-0.333l0.579-0.311       l0.568-0.311l0.579-0.279l0.589-0.311l0.6-0.279l0.601-0.279l0.622-0.257l0.611-0.258l0.622-0.246l0.622-0.247l0.622-0.235       l0.333-0.118c0.46-0.15,0.825-0.45,1.061-0.879c0.825-1.522-0.611-3.259-2.262-2.69l-0.375,0.129l-0.687,0.257l-0.675,0.247       l-0.676,0.279l-0.664,0.278l-0.654,0.279l-0.664,0.321l-0.654,0.3l-0.632,0.3L96.8,51.426l-0.633,0.321l-0.632,0.343       l-0.622,0.354l-0.611,0.375l-0.611,0.364l-0.601,0.375l-0.589,0.397l-0.589,0.396l-0.59,0.397l-0.568,0.45l-0.568,0.418       l-0.568,0.439l-0.547,0.45l-0.547,0.439l-0.546,0.482L87.442,57.9l-0.514,0.472l-0.525,0.493l-0.118,0.107       c-0.3,0.29-0.504,0.665-0.547,1.083c-0.3,1.779,1.833,2.873,3.162,1.64L89.018,61.577z M123.115,49.186l0.771-0.011       l0.793,0.011l0.804,0.011l0.793,0.011l0.804,0.043l0.815,0.032l0.804,0.032l0.826,0.054l0.814,0.064l0.825,0.064l0.825,0.075       l0.836,0.086l0.847,0.086l0.836,0.107l0.847,0.096l0.868,0.107l0.868,0.118l0.857,0.139l0.857,0.139l0.879,0.14l0.879,0.15       l0.3,0.064c0.557,0.097,1.072-0.032,1.522-0.386c1.286-1.007,0.793-3.044-0.804-3.344l-0.321-0.053l-0.911-0.161l-0.9-0.15       l-0.89-0.149l-0.9-0.118l-0.89-0.129l-0.89-0.128l-0.879-0.107l-0.868-0.097l-0.879-0.097l-0.868-0.086l-0.879-0.085       l-0.847-0.064l-0.857-0.054l-0.847-0.054l-0.847-0.032l-0.847-0.054l-0.836-0.032l-0.847-0.021l-0.826-0.011l-0.814,0.011       h-0.836l-0.74,0.032c-1.382,0-2.283,1.404-1.726,2.669c0.322,0.676,0.975,1.104,1.736,1.104L123.115,49.186z M159.893,55.724       l0.986,0.333l0.954,0.332l0.976,0.321l0.975,0.343l0.965,0.343l0.997,0.375l0.965,0.354l0.997,0.375l0.986,0.386l0.997,0.386       l0.997,0.386l0.997,0.407l1.008,0.407l1.007,0.418l1.007,0.429l1.019,0.429l0.739,0.311c0.429,0.193,0.922,0.204,1.372,0.054       c1.63-0.611,1.726-2.84,0.15-3.538l-0.729-0.3l-1.04-0.45l-1.029-0.429l-1.018-0.418l-1.018-0.418l-1.029-0.418l-1.008-0.396       l-1.019-0.397l-1.007-0.386l-0.997-0.375l-1.008-0.386l-1.008-0.364l-1.007-0.354l-0.986-0.343l-0.986-0.354l-0.997-0.332       l-0.965-0.322l-0.976-0.311c-1.061-0.364-2.208,0.29-2.454,1.383c-0.204,0.965,0.311,1.908,1.243,2.219L159.893,55.724z        M194.462,70.731l1.061,0.557l1.062,0.579l1.072,0.579l1.083,0.589l1.072,0.601l1.083,0.601l1.072,0.589l1.094,0.622       l1.082,0.632l1.083,0.611l1.093,0.654l1.083,0.632l1.115,0.654l1.2,0.718c1.147,0.697,2.647,0.021,2.884-1.308       c0.118-0.771-0.215-1.521-0.879-1.929l-1.254-0.74l-1.104-0.654l-1.104-0.654l-1.093-0.643l-1.104-0.632l-1.104-0.633       l-1.093-0.621l-1.083-0.611l-1.093-0.611l-1.104-0.6l-1.083-0.601l-1.083-0.568l-1.072-0.589l-1.071-0.579l-1.126-0.579       c-1.254-0.654-2.766,0.257-2.798,1.672c0.011,0.718,0.397,1.361,1.019,1.694L194.462,70.731z M226.244,89.896l1.125,0.761       l1.126,0.761l1.136,0.782l1.126,0.772l1.125,0.772l1.137,0.804l1.136,0.804l1.115,0.804l1.136,0.804l1.147,0.826l1.136,0.825       l1.147,0.836l1.114,0.814c0.386,0.29,0.868,0.418,1.361,0.343c1.683-0.225,2.262-2.39,0.9-3.409l-1.125-0.814l-1.147-0.836       l-1.146-0.836l-1.137-0.826l-1.146-0.814l-1.158-0.814l-1.125-0.804l-1.147-0.815l-1.146-0.783l-1.137-0.782l-1.136-0.782       l-1.137-0.761l-1.125-0.772l-0.676-0.461c-0.482-0.321-1.061-0.407-1.618-0.236c-1.533,0.472-1.844,2.476-0.536,3.376       L226.244,89.896z M257.019,112.61l1.157,0.954l1.158,0.933l1.146,0.943l1.158,0.943l1.157,0.954l1.169,0.943l1.136,0.976       l1.168,0.954l1.147,0.986l1.168,0.976l1.769,1.512c1.062,0.9,2.69,0.396,3.065-0.965c0.193-0.687-0.042-1.447-0.578-1.908       l-1.779-1.522l-1.18-0.997l-1.157-0.975l-1.169-0.986l-1.157-0.965l-1.157-0.976l-1.18-0.954l-1.157-0.943l-1.179-0.954       l-1.158-0.933l-1.137-0.943l-1.189-0.932c-0.429-0.354-0.997-0.472-1.533-0.375c-1.597,0.322-2.101,2.347-0.858,3.355       L257.019,112.61z M285.971,137.575l1.168,1.083l1.158,1.082l1.146,1.083l1.158,1.083l1.157,1.093l1.169,1.094l1.157,1.104       l1.169,1.126l1.146,1.114l1.683,1.63c0.364,0.354,0.825,0.546,1.329,0.546c1.684-0.021,2.552-2.08,1.351-3.269l-1.704-1.641       l-1.179-1.114l-1.147-1.126l-1.179-1.114l-1.158-1.115l-1.168-1.093l-1.157-1.093l-1.169-1.093l-1.168-1.083l-1.169-1.083       l-1.554-1.426c-1.051-0.964-2.744-0.461-3.13,0.911c-0.193,0.676,0.021,1.404,0.535,1.876L285.971,137.575z M312.564,163.633       l1.147,1.19l1.146,1.2l1.137,1.212l1.157,1.211l1.137,1.222l1.157,1.222l1.137,1.222l1.146,1.232l1.126,1.233l1.404,1.511       c0.9,0.997,2.508,0.74,3.108-0.45c0.343-0.707,0.214-1.543-0.29-2.111l-1.404-1.522l-1.168-1.254l-1.137-1.243l-1.146-1.223       l-1.146-1.232l-1.158-1.222l-1.146-1.211l-1.147-1.222l-1.157-1.2l-1.158-1.211l-1.189-1.244       c-0.986-0.997-2.669-0.611-3.173,0.697c-0.226,0.686-0.086,1.425,0.418,1.95L312.564,163.633z M337.583,191.106l1.126,1.308       l1.114,1.318l1.115,1.308l1.125,1.329l1.094,1.318l1.136,1.329l1.104,1.319l1.093,1.329l1.104,1.318l1.275,1.554       c0.279,0.365,0.665,0.579,1.126,0.665c1.736,0.289,2.904-1.715,1.812-3.055l-1.276-1.576l-1.104-1.34l-1.115-1.329l-1.104-1.34       l-1.115-1.329l-1.125-1.318l-1.126-1.34l-1.114-1.318l-1.137-1.318l-1.125-1.319l-0.814-0.954       c-0.396-0.418-0.9-0.654-1.469-0.654c-1.598,0.011-2.487,1.919-1.437,3.13L337.583,191.106z M361.358,220.273l1.019,1.329       l1.018,1.351l1.019,1.318l1.008,1.34l0.985,1.318l1.008,1.34l0.997,1.34l0.976,1.318l0.997,1.34l0.954,1.33l0.525,0.708       c0.782,1.083,2.379,1.018,3.119-0.075c0.439-0.675,0.429-1.522-0.043-2.154l-0.515-0.74l-0.976-1.329l-0.986-1.34l-1.018-1.34       l-0.976-1.34l-0.997-1.34l-1.029-1.34l-1.008-1.34l-1.008-1.34l-1.028-1.351l-1.029-1.329l-0.782-0.997       c-0.289-0.407-0.75-0.654-1.254-0.729c-1.673-0.204-2.776,1.704-1.748,3.044L361.358,220.273z M383.558,250.897l0.911,1.329       l0.89,1.319l0.89,1.329l0.879,1.329l0.89,1.339l0.868,1.319l0.879,1.329l0.857,1.308l0.857,1.329l0.848,1.329l0.761,1.19       c0.75,1.157,2.433,1.168,3.194,0.01c0.407-0.643,0.429-1.414,0.032-2.068l-0.794-1.222l-0.847-1.308l-0.857-1.34l-0.879-1.34       l-0.868-1.319l-0.879-1.34l-0.89-1.329l-0.89-1.34l-0.89-1.318l-0.911-1.34l-0.922-1.34l-0.825-1.232       c-0.611-0.9-1.854-1.083-2.733-0.429c-0.793,0.621-0.976,1.747-0.407,2.572L383.558,250.897z M403.666,282.541l0.762,1.297       l0.761,1.318l0.772,1.297l0.739,1.297l0.739,1.297l0.74,1.308l0.739,1.286l0.729,1.297l0.719,1.298l0.729,1.286l0.708,1.286       l0.482,0.879c0.364,0.687,1.082,1.04,1.864,0.965c1.351-0.15,2.102-1.608,1.469-2.809l-0.482-0.89l-0.729-1.275l-0.708-1.308       l-0.739-1.308l-0.729-1.309l-0.739-1.297l-0.75-1.308l-0.729-1.308l-0.771-1.308l-0.761-1.318l-0.761-1.308l-0.772-1.318       l-0.707-1.18c-0.396-0.664-1.126-1.008-1.887-0.91c-1.351,0.214-2.058,1.693-1.383,2.861L403.666,282.541z M421.739,315.909       l0.621,1.254l0.601,1.265l0.611,1.254l0.6,1.244l0.601,1.243l0.568,1.254l0.589,1.233l0.558,1.243l0.579,1.243l0.558,1.232       l0.546,1.233l0.783,1.758c0.557,1.222,2.133,1.501,3.098,0.536c0.547-0.558,0.697-1.372,0.386-2.091l-0.247-0.536l-0.535-1.232       l-0.568-1.254l-0.568-1.243l-0.578-1.243l-0.579-1.255l-0.579-1.265l-0.578-1.243l-0.611-1.276l-0.601-1.254l-0.601-1.265       l-0.61-1.265l-0.622-1.265l-0.782-1.565c-0.247-0.472-0.633-0.804-1.147-0.965c-1.586-0.45-2.979,1.189-2.262,2.69       L421.739,315.909z M436.66,350.135l0.439,1.169l0.45,1.189l0.439,1.158l0.407,1.179l0.429,1.158l0.396,1.168l0.429,1.168       l0.386,1.158l0.397,1.146l0.385,1.147l0.365,1.146l0.386,1.137l0.364,1.136l0.386,1.254c0.418,1.309,2.048,1.737,3.077,0.826       c0.557-0.504,0.771-1.275,0.557-1.983l-0.407-1.275l-0.364-1.147l-0.375-1.168l-0.386-1.146l-0.386-1.158l-0.408-1.179       l-0.407-1.169l-0.396-1.179l-0.418-1.179l-0.429-1.169l-0.429-1.179l-0.439-1.201l-0.429-1.179l-0.461-1.212l-0.525-1.403       c-0.203-0.525-0.643-0.943-1.189-1.104c-1.501-0.504-2.938,0.997-2.358,2.477L436.66,350.135z M447.411,385.037l0.247,1.071       l0.235,1.062l0.235,1.039l0.215,1.051l0.215,1.051l0.214,1.04l0.204,1.039l0.192,1.029l0.193,1.019l0.182,1.029l0.183,1.018       l0.15,1.019l0.171,0.997l0.161,1.008l0.139,0.996l0.129,1.008l0.14,0.986l0.064,0.429c0.171,1.318,1.607,2.037,2.776,1.404       c0.707-0.386,1.093-1.126,0.986-1.919l-0.054-0.461l-0.15-1.018l-0.14-0.997l-0.139-1.04l-0.172-1.019l-0.161-1.028       l-0.182-1.029l-0.172-1.04l-0.192-1.04l-0.172-1.05l-0.203-1.051l-0.215-1.062l-0.215-1.061l-0.214-1.062l-0.226-1.062       l-0.235-1.093l-0.236-1.062l-0.257-1.094l-0.118-0.504c-0.161-0.643-0.579-1.125-1.189-1.35       c-1.426-0.493-2.83,0.771-2.509,2.229L447.411,385.037z M451.87,422.071l-0.021,0.857l-0.021,0.868l-0.042,0.868l-0.043,0.857       l-0.033,0.837l-0.053,0.867l-0.064,0.826l-0.054,0.836l-0.075,0.825l-0.086,0.814l-0.096,0.804l-0.086,0.815l-0.107,0.814       l-0.107,0.782l-0.107,0.783l-0.106,0.804l-0.15,0.771l-0.14,0.761l-0.129,0.762l-0.16,0.761l-0.15,0.75l-0.182,0.794       c-0.118,0.535-0.032,1.082,0.289,1.521c0.943,1.34,3.012,0.922,3.408-0.664l0.193-0.879l0.161-0.805l0.161-0.804l0.139-0.804       l0.15-0.793l0.139-0.814l0.129-0.826l0.118-0.836l0.118-0.814l0.096-0.836l0.097-0.848l0.097-0.846l0.086-0.857l0.075-0.858       l0.075-0.868l0.053-0.868l0.054-0.89l0.054-0.857l0.032-0.9l0.032-0.89l0.021-0.9l0.032-0.9v-0.536       c0-0.525-0.193-0.997-0.547-1.361c-1.179-1.168-3.227-0.332-3.259,1.34L451.87,422.071z M442.759,457.487l-0.396,0.558       l-0.354,0.547l-0.375,0.524l-0.386,0.547l-0.387,0.525l-0.396,0.515l-0.407,0.514l-0.439,0.516l-0.396,0.482l-0.429,0.492       l-0.439,0.493l-0.45,0.461l-0.439,0.482l-0.472,0.45l-0.461,0.45l-0.461,0.461l-0.493,0.439l-0.493,0.429l-0.482,0.418       l-0.514,0.43l-0.494,0.396l-0.514,0.396l-0.525,0.386l-0.525,0.396l-0.547,0.386l-0.525,0.354l-0.492,0.322       c-0.365,0.225-0.633,0.589-0.772,1.007c-0.568,1.704,1.297,3.13,2.819,2.177l0.525-0.375l0.6-0.387l0.59-0.418l0.579-0.418       l0.567-0.418l0.547-0.439l0.568-0.439l0.547-0.472l0.547-0.472l0.525-0.461l0.535-0.482l0.504-0.482l0.515-0.504l0.504-0.493       l0.493-0.536l0.482-0.503l0.472-0.536l0.482-0.536l0.45-0.547l0.45-0.546l0.45-0.558l0.429-0.558l0.439-0.59l0.407-0.568       l0.396-0.6l0.418-0.601l0.396-0.589l0.354-0.568c0.279-0.418,0.376-0.933,0.269-1.437c-0.354-1.63-2.53-2.005-3.452-0.59       L442.759,457.487z M412.842,476.514l-0.707,0.129l-0.707,0.107l-0.729,0.106l-0.729,0.086l-0.718,0.086l-0.75,0.075       l-0.729,0.074l-0.75,0.064l-0.75,0.064l-0.762,0.032l-0.761,0.043l-0.761,0.021l-0.783,0.021l-0.782,0.011l-0.771,0.021       l-0.771-0.011l-0.815-0.011l-0.804-0.021l-0.782-0.021l-0.825-0.043l-0.804-0.043l-0.815-0.054l-0.911-0.054       c-0.45-0.043-0.922,0.086-1.286,0.354c-1.415,1.051-0.814,3.281,0.922,3.42l0.997,0.064l0.836,0.054l0.836,0.054l0.857,0.031       l0.836,0.021l0.837,0.033l0.836,0.01h0.836l0.814-0.01l0.815-0.021l0.814-0.021l0.804-0.021l0.814-0.043l0.782-0.043       l0.805-0.054l0.793-0.075l0.771-0.064l0.782-0.086l0.782-0.085l0.762-0.118l0.761-0.097l0.761-0.118l0.762-0.128l0.707-0.129       c1.608-0.3,2.154-2.294,0.911-3.323c-0.418-0.364-0.976-0.504-1.521-0.407L412.842,476.514z M376,473.941l-0.922-0.247       l-0.922-0.235l-0.932-0.258l-0.933-0.268l-0.954-0.268l-0.933-0.279l-0.943-0.268l-0.943-0.29l-0.954-0.3l-0.954-0.311       l-0.976-0.312l-0.953-0.321l-0.965-0.321l-0.965-0.343l-0.976-0.333l-0.986-0.364l-0.986-0.354l-0.879-0.332       c-0.461-0.161-0.943-0.161-1.404,0.031c-1.575,0.687-1.554,2.905,0.032,3.517l0.922,0.343l0.986,0.364l1.008,0.343l0.996,0.365       l0.986,0.343l0.997,0.321l0.976,0.332l0.986,0.322l0.965,0.321l0.975,0.311l0.977,0.3l0.964,0.269l0.965,0.289l0.965,0.279       l0.954,0.268l0.954,0.257l0.943,0.258l0.964,0.246l0.772,0.172c1.372,0.343,2.615-0.857,2.337-2.24       c-0.15-0.697-0.676-1.222-1.372-1.426L376,473.941z M340.563,460.682l-1.05-0.504l-1.029-0.504l-1.05-0.515l-1.062-0.547       l-1.051-0.515l-1.05-0.535l-1.062-0.558l-1.072-0.547l-1.062-0.558l-1.061-0.568l-1.062-0.578l-1.062-0.558l-1.071-0.601       l-1.094-0.6l-0.718-0.396c-1.158-0.644-2.584,0.053-2.809,1.351c-0.14,0.804,0.236,1.575,0.922,1.95l0.75,0.418l1.083,0.601       l1.083,0.59l1.082,0.601l1.094,0.578l1.072,0.558l1.071,0.579l1.072,0.547l1.071,0.557l1.072,0.558l1.072,0.536l1.071,0.525       l1.072,0.535l1.05,0.504l1.062,0.504l1.115,0.536c0.482,0.235,1.019,0.247,1.511,0.064c1.555-0.601,1.651-2.766,0.161-3.474       L340.563,460.682z M308.245,442.588l-1.126-0.719l-1.114-0.696l-1.115-0.729l-1.114-0.729l-1.115-0.729l-1.115-0.762       l-1.125-0.739l-1.115-0.751l-1.136-0.761l-1.126-0.761l-1.114-0.771l-1.126-0.783l-1.575-1.082       c-0.396-0.289-0.9-0.396-1.404-0.301c-1.65,0.29-2.165,2.434-0.793,3.398l1.575,1.104l1.137,0.783l1.146,0.793l1.126,0.761       l1.146,0.762l1.137,0.771l1.114,0.75l1.137,0.751l1.136,0.729l1.115,0.729l1.125,0.74l1.137,0.718l1.114,0.708l0.654,0.429       c0.536,0.343,1.2,0.386,1.801,0.118c1.372-0.633,1.522-2.53,0.246-3.323L308.245,442.588z M276.581,420.324l-1.158-0.879       l-1.136-0.9l-1.158-0.879l-1.146-0.911l-1.147-0.911l-1.146-0.911L268.531,414l-1.147-0.922l-1.157-0.943l-1.169-0.933       l-1.715-1.404c-1.051-0.868-2.604-0.386-3.022,0.911c-0.226,0.739-0.012,1.512,0.6,2.004l1.726,1.426l1.169,0.954l1.157,0.943       l1.169,0.933l1.157,0.922l1.157,0.922l1.169,0.933l1.147,0.9l1.157,0.9l1.168,0.911l1.147,0.879l1.512,1.158       c0.385,0.311,0.846,0.418,1.34,0.375c1.704-0.193,2.336-2.337,0.975-3.388L276.581,420.324z M247.703,396.398l-1.179-1.039       l-1.126-1.04l-1.179-1.04l-1.158-1.05l-1.158-1.051l-1.168-1.062l-1.158-1.082l-1.157-1.062l-1.169-1.071l-1.157-1.094       l-0.954-0.89c-0.75-0.708-1.919-0.687-2.647,0.075c-0.75,0.739-0.74,1.982,0.043,2.69l0.954,0.911l1.158,1.082l1.168,1.083       l1.179,1.083l1.157,1.082l1.158,1.062l1.179,1.05l1.168,1.062l1.168,1.062l1.168,1.039l1.158,1.04l1.361,1.19       c1.029,0.91,2.658,0.45,3.076-0.879c0.215-0.719,0-1.458-0.547-1.962L247.703,396.398z M219.898,370.084l-1.147-1.18       l-1.168-1.168l-1.137-1.169l-1.157-1.189l-1.158-1.179l-1.157-1.201l-1.126-1.189l-1.146-1.189l-1.158-1.212l-1.007-1.071       c-0.408-0.439-0.986-0.633-1.587-0.579c-1.543,0.192-2.251,2.047-1.189,3.184l1.029,1.082l1.147,1.212l1.147,1.2l1.158,1.2       l1.168,1.201l1.147,1.189l1.157,1.201l1.169,1.179l1.146,1.179l1.158,1.169l1.769,1.758c0.343,0.343,0.825,0.546,1.318,0.546       c1.683,0.012,2.562-2.025,1.372-3.236L219.898,370.084z" style="fill:#EFDFA5;"/></g></g><g><path d="M319.586,354.67c0.407-0.269,0.675-0.654,0.804-1.072c0.418,0.086,0.89,0.011,1.297-0.258      l0.836-0.525l1.469-0.922l1.458-0.932l1.447-0.933l1.457-0.933l1.458-0.933l1.447-0.943l1.426-0.933l1.447-0.922l1.425-0.965      l2.005-1.329c0.9-0.601,1.104-1.833,0.461-2.701c-0.61-0.814-1.736-1.029-2.562-0.472l-1.994,1.329l-1.436,0.943l-1.416,0.943      l-1.436,0.922l-1.447,0.922l-1.437,0.933l-1.447,0.922l-1.437,0.943l-1.447,0.922l-1.468,0.911l-0.836,0.524      c-0.386,0.247-0.676,0.622-0.794,1.04c-0.449-0.063-0.91,0.021-1.297,0.269l-1.469,0.922l-1.489,0.9l-1.447,0.9l-1.479,0.911      l-1.479,0.89l-1.469,0.879l-1.469,0.868l-1.469,0.89l-1.457,0.868l-1.479,0.868l-1.404,0.825      c-0.665,0.376-1.019,1.137-0.911,1.876c0.182,1.351,1.672,2.09,2.84,1.415l1.404-0.836l1.479-0.879l1.479-0.868l1.469-0.879      l1.49-0.891l1.479-0.889l1.469-0.9l1.49-0.891l1.479-0.91l1.479-0.912L319.586,354.67z M437.057,273.439      c-2.594,1.608-5.606,2.016-8.383,1.361c-1.383-0.332-2.701-0.922-3.891-1.758l-0.997,0.965l-1.04,1.019l-1.05,1.019      l-1.051,1.018l-1.062,1.008l-1.071,1.019l-1.083,1.019l-1.082,1.008l-1.083,1.018l-1.083,1.029l-1.093,1.008l-0.933,0.836      c-1.094,0.997-2.83,0.407-3.141-1.061c-0.118-0.633,0.086-1.309,0.568-1.748l0.922-0.847l1.082-1.008l1.104-1.019l1.062-0.985      l1.083-1.008l1.061-1.008l1.062-1.019l1.051-1.018l1.062-0.997l1.039-1.008l1.029-1.008l0.954-0.942      c-0.129-0.172-0.235-0.354-0.343-0.525c-1.641-2.627-2.069-5.671-1.437-8.447c0.632-2.776,2.326-5.306,4.92-6.914      c2.594-1.619,5.606-2.026,8.382-1.361c1.297,0.311,2.541,0.857,3.666,1.608l0.504-0.525l0.922-1.008l0.911-0.997l0.9-1.007      l0.9-0.997l0.89-0.997l0.89-0.997l0.88-1.007l0.879-0.997l0.867-0.997l0.858-1.008l0.847-0.986l0.847-0.986l0.396-0.472      c0.386-0.45,0.922-0.686,1.501-0.675c1.607,0.097,2.422,1.93,1.404,3.141l-0.408,0.472l-0.857,1.019l-0.857,0.986l-0.868,1.018      l-0.879,0.997l-0.879,1.019l-0.89,1.008l-0.9,1.007l-0.9,1.018l-0.9,1.008l-0.922,1.008l-0.922,1.018l-0.933,1.007l-0.525,0.579      c0.183,0.236,0.354,0.493,0.515,0.761c1.629,2.605,2.059,5.639,1.426,8.415C441.344,269.303,439.65,271.832,437.057,273.439      L437.057,273.439z M429.51,271.114c1.822,0.418,3.816,0.16,5.531-0.911c1.715-1.062,2.819-2.733,3.248-4.545      c0.407-1.844,0.14-3.838-0.943-5.574c-1.072-1.726-2.744-2.852-4.577-3.291c-1.822-0.439-3.815-0.182-5.53,0.89      c-1.705,1.072-2.819,2.733-3.237,4.566c-0.419,1.833-0.129,3.816,0.942,5.563C426.026,269.527,427.678,270.675,429.51,271.114      L429.51,271.114z M350.961,329.254c-0.558,0.397-0.869,1.094-0.772,1.791c0.193,1.414,1.812,2.144,2.98,1.329l1.897-1.361      l1.351-0.976l1.361-0.965l1.351-0.976l1.351-0.965l1.329-0.986l1.329-0.976l1.318-0.975l1.329-0.986l1.318-0.986l1.351-1.008      c0.579-0.439,0.857-1.179,0.696-1.918c-0.3-1.34-1.896-1.951-3.001-1.126l-1.329,0.997l-1.308,0.986l-1.308,0.975l-1.318,0.965      l-1.329,0.976l-1.319,0.976l-1.34,0.965l-1.34,0.965l-1.34,0.975l-1.361,0.955L350.961,329.254z M381.018,306.637      c-0.537,0.451-0.783,1.126-0.665,1.822c0.268,1.415,1.929,2.059,3.044,1.158l1.576-1.254l1.232-1.008l1.232-0.997l1.223-1.008      l1.222-0.997l1.211-0.996l1.212-1.008l1.211-1.019l1.2-0.997l1.19-1.008l1.179-1.007l0.9-0.761      c1.19-1.019,0.665-3.002-0.879-3.323c-0.579-0.107-1.157,0.054-1.597,0.418l-0.9,0.761l-1.169,0.986l-1.189,1.008l-1.18,0.996      l-1.2,0.997l-1.201,1.008l-1.211,0.986l-1.211,1.008l-1.211,0.985l-1.223,0.997l-1.232,0.997L381.018,306.637z M460.499,227.048      c-1.05,1.415,0.236,3.397,1.962,3.001c0.439-0.096,0.793-0.343,1.082-0.696l0.482-0.665l0.74-0.986l0.729-0.976l0.719-0.986      l0.718-0.986l0.708-0.986l0.696-0.986l0.696-0.975l0.697-0.986l0.664-0.975l0.676-0.976l0.676-0.976l0.653-0.986l0.644-0.954      l0.643-0.964l0.783-1.201c0.91-1.426-0.376-3.27-2.026-2.894c-0.472,0.107-0.879,0.396-1.157,0.825l-0.762,1.136l-0.633,0.965      l-0.643,0.954l-0.633,0.965l-0.664,0.964l-0.676,0.965l-0.653,0.954l-0.676,0.975l-0.686,0.965l-0.708,0.965l-0.686,0.976      l-0.708,0.965l-0.707,0.964l-0.718,0.976l-0.74,0.986L460.499,227.048z M480.834,195.587c-0.762,1.447,0.535,3.119,2.133,2.755      c0.525-0.128,0.965-0.472,1.222-0.954l0.278-0.504l0.482-0.943l0.493-0.922l0.461-0.943l0.461-0.911l0.45-0.943l0.472-0.9      l0.439-0.932l0.439-0.901l0.418-0.943l0.418-0.89l0.419-0.922l0.406-0.911l0.376-0.9l0.396-0.9l0.364-0.911l0.386-0.9l0.354-0.9      l0.354-0.879l0.149-0.407c0.633-1.64-1.114-3.194-2.658-2.379c-0.407,0.214-0.696,0.557-0.879,0.986l-0.14,0.375l-0.343,0.857      l-0.343,0.89l-0.375,0.879l-0.365,0.868l-0.375,0.89l-0.386,0.879l-0.386,0.89l-0.396,0.89l-0.418,0.879l-0.407,0.9l-0.429,0.9      l-0.439,0.911l-0.439,0.9l-0.43,0.9l-0.471,0.9l-0.472,0.922l-0.472,0.9l-0.472,0.911L480.834,195.587z M493.965,160.804      c-0.301,1.565,1.328,2.798,2.732,2.058c0.515-0.268,0.857-0.729,0.965-1.297l0.183-0.954l0.161-0.825l0.149-0.814l0.118-0.836      l0.118-0.815l0.106-0.815l0.107-0.814l0.086-0.793l0.097-0.804l0.075-0.804l0.074-0.793l0.054-0.804l0.043-0.793l0.054-0.783      l0.021-0.783l0.032-0.771v-0.793l0.011-0.761v-0.771l-0.021-0.771l-0.032-0.762l-0.032-0.761l-0.043-0.75l-0.053-0.74      l-0.033-0.311c-0.16-1.726-2.326-2.38-3.376-1.019c-0.3,0.386-0.429,0.847-0.386,1.34l0.032,0.247l0.042,0.696l0.033,0.708      l0.043,0.707l0.021,0.708l0.01,0.729v0.718v0.74v0.718l-0.021,0.74l-0.031,0.74l-0.043,0.739l-0.043,0.761l-0.054,0.75      l-0.064,0.739l-0.086,0.772l-0.064,0.75l-0.097,0.771l-0.096,0.772l-0.097,0.783l-0.14,0.761l-0.117,0.793l-0.118,0.793      l-0.15,0.783L493.965,160.804z M490.234,125.002c0.879,1.597,3.248,1.211,3.526-0.579c0.075-0.407,0-0.825-0.193-1.211      l-0.085-0.129l-0.344-0.622l-0.343-0.621l-0.364-0.611l-0.365-0.622l-0.396-0.6l-0.386-0.579l-0.396-0.6l-0.418-0.579      l-0.407-0.59l-0.429-0.558l-0.439-0.557l-0.45-0.568l-0.439-0.547l-0.482-0.536l-0.461-0.536l-0.482-0.525l-0.493-0.525      l-0.493-0.503l-0.504-0.515l-0.514-0.482l-0.516-0.493l-0.546-0.493l-0.536-0.472l-0.558-0.472l-0.546-0.482l-0.568-0.439      l-0.568-0.45l-0.321-0.246c-1.394-1.04-3.302,0.171-2.98,1.865c0.086,0.482,0.343,0.879,0.729,1.168l0.289,0.204l0.515,0.418      l0.525,0.429l0.515,0.429l0.504,0.429l0.503,0.45l0.482,0.439l0.482,0.45l0.482,0.472l0.45,0.45l0.45,0.472l0.45,0.472      l0.45,0.493l0.429,0.471l0.429,0.504l0.407,0.504l0.418,0.503l0.387,0.515l0.396,0.515l0.375,0.525l0.386,0.525l0.364,0.557      l0.365,0.536l0.343,0.547l0.343,0.568l0.321,0.557l0.321,0.557l0.312,0.579L490.234,125.002z M462.225,102.813      c0.729,0.246,1.479,0.042,1.994-0.504c0.922-1.029,0.493-2.637-0.825-3.087l-0.687-0.257l-0.793-0.246l-0.782-0.258      l-0.782-0.246l-0.805-0.236l-0.814-0.225l-0.814-0.226l-0.814-0.225l-0.826-0.204l-0.846-0.214l-0.815-0.193l-0.868-0.203      l-0.847-0.172l-0.857-0.182l-0.857-0.171l-0.879-0.172l-0.88-0.161l-0.889-0.15l-0.891-0.15l-0.889-0.139l-0.912-0.139      l-0.922-0.129l-0.321-0.054c-1.607-0.193-2.69,1.598-1.79,2.948c0.322,0.472,0.783,0.75,1.34,0.825l0.301,0.043l0.879,0.128      l0.89,0.139l0.847,0.118l0.857,0.139l0.868,0.15l0.857,0.161l0.836,0.161l0.825,0.161l0.826,0.183l0.836,0.182l0.804,0.182      l0.804,0.182l0.805,0.214l0.793,0.193l0.782,0.214l0.782,0.215l0.771,0.214l0.762,0.226l0.761,0.246l0.761,0.236l0.729,0.246      L462.225,102.813z M425.533,97.475c0.965-0.011,1.758-0.75,1.854-1.726c0.097-1.114-0.793-2.079-1.919-2.079h-1.018      l-1.019,0.011l-1.04,0.011l-1.051,0.032l-1.061,0.021l-1.051,0.032l-1.082,0.043l-1.072,0.054l-1.062,0.042l-1.071,0.064      l-1.094,0.064l-1.094,0.064l-1.104,0.075l-1.094,0.085l-1.093,0.085l-1.126,0.097l-1.104,0.097l-0.805,0.075      c-1.715,0.171-2.305,2.326-0.943,3.397c0.387,0.29,0.848,0.429,1.33,0.375l0.782-0.075l1.114-0.085l1.094-0.097l1.082-0.086      l1.072-0.075l1.083-0.085l1.071-0.053l1.062-0.075l1.062-0.064l1.061-0.043l1.029-0.043l1.062-0.043l1.028-0.032l1.029-0.021      l1.029-0.01l1.019-0.021l1.028-0.011H425.533z M388.23,100.905c0.697-0.118,1.266-0.611,1.479-1.297      c0.418-1.361-0.739-2.69-2.133-2.455l-1.243,0.204l-1.201,0.225l-1.211,0.226l-1.2,0.214l-1.212,0.226l-1.243,0.235      l-1.222,0.247l-1.223,0.257l-1.232,0.257l-1.232,0.257l-1.254,0.257l-1.244,0.268l-1.243,0.289l-1.254,0.279l-1.426,0.322      c-0.75,0.193-1.286,0.793-1.426,1.565c-0.171,1.34,1.04,2.444,2.337,2.133l1.372-0.311l1.254-0.279l1.233-0.268l1.243-0.29      l1.211-0.246l1.222-0.268l1.233-0.247l1.211-0.247l1.211-0.236l1.201-0.236l1.2-0.225l1.201-0.236l1.2-0.214l1.179-0.193      L388.23,100.905z M351.657,109.33c1.522-0.45,1.844-2.454,0.536-3.376c-0.482-0.333-1.051-0.429-1.607-0.269l-0.783,0.215      l-1.318,0.396l-1.318,0.375l-1.318,0.396l-1.318,0.397l-1.329,0.396l-1.34,0.408l-1.329,0.418l-1.351,0.429l-1.341,0.418      l-1.328,0.429l-1.352,0.45l-1.35,0.439l-1.318,0.439c-1.619,0.536-1.727,2.776-0.193,3.516c0.45,0.215,0.943,0.247,1.404,0.086      l1.308-0.439l1.34-0.429l1.34-0.439l1.34-0.429l1.329-0.418l1.308-0.418l1.34-0.418l1.318-0.418l1.319-0.386l1.307-0.397      l1.318-0.386l1.309-0.375l1.297-0.386L351.657,109.33z M315.995,121.196c1.501-0.568,1.629-2.658,0.225-3.451      c-0.493-0.258-1.071-0.322-1.586-0.118l-1.404,0.525l-1.383,0.547l-1.394,0.525l-1.404,0.546l-1.394,0.547l-1.415,0.547      l-1.404,0.568L303.432,122l-1.414,0.568l-1.404,0.568l-1.415,0.589l-2.165,0.911c-0.665,0.268-1.115,0.911-1.147,1.619      c-0.054,1.426,1.34,2.401,2.637,1.865l2.134-0.89l1.414-0.568l1.394-0.579l1.404-0.558l1.394-0.568l1.394-0.558l1.404-0.547      l1.383-0.525l1.383-0.546l1.394-0.536l1.383-0.547L315.995,121.196z M281.286,135.667c0.633-0.289,1.062-0.922,1.104-1.629      c0.043-1.426-1.404-2.412-2.701-1.833l-1.919,0.879l-1.447,0.675l-1.446,0.675l-1.447,0.675l-1.447,0.686l-1.447,0.675      l-1.447,0.708l-1.447,0.697l-1.447,0.708l-1.457,0.707l-2.123,1.04c-1.521,0.771-1.329,2.98,0.279,3.516      c0.472,0.15,0.965,0.118,1.415-0.096l2.111-1.04l1.437-0.708l1.458-0.707l1.437-0.697l1.446-0.686l1.437-0.675l1.437-0.675      l1.426-0.676l1.437-0.675l1.447-0.676L281.286,135.667z M247.575,152.335c0.632-0.343,1.007-1.007,0.997-1.726      c-0.064-1.404-1.565-2.283-2.798-1.64l-1.522,0.804l-1.469,0.793l-1.469,0.804l-1.468,0.793l-1.468,0.814l-1.479,0.804      l-1.469,0.804l-1.468,0.826l-1.468,0.836l-1.49,0.825l-1.801,1.019c-0.665,0.386-1.029,1.146-0.933,1.918      c0.215,1.319,1.651,2.047,2.819,1.394l1.801-1.018l1.447-0.826l1.479-0.814l1.458-0.815l1.469-0.814l1.469-0.804l1.468-0.804      l1.458-0.793l1.458-0.782l1.469-0.793L247.575,152.335z M214.882,170.933c1.372-0.847,1.114-2.926-0.408-3.43      c-0.536-0.171-1.093-0.118-1.586,0.172l-1.083,0.653l-1.468,0.911l-1.49,0.9l-1.458,0.911l-1.49,0.922l-1.479,0.911      l-1.469,0.933l-1.458,0.922l-1.479,0.933l-1.447,0.922l-1.705,1.104c-1.468,0.954-0.954,3.216,0.783,3.473      c0.46,0.064,0.89-0.021,1.275-0.279l1.693-1.083l1.458-0.922l1.458-0.933l1.447-0.911l1.479-0.922l1.458-0.911l1.469-0.911      l1.468-0.911l1.468-0.911l1.479-0.89L214.882,170.933z M183.239,191.289c1.393-0.943,0.932-3.109-0.729-3.431      c-0.504-0.085-1.008,0.011-1.415,0.3l-1.05,0.718l-1.383,0.943l-1.394,0.965l-1.383,0.965l-1.372,0.964l-1.394,0.954      l-1.361,0.975l-1.34,0.976l-1.372,0.954l-1.351,0.976l-1.34,0.976l-0.718,0.525c-0.653,0.472-0.911,1.265-0.707,2.047      c0.375,1.275,1.875,1.812,2.947,1.029l0.708-0.515l1.329-0.965l1.361-0.954l1.329-0.965l1.361-0.964l1.361-0.965l1.361-0.964      l1.372-0.954l1.372-0.954l1.394-0.965l1.361-0.954L183.239,191.289z M152.818,213.402c0.804-0.611,0.964-1.747,0.396-2.573      c-0.622-0.89-1.865-1.104-2.723-0.429l-1.168,0.922l-1.286,0.975l-1.275,0.997l-1.254,0.986l-1.265,0.997l-1.254,0.997      l-1.243,0.997l-1.244,0.997l-1.244,1.008l-1.232,0.997l-1.211,0.997l-1.115,0.911c-0.579,0.504-0.814,1.244-0.611,1.983      c0.375,1.329,1.961,1.833,3.034,0.965l1.104-0.89l1.211-1.008l1.222-0.997l1.222-0.986l1.244-0.997l1.233-0.976l1.254-0.997      l1.254-1.008l1.254-0.975l1.254-0.986l1.275-0.986L152.818,213.402z M123.801,237.327c1.007-0.911,0.783-2.529-0.439-3.141      c-0.686-0.332-1.5-0.225-2.08,0.279l-1.029,0.9l-1.146,1.018l-1.126,1.019l-1.136,1.008l-1.126,1.007l-1.104,1.029l-1.104,0.997      l-1.104,1.019l-1.104,1.018l-1.104,1.018l-1.072,1.019l-1.094,1.008l-0.729,0.696c-0.965,0.943-0.708,2.552,0.525,3.109      c0.729,0.322,1.521,0.193,2.079-0.333l0.729-0.696l1.072-1.008l1.083-1.008l1.082-0.997l1.094-1.007l1.104-1.008l1.104-1.008      l1.093-1.008l1.115-1.007l1.126-0.997l1.125-1.019l1.137-1.008L123.801,237.327z M96.51,263.182      c1.147-1.189,0.322-3.184-1.329-3.237c-0.536,0-1.007,0.183-1.394,0.568l-1.211,1.243l-0.986,1.019l-0.976,1.008l-0.964,1.019      l-0.954,1.008l-0.965,1.018l-0.933,1.008l-0.943,1.029l-0.943,1.008l-0.933,1.007l-0.911,1.008l-0.933,1.019l-0.89,1.018      l-0.396,0.43c-0.515,0.6-0.632,1.414-0.278,2.111c0.61,1.211,2.208,1.426,3.108,0.439l1.286-1.437l0.9-0.997l0.911-1.008      l0.922-0.996l0.922-1.008l0.933-0.997l0.943-1.019l0.954-0.996l0.943-1.019l0.975-0.986l0.954-1.019l0.975-0.996L96.51,263.182z       M71.503,291.201c0.997-1.232,0.096-3.098-1.49-3.087c-0.568-0.011-1.115,0.258-1.469,0.687l-0.933,1.179l-0.814,1.008      l-0.771,0.997l-0.783,0.996l-0.772,0.997l-0.761,0.976l-0.772,0.997l-0.74,0.997l-0.739,0.986l-0.75,0.996l-0.729,0.986      l-0.718,0.976l-0.719,0.986l-0.696,0.986l-0.783,1.082c-0.429,0.611-0.45,1.404-0.075,2.059      c0.696,1.179,2.379,1.286,3.162,0.161l0.761-1.072l0.708-0.965l0.708-0.976l0.707-0.976l0.719-0.965l0.729-0.965l0.729-0.985      l0.75-0.986l0.75-0.986l0.75-0.965l0.761-0.997l0.771-0.975l0.793-0.986l0.783-0.976L71.503,291.201z M49.872,321.826      c0.75-1.286-0.204-2.927-1.705-2.884c-0.654,0.032-1.2,0.354-1.543,0.911l-0.268,0.461l-0.579,0.943l-0.557,0.943l-0.558,0.965      l-0.547,0.943l-0.525,0.943l-0.525,0.943l-0.525,0.943l-0.525,0.932l-0.493,0.943l-0.504,0.934l-0.482,0.932l-0.482,0.933      l-0.482,0.933l-0.472,0.922l-0.45,0.922l-0.439,0.922l-0.45,0.922l-0.193,0.418c-0.354,0.719-0.214,1.544,0.343,2.133      c0.922,0.955,2.508,0.719,3.076-0.482l0.193-0.396l0.429-0.889l0.44-0.912l0.439-0.91l0.461-0.912l0.471-0.889l0.45-0.934      l0.482-0.9l0.504-0.932l0.493-0.922l0.504-0.9l0.515-0.943l0.515-0.912l0.525-0.932l0.536-0.933l0.536-0.911l0.557-0.943      l0.558-0.943L49.872,321.826z M34.125,355.645c0.493-1.607-1.2-3.033-2.68-2.272c-0.461,0.236-0.782,0.611-0.943,1.126      l-0.161,0.493l-0.257,0.879l-0.257,0.857l-0.236,0.857l-0.236,0.857l-0.225,0.847l-0.225,0.857l-0.214,0.848l-0.193,0.847      l-0.204,0.836l-0.172,0.847l-0.171,0.836l-0.172,0.825l-0.161,0.837l-0.139,0.814l-0.15,0.836l-0.129,0.804l-0.118,0.825      l-0.107,0.814l-0.107,0.805l-0.097,0.814l-0.085,0.814l-0.096,0.89c-0.107,1.618,1.736,2.658,3.033,1.683      c0.439-0.321,0.697-0.804,0.75-1.361l0.075-0.804l0.086-0.771l0.086-0.761l0.096-0.772l0.107-0.771l0.107-0.771l0.129-0.794      l0.139-0.782l0.139-0.782l0.161-0.804l0.161-0.804l0.161-0.794l0.161-0.804l0.193-0.814l0.204-0.805l0.193-0.814l0.214-0.825      l0.225-0.814l0.225-0.825l0.236-0.848l0.236-0.824l0.247-0.837L34.125,355.645z M31.574,391.993      c-0.439-1.618-2.637-1.929-3.473-0.482c-0.247,0.439-0.322,0.965-0.182,1.447l0.161,0.644l0.193,0.686l0.204,0.697l0.204,0.696      l0.215,0.665l0.235,0.686l0.236,0.665l0.247,0.675l0.268,0.665l0.268,0.664l0.289,0.644l0.279,0.653l0.311,0.633l0.3,0.653      l0.333,0.633l0.322,0.633l0.343,0.621l0.354,0.622l0.354,0.601l0.386,0.61l0.375,0.611l0.396,0.611l0.396,0.578l0.407,0.579      l0.418,0.579l0.429,0.579l0.45,0.546l0.397,0.515c1.147,1.372,3.355,0.59,3.344-1.2c-0.011-0.45-0.15-0.868-0.418-1.2      l-0.375-0.451l-0.396-0.514l-0.397-0.515l-0.375-0.536l-0.386-0.536l-0.364-0.536l-0.354-0.535l-0.343-0.558l-0.343-0.547      l-0.321-0.568l-0.332-0.567l-0.311-0.568l-0.3-0.579l-0.3-0.579l-0.279-0.59l-0.279-0.578l-0.268-0.601l-0.257-0.601l-0.235-0.6      l-0.247-0.611l-0.235-0.621l-0.215-0.601l-0.203-0.622l-0.204-0.633l-0.193-0.632l-0.182-0.633l-0.193-0.643L31.574,391.993z       M53.688,419.627c-0.482-0.257-1.051-0.289-1.565-0.086c-1.511,0.611-1.597,2.68-0.161,3.452l0.632,0.332l0.675,0.364      l0.696,0.344l0.687,0.332l0.696,0.343l0.719,0.321l0.718,0.322l0.718,0.3l0.729,0.311l0.75,0.301l0.729,0.289l0.761,0.29      l0.761,0.268l0.772,0.278l0.761,0.258l0.782,0.257l0.793,0.258l0.793,0.257l0.804,0.226l0.793,0.235l0.826,0.235l0.825,0.204      l0.804,0.214l0.965,0.236c1.704,0.396,2.969-1.522,1.94-2.959c-0.268-0.386-0.675-0.632-1.115-0.739l-0.89-0.226l-0.783-0.214      l-0.793-0.192l-0.782-0.215l-0.761-0.225l-0.772-0.226l-0.772-0.235l-0.739-0.236l-0.74-0.258l-0.739-0.246l-0.718-0.268      l-0.729-0.258l-0.707-0.268l-0.708-0.268l-0.707-0.279l-0.686-0.3l-0.675-0.3l-0.686-0.301l-0.665-0.3l-0.665-0.312      l-0.664-0.311l-0.633-0.332l-0.643-0.332L53.688,419.627z M89.382,428.792c-0.718-0.032-1.383,0.312-1.747,0.933      c-0.686,1.232,0.129,2.766,1.533,2.862l0.793,0.063l0.986,0.055l0.986,0.053l0.975,0.054l0.997,0.032l1.008,0.032l0.997,0.021      l1.008,0.043l1.018,0.011h1.029h1.008h1.04l1.039-0.021h1.04l1.051-0.021l1.061-0.032l1.061-0.021l1.051-0.043l0.975-0.054      c1.705-0.074,2.412-2.187,1.125-3.322c-0.386-0.322-0.836-0.472-1.34-0.461l-0.933,0.043l-1.05,0.031l-1.05,0.033l-1.029,0.031      l-1.019,0.032l-1.029,0.011h-0.997H99.94h-0.997l-0.997-0.011l-0.997-0.011l-0.975-0.043l-0.986-0.021l-0.976-0.031      l-0.976-0.033l-0.965-0.042l-0.943-0.054l-0.954-0.064L89.382,428.792z M126.738,427.303c-1.629,0.225-2.208,2.314-0.911,3.365      c0.396,0.332,0.922,0.493,1.437,0.407l1.232-0.161l1.179-0.16l1.147-0.161l1.179-0.171l1.19-0.183l1.179-0.183l1.19-0.192      l1.19-0.193l1.189-0.204l1.201-0.203l1.201-0.203l1.2-0.226l1.233-0.235l1.211-0.226l1.211-0.235l0.836-0.172      c0.772-0.15,1.361-0.762,1.479-1.565c0.183-1.308-0.954-2.4-2.262-2.154l-0.804,0.172l-1.222,0.225l-1.19,0.236l-1.2,0.203      l-1.19,0.226l-1.179,0.214l-1.179,0.204l-1.201,0.193l-1.168,0.192l-1.158,0.192l-1.168,0.172l-1.168,0.183l-1.158,0.161      l-1.146,0.171l-1.147,0.15L126.738,427.303z M163.569,420.077c-1.469,0.364-1.908,2.22-0.793,3.227      c0.482,0.45,1.125,0.611,1.758,0.461l0.739-0.214l1.286-0.332l1.297-0.333l1.287-0.354l1.297-0.354l1.308-0.343l1.308-0.376      l1.297-0.354l1.318-0.386l1.318-0.375l1.318-0.387l1.329-0.396l1.319-0.396l1.833-0.557c1.608-0.493,1.779-2.701,0.3-3.495      c-0.45-0.235-0.965-0.278-1.437-0.14l-1.822,0.558l-1.318,0.386l-1.297,0.396l-1.308,0.376l-1.308,0.375l-1.297,0.364      l-1.297,0.375l-1.297,0.365l-1.275,0.354l-1.297,0.354l-1.276,0.343l-1.276,0.321l-1.286,0.344L163.569,420.077z M199.5,409.09      c-1.619,0.579-1.683,2.819-0.118,3.527c0.45,0.192,0.922,0.225,1.394,0.054l1.79-0.633l1.372-0.493l1.383-0.493l1.383-0.515      l1.372-0.504l1.382-0.525l1.394-0.514l1.383-0.525l1.404-0.525l1.393-0.547l1.394-0.547l2.091-0.814      c0.718-0.278,1.168-0.965,1.179-1.736c0.011-1.361-1.329-2.294-2.594-1.79l-2.069,0.804l-1.383,0.536l-1.393,0.536l-1.383,0.525      l-1.383,0.525l-1.372,0.525l-1.372,0.503l-1.372,0.515l-1.372,0.482l-1.361,0.504l-1.372,0.482L199.5,409.09z M234.476,395.295      c-0.675,0.311-1.115,0.954-1.136,1.693c0,1.394,1.404,2.337,2.669,1.79l1.651-0.718l1.425-0.633l1.437-0.621l1.426-0.644      l1.437-0.653l1.447-0.654l1.437-0.654l1.436-0.664l1.458-0.665l1.437-0.664l1.437-0.687l1.189-0.568      c0.965-0.439,1.351-1.607,0.879-2.551s-1.575-1.329-2.508-0.89l-1.19,0.558l-1.436,0.686l-1.436,0.665l-1.426,0.653      l-1.437,0.665l-1.437,0.653l-1.415,0.644l-1.436,0.644l-1.437,0.632l-1.404,0.633l-1.437,0.622L234.476,395.295z       M268.467,379.217c-1.501,0.771-1.297,2.979,0.311,3.494c0.472,0.149,0.986,0.117,1.426-0.107l2.219-1.125l1.469-0.772      l1.446-0.75l1.479-0.772l1.469-0.782l1.458-0.782l1.468-0.782l1.49-0.783l1.458-0.793l1.458-0.793l1.308-0.708      c1.361-0.761,1.275-2.754-0.15-3.408c-0.547-0.236-1.168-0.225-1.683,0.054l-1.286,0.718l-1.469,0.805l-1.469,0.771      l-1.447,0.782l-1.458,0.782l-1.468,0.783l-1.458,0.771l-1.447,0.761l-1.469,0.751l-1.446,0.761L268.467,379.217z" style="fill:#62C2FF;"/></g><g><path d="M375.057,30.759L375.057,30.759      c0,16.314,13.217,29.67,29.393,29.67l0,0c-16.176,0-29.393,13.346-29.393,29.682l0,0c0-16.336-13.216-29.682-29.37-29.682l0,0      C361.841,60.43,375.057,47.074,375.057,30.759L375.057,30.759z" style="fill-rule:evenodd;clip-rule:evenodd;fill:#EFDFA5;"/></g><g><path d="M42.218,213.799L42.218,213.799      c0,16.314,13.217,29.66,29.392,29.66l0,0c-16.175,0-29.392,13.355-29.392,29.681l0,0c0-16.325-13.216-29.681-29.37-29.681l0,0      C29.001,243.459,42.218,230.113,42.218,213.799L42.218,213.799z" style="fill-rule:evenodd;clip-rule:evenodd;fill:#62C2FF;"/></g><g><path d="M463.019,289.176L463.019,289.176      c0,9.744,7.899,17.708,17.547,17.708l0,0c-9.647,0-17.547,7.964-17.547,17.708l0,0c0-9.744-7.879-17.708-17.526-17.708l0,0      C455.14,306.884,463.019,298.92,463.019,289.176L463.019,289.176z" style="fill-rule:evenodd;clip-rule:evenodd;fill:#EFDFA5;"/></g></g><g><path d="M177.601,426.134c-2.916,0-5.317-2.272-5.478-5.188l-0.225-4.009     c-0.118-2.947-0.15-17.525,9.701-27.634c5.82-5.971,13.646-9.004,23.25-9.004h1.79c-0.172-0.633-0.333-1.254-0.504-1.897     c-23.904-11.897-38.106-31.664-38.106-53.177c0-16.412,8.457-31.954,23.518-43.788c-30.936-14.063-49.736-37.549-49.736-62.932     c0-1.822,0.118-3.698,0.354-5.66c-7.825-6.152-12.392-15.339-12.392-25.211c0-17.923,14.932-32.501,33.294-32.501     c6.613,0,12.938,1.919,18.469,5.585c18.802-10.794,42.416-17.172,67.284-18.19l18.158-50.133     c0.804-2.208,2.895-3.613,5.156-3.613c0.418,0,0.836,0.043,1.254,0.139l42.705,9.916c5.112-8.007,14.063-12.97,23.925-12.97     c15.542,0,28.191,12.359,28.191,27.548c0,15.189-12.649,27.548-28.191,27.548c-13.999,0-25.641-10-27.827-23.067l-30.914-7.171     l-11.694,32.243c22.435,1.822,43.638,8.05,60.691,17.869c5.542-3.698,12.027-5.703,18.641-5.703     c18.373,0,33.315,14.578,33.315,32.501c0,10.065-4.717,19.358-12.767,25.5c0.204,1.875,0.311,3.655,0.311,5.371     c0,25.629-19.177,49.318-50.669,63.35c14.717,11.77,22.992,27.194,22.992,43.37c0,20.923-13.646,40.421-36.573,52.373     c-0.247,0.933-0.493,1.833-0.739,2.701h1.886c8.908,0,16.294,2.873,21.942,8.532c10.397,10.44,10.141,26.155,10.076,27.913     l-0.129,4.073c-0.086,2.958-2.52,5.316-5.478,5.316H177.601z M317.217,406.689c-0.633-1.544-1.49-3.055-2.658-4.224     c-1.168-1.168-3.259-2.723-7.89-2.723h-9.562c-1.351,2.477-2.818,4.792-4.395,6.946H317.217z M218.558,406.689     c-1.565-2.145-3.023-4.459-4.374-6.946h-9.336c-5.413,0-7.761,1.758-9.068,3.087c-1.062,1.094-1.865,2.434-2.466,3.859H218.558z      M217.883,290.354c0.601,71.7,7.546,115.863,38.139,115.863c26.412,0,37.206-32.618,38.106-116.003     c-12.37,2.959-25.255,4.46-38.342,4.46C242.826,294.675,230.103,293.217,217.883,290.354z M198.277,301.46     c-6.871,7.117-10.558,15.317-10.558,23.765c0,9.593,4.824,18.908,13.549,26.604C199.285,335.343,198.557,317.441,198.277,301.46z      M313.68,303.582c-0.407,18.244-1.394,33.465-3.012,46.521c7.546-7.354,11.705-16.036,11.705-24.879     C322.373,317.635,319.34,310.207,313.68,303.582z M255.786,161.779c-51.977,0-94.253,25.447-94.253,56.726     c0,31.268,42.276,56.704,94.253,56.704s94.264-25.437,94.264-56.704C350.05,187.226,307.763,161.779,255.786,161.779z      M348.935,174.599c5.338,5.059,9.733,10.58,13.077,16.378c0.322-1.082,0.493-2.208,0.493-3.344     C362.505,180.452,356.417,174.61,348.935,174.599z M162.637,174.599c-7.3,0.225-13.163,5.981-13.163,13.035     c0,0.975,0.118,1.94,0.364,2.883C153.14,184.89,157.448,179.53,162.637,174.599z M340.017,105.332     c-4.695,0-8.501,3.623-8.501,8.082c0,4.459,3.806,8.083,8.501,8.083c4.673,0,8.489-3.623,8.489-8.083     C348.506,108.955,344.689,105.332,340.017,105.332z M255.582,269.013c-29.606,0-42.223-13.131-43.563-14.631     c-1.769-2.004-2.637-4.641-2.412-7.246c0.215-2.626,1.479-4.995,3.538-6.657c1.694-1.426,3.956-2.251,6.281-2.251     c2.83,0,5.521,1.201,7.385,3.291l0,0c0.011,0,8.286,8.028,28.771,8.028c20.795,0,30.1-8.243,30.485-8.586     c1.704-1.704,4.19-2.723,6.828-2.723c2.551,0,4.974,0.965,6.817,2.701c1.918,1.812,3.001,4.245,3.055,6.85     c0.054,2.594-0.922,5.06-2.755,6.936C298.512,256.236,284.888,269.013,255.582,269.013z M292.659,228.087     c-12.455,0-22.574-9.905-22.574-22.082c0-12.166,10.119-22.06,22.574-22.06c12.456,0,22.585,9.894,22.585,22.06     C315.244,218.183,305.115,228.087,292.659,228.087z M221.302,228.087c-12.456,0-22.585-9.905-22.585-22.082     c0-12.166,10.13-22.06,22.585-22.06s22.585,9.894,22.585,22.06C243.888,218.183,233.758,228.087,221.302,228.087z" style="fill:#62C2FF;"/><path d="M210.326,222.6c-9.433,0-17.098-7.418-17.098-16.594c0-9.154,7.665-16.571,17.098-16.571     c9.454,0,17.097,7.417,17.097,16.571C227.423,215.182,219.78,222.6,210.326,222.6z M281.684,189.435     c-9.434,0-17.087,7.417-17.087,16.571c0,9.176,7.653,16.594,17.087,16.594c9.453,0,17.097-7.418,17.097-16.594     C298.78,196.852,291.137,189.435,281.684,189.435z M266.805,104.282l-15.864,43.734c26.595,0.986,50.616,8.168,68.71,19.423     c5.08-4.33,11.459-6.817,18.287-6.817c15.328,0,27.826,12.113,27.826,27.013c0,9.368-5.06,17.986-13.185,22.896     c0.439,2.616,0.729,5.274,0.729,7.976c0,26.519-22.575,49.65-55.836,61.741c0,0.258-0.021,0.516-0.021,0.772     c17.226,10.762,28.18,26.562,28.18,44.206c0,19.165-13.002,37.152-34.74,48.086l-0.633-1.158     c-1.157,4.781-2.411,9.39-3.934,13.635h9.369c7.417,0,13.484,2.337,18.062,6.925c8.896,8.939,8.5,23.239,8.479,23.839     l-0.129,4.095h-155.48l-0.225-4.009c-0.021-0.601-0.643-14.471,8.157-23.496c4.759-4.889,11.277-7.354,19.316-7.354h9.24     c-1.329-3.773-2.455-7.847-3.473-12.113l-0.332,0.644c-23.035-10.869-36.767-29.22-36.767-49.093     c0-18.095,11.544-34.237,29.521-45.021c-33.219-12.092-55.739-35.202-55.739-61.699c0-2.787,0.311-5.51,0.793-8.189     c-7.932-4.953-12.831-13.463-12.831-22.682c0-14.9,12.478-27.013,27.806-27.013c6.753,0,13.056,2.444,18.137,6.689     c18.748-11.62,43.809-18.887,71.507-19.402l19.433-53.638l46.822,10.869c3.397-8.061,11.533-13.785,21.052-13.785     c12.521,0,22.703,9.904,22.703,22.06c0,12.156-10.183,22.061-22.703,22.061c-12.53,0-22.703-9.883-22.703-22.018L266.805,104.282     z M315.052,113.414c0,7.482,6.249,13.571,13.988,13.571c7.707,0,13.978-6.088,13.978-13.571c0-7.481-6.271-13.57-13.978-13.57     C321.301,99.844,315.052,105.933,315.052,113.414z M139.633,201.504c4.169-10.955,12.188-20.881,23.186-29.156     c-3.13-2.101-6.817-3.237-10.73-3.237c-10.516,0-19.08,8.318-19.08,18.523C133.009,193.036,135.528,198.01,139.633,201.504z      M244.81,289.187c-14.718,0-28.717-1.951-41.505-5.402c-0.643,0.278-1.329,0.515-1.918,0.814     c0.257,67.831,4.706,127.107,43.659,127.107c35.138,0,43.134-48.043,43.638-126.036c-1.083-0.578-2.187-1.114-3.313-1.672     C272.808,287.321,259.162,289.187,244.81,289.187z M197.581,363.705c-3.688-20.966-4.728-46.327-4.92-73.875     c-13.163,9.09-21.406,21.566-21.406,35.395C171.255,340.145,181.041,354.188,197.581,363.705z M175.35,412.178h45.031     c-5.66-4.374-10.205-10.419-13.806-17.923h-12.702c-5.606,0-9.872,1.565-12.981,4.738     C177.107,402.852,175.811,408.426,175.35,412.178z M282.787,394.255c-3.623,7.482-8.189,13.507-13.774,17.923h44.206     c-0.482-3.902-1.854-9.69-5.756-13.592c-2.916-2.916-6.764-4.331-11.77-4.331H282.787z M297.408,291.266     c-0.215,25.684-1.372,50.509-5.167,71.454c15.5-9.476,24.644-23.153,24.644-37.495     C316.885,312.104,309.445,300.205,297.408,291.266z M344.562,218.505c0-34.302-44.741-62.214-99.752-62.214     c-55.021,0-99.742,27.912-99.742,62.214c0,34.279,44.72,62.192,99.742,62.192C299.82,280.697,344.562,252.784,344.562,218.505z      M327.004,172.498c10.976,8.297,18.973,18.266,23.078,29.242c4.287-3.495,6.935-8.575,6.935-14.106     c0-10.205-8.543-18.523-19.079-18.523C333.96,169.111,330.188,170.312,327.004,172.498z M278.811,245.002     c-0.107,0.086-10.505,10.033-34.205,10.033c-23.303,0-32.618-9.583-32.865-9.861c-1.565-1.758-4.309-1.951-6.121-0.429     c-1.854,1.5-2.047,4.202-0.482,5.981c0.461,0.514,11.62,12.799,39.468,12.799c27.72,0,39.993-12.113,40.508-12.628     c1.65-1.693,1.586-4.33-0.14-5.959S280.493,243.33,278.811,245.002z" style="fill:#48B0F5;"/><path d="M340.017,91.354c12.52,0,22.703,9.904,22.703,22.06c0,12.156-10.184,22.061-22.703,22.061     c-12.53,0-22.703-9.883-22.703-22.018l-39.532-9.175l-15.864,43.734c26.594,0.986,50.616,8.168,68.71,19.423     c5.08-4.33,11.458-6.817,18.286-6.817c15.329,0,27.827,12.113,27.827,27.013c0,9.368-5.06,17.986-13.185,22.896     c0.439,2.616,0.729,5.274,0.729,7.976c0,26.519-22.574,49.65-55.835,61.741c0,0.258-0.021,0.516-0.021,0.772     c17.225,10.762,28.18,26.562,28.18,44.206c0,19.165-13.002,37.152-34.74,48.086l-0.633-1.158     c-1.157,4.781-2.412,9.39-3.934,13.635h9.368c7.418,0,13.485,2.337,18.062,6.925c8.897,8.939,8.501,23.239,8.479,23.839     l-0.129,4.095h-155.48l-0.226-4.009c-0.021-0.601-0.643-14.471,8.157-23.496c4.76-4.889,11.277-7.354,19.316-7.354h9.24     c-1.33-3.773-2.455-7.847-3.473-12.113l-0.332,0.644c-23.036-10.869-36.767-29.22-36.767-49.093     c0-18.095,11.544-34.237,29.521-45.021c-33.219-12.092-55.74-35.202-55.74-61.699c0-2.787,0.311-5.51,0.793-8.189     c-7.933-4.953-12.831-13.463-12.831-22.682c0-14.9,12.478-27.013,27.806-27.013c6.753,0,13.056,2.444,18.137,6.689     c18.748-11.62,43.809-18.887,71.507-19.402l19.434-53.638l46.821,10.869C322.362,97.078,330.498,91.354,340.017,91.354      M340.017,126.985c7.707,0,13.978-6.088,13.978-13.571c0-7.481-6.271-13.57-13.978-13.57c-7.739,0-13.988,6.089-13.988,13.57     C326.028,120.896,332.277,126.985,340.017,126.985 M255.786,280.697c55.01,0,99.751-27.913,99.751-62.192     c0-34.302-44.741-62.214-99.751-62.214c-55.021,0-99.742,27.912-99.742,62.214C156.044,252.784,200.765,280.697,255.786,280.697      M361.059,201.74c4.287-3.495,6.935-8.575,6.935-14.106c0-10.205-8.543-18.523-19.08-18.523c-3.977,0-7.75,1.201-10.934,3.387     C348.956,180.795,356.953,190.764,361.059,201.74 M150.609,201.504c4.17-10.955,12.188-20.881,23.186-29.156     c-3.13-2.101-6.817-3.237-10.729-3.237c-10.516,0-19.08,8.318-19.08,18.523C143.985,193.036,146.504,198.01,150.609,201.504      M256.021,411.706c35.137,0,43.134-48.043,43.638-126.036c-1.083-0.578-2.187-1.114-3.313-1.672     c-12.563,3.323-26.208,5.188-40.561,5.188c-14.717,0-28.716-1.951-41.504-5.402c-0.643,0.278-1.329,0.515-1.919,0.814     C212.62,352.43,217.068,411.706,256.021,411.706 M208.557,363.705c-3.687-20.966-4.727-46.327-4.92-73.875     c-13.163,9.09-21.406,21.566-21.406,35.395C182.231,340.145,192.018,354.188,208.557,363.705 M303.218,362.72     c15.5-9.476,24.644-23.153,24.644-37.495c0-13.121-7.439-25.02-19.477-33.959C308.17,316.949,307.012,341.774,303.218,362.72      M279.989,412.178h44.206c-0.482-3.902-1.854-9.69-5.757-13.592c-2.915-2.916-6.764-4.331-11.77-4.331h-12.905     C290.141,401.737,285.574,407.762,279.989,412.178 M186.326,412.178h45.031c-5.659-4.374-10.204-10.419-13.806-17.923h-12.702     c-5.606,0-9.873,1.565-12.981,4.738C188.084,402.852,186.787,408.426,186.326,412.178 M292.659,189.435     c9.454,0,17.097,7.417,17.097,16.571c0,9.176-7.643,16.594-17.097,16.594c-9.433,0-17.086-7.418-17.086-16.594     C275.573,196.852,283.227,189.435,292.659,189.435 M221.302,189.435c9.455,0,17.097,7.417,17.097,16.571     c0,9.176-7.643,16.594-17.097,16.594c-9.433,0-17.097-7.418-17.097-16.594C204.205,196.852,211.869,189.435,221.302,189.435      M219.437,243.716c1.211,0,2.422,0.493,3.28,1.458c0.247,0.278,9.562,9.861,32.865,9.861c23.7,0,34.098-9.947,34.205-10.033     c0.847-0.847,1.972-1.275,3.108-1.275c1.093,0,2.197,0.407,3.055,1.211c1.726,1.629,1.79,4.266,0.14,5.959     c-0.515,0.515-12.788,12.628-40.508,12.628c-27.849,0-39.007-12.285-39.468-12.799c-1.565-1.78-1.372-4.481,0.482-5.981     C217.411,244.048,218.43,243.716,219.437,243.716 M340.017,80.378c-10.376,0-19.927,4.62-26.22,12.295l-39.178-9.101     c-0.825-0.193-1.662-0.278-2.486-0.278c-4.523,0-8.715,2.808-10.313,7.235l-16.925,46.703     c-23.164,1.437-45.17,7.407-63.275,17.161c-5.713-3.098-12.091-4.749-18.555-4.749c-21.385,0-38.782,17.043-38.782,37.989     c0,10.558,4.438,20.431,12.145,27.537c-0.075,1.125-0.107,2.24-0.107,3.334c0,25.415,17,48.943,45.428,64.207     c-12.381,12.038-19.209,26.884-19.209,42.513c0,19.926,10.88,38.385,29.746,51.397c-5.649,1.736-10.59,4.717-14.621,8.854     c-11.405,11.705-11.384,28.33-11.266,31.546l0.236,4.234c0.332,5.82,5.146,10.365,10.966,10.365h155.48     c5.928,0,10.783-4.706,10.966-10.634l0.129-4.095c0.074-1.95,0.354-19.852-11.663-31.932c-4.03-4.03-8.907-6.914-14.417-8.554     c18.673-13.014,29.488-31.472,29.488-51.184c0-15.372-6.656-30.046-18.705-42.009c29.006-15.253,46.382-39.018,46.382-64.711     c0-0.976-0.032-1.962-0.086-2.97c7.954-7.117,12.542-17.129,12.542-27.901c0-20.945-17.408-37.989-38.804-37.989     c-6.56,0-13.013,1.683-18.759,4.845c-15.359-8.286-33.636-13.882-53.016-16.261l7.643-21.052l22.831,5.295     c4.02,13.828,17.022,23.979,32.404,23.979c18.565,0,33.679-14.825,33.679-33.037C373.695,95.192,358.582,80.378,340.017,80.378     L340.017,80.378z M340.017,116.008c-1.661,0-3.013-1.168-3.013-2.594c0-1.436,1.352-2.594,3.013-2.594     c1.629,0,3.001,1.19,3.001,2.594C343.018,114.818,341.646,116.008,340.017,116.008L340.017,116.008z M214.635,263.675     c-28.052-8.726-47.614-25.908-47.614-45.17c0-27.773,40.647-51.238,88.765-51.238c48.119,0,88.776,23.464,88.776,51.238     c0,19.08-19.209,36.134-46.854,44.923c3.591-2.325,5.606-4.233,6.142-4.77c2.959-3.044,4.492-6.903,4.406-10.987     s-1.779-7.889-4.771-10.719c-1.886-1.779-4.169-3.033-6.624-3.688c13.495-1.994,23.871-13.463,23.871-27.259     c0-15.188-12.595-27.548-28.073-27.548s-28.063,12.359-28.063,27.548c0,13.903,10.526,25.437,24.161,27.302     c-2.391,0.665-4.588,1.897-6.432,3.634c-0.761,0.643-8.79,7.117-26.744,7.117c-17.097,0-24.204-5.842-24.997-6.549     c-1.822-1.908-4.073-3.291-6.549-4.063c14.203-1.361,25.34-13.152,25.34-27.441c0-15.188-12.595-27.548-28.073-27.548     c-15.479,0-28.074,12.359-28.074,27.548c0,13.463,9.873,24.697,22.886,27.098c-2.412,0.525-4.674,1.629-6.582,3.237     c-3.023,2.444-5.049,6.26-5.392,10.333c-0.354,4.084,1.008,8.211,3.73,11.298C208.729,258.938,210.905,261.156,214.635,263.675     L214.635,263.675z M255.786,300.163c11.116,0,22.092-1.051,32.757-3.13c-1.329,73.469-10.943,103.696-32.521,103.696     c-25.115,0-31.643-40.915-32.575-103.59C233.972,299.145,244.799,300.163,255.786,300.163L255.786,300.163z M193.894,330.862     c-0.45-1.865-0.686-3.752-0.686-5.638c0-1.062,0.075-2.112,0.214-3.163C193.551,324.988,193.711,327.926,193.894,330.862     L193.894,330.862z" style="fill:#234AA8;"/></g></g></g><g id="Layer_1"/></svg>