<?xml version="1.0" ?><svg enable-background="new 0 0 24 24" id="Layer_1" version="1.1" viewBox="0 0 24 24" xml:space="preserve" xmlns="http://www.w3.org/2000/svg" xmlns:xlink="http://www.w3.org/1999/xlink"><g><path d="M20.963356,6.2324219C20.984169,5.9904785,21.0004654,5.7472534,21.0004654,5.5   c0-3.0327148-2.4672852-5.5-5.4995117-5.5H5.501442C4.8080826,0,4.2250748,0.5415039,4.0160904,1.3793945   C3.986305,1.5,1.00193,19.4174805,1.0009534,20.0874023c-0.003418,0.1918945-0.0083008,0.4545898,0.2026367,0.6694336   C1.4135511,20.9707031,1.7114027,21,2.00193,21h4.2799683c-0.1713257,1.1575928-0.2804565,1.9241943-0.2804565,2   c0,0.5703125,0.4296875,1,0.9995117,1h5.5004883c0.2446289,0,0.453125-0.1767578,0.4931641-0.4179688L13.9247818,18h1.5761719   c4.1347656,0,7.4990234-3.3642578,7.4990234-7.5C22.9999771,8.7791138,22.2045059,7.2416992,20.963356,6.2324219z" fill="#303C42"/><path d="M2.0038831,20C2.1083753,19.0839844,4.8388443,2.2573242,4.9867935,1.6206055   C5.0610123,1.3217773,5.2538834,1,5.501442,1h9.9995117c2.480957,0,4.4995117,2.0185547,4.4995117,4.5   c0,0.0352783-0.0048218,0.069397-0.0053101,0.1045532C19.2455215,5.2208862,18.3993301,5,17.5009537,5h-7.5004883   C9.4335709,5,8.7148209,5.2451172,8.5087662,6.4130859C8.4900894,6.5176392,7.142128,15.2476196,6.4308243,20H2.0038831z" fill="#0D47A1"/><path d="M19.8945694,6.7042236C19.3156509,10.2680054,16.225502,13,12.501442,13H8.5020523   c0.4962158-3.2487183,0.9370728-6.1060181,0.9910889-6.4130859C9.5898209,6.0410156,9.756813,6,10.0004654,6h7.5004883   C18.3825455,6,19.1996841,6.2642822,19.8945694,6.7042236z" fill="#3163AF"/><path d="M15.5009537,17H13.501442c-0.2446289,0-0.453125,0.1767578-0.4931641,0.4179688L12.0781021,23h-5.074707   c0.0531616-0.4729004,0.7166748-4.8717041,1.3460693-9h4.1519775c4.0222168,0,7.3928833-2.8116455,8.2698364-6.5709229   C21.527626,8.2344971,21.9999771,9.3103027,21.9999771,10.5C21.9999771,14.0839844,19.0844498,17,15.5009537,17z" fill="#1E88E5"/><linearGradient gradientUnits="userSpaceOnUse" id="SVGID_1_" x1="1.2876277" x2="21.051281" y1="7.1250401" y2="16.3409824"><stop offset="0" style="stop-color:#FFFFFF;stop-opacity:0.2"/><stop offset="1" style="stop-color:#FFFFFF;stop-opacity:0"/></linearGradient><path d="M20.963356,6.2324219C20.984169,5.9904785,21.0004654,5.7472534,21.0004654,5.5   c0-3.0327148-2.4672852-5.5-5.4995117-5.5H5.501442C4.8080826,0,4.2250748,0.5415039,4.0160904,1.3793945   C3.986305,1.5,1.00193,19.4174805,1.0009534,20.0874023c-0.003418,0.1918945-0.0083008,0.4545898,0.2026367,0.6694336   C1.4135511,20.9707031,1.7114027,21,2.00193,21h4.2799683c-0.1713257,1.1575928-0.2804565,1.9241943-0.2804565,2   c0,0.5703125,0.4296875,1,0.9995117,1h5.5004883c0.2446289,0,0.453125-0.1767578,0.4931641-0.4179688L13.9247818,18h1.5761719   c4.1347656,0,7.4990234-3.3642578,7.4990234-7.5C22.9999771,8.7791138,22.2045059,7.2416992,20.963356,6.2324219z" fill="url(#SVGID_1_)"/></g><g/><g/><g/><g/><g/><g/><g/><g/><g/><g/><g/><g/><g/><g/><g/></svg>