<?xml version="1.0" ?><svg enable-background="new 0 0 24 24" id="Layer_1" version="1.1" viewBox="0 0 24 24" xml:space="preserve" xmlns="http://www.w3.org/2000/svg" xmlns:xlink="http://www.w3.org/1999/xlink"><g><path d="M23.5,11h-4.9956055L12.934082,1.2519534c-0.092186-0.1617355-0.2608566-0.2517151-0.4338913-0.2519531   c-0.0845051-0.0001162-0.1700516,0.0205765-0.2482376,0.065918L10.515625,2.0581057   c-0.2397461,0.137207-0.3232422,0.4423828-0.1860352,0.6821289L15.0494385,11H9.3312378l2.4661255-4.2470698   c0.0664063-0.1147461,0.0844727-0.2509766,0.0507813-0.3793945c-0.0341797-0.1279297-0.1176758-0.2373047-0.2324219-0.3041992   L9.8862305,5.0654302C9.6464844,4.9257817,9.3408203,5.0083013,9.2026367,5.2470708L5.8621216,11H0.5   C0.2236328,11,0,11.2236328,0,11.5v3C0,14.7763672,0.2236328,15,0.5,15h3.0394897l-1.3036499,2.2451172   c-0.0200195,0.034668-0.0361328,0.0722656-0.0473633,0.1108398l-1.168457,4.0039063   c-0.0644531,0.2207031,0.0302734,0.4570313,0.2290039,0.5727539C1.3271484,21.9780273,1.4140625,22,1.5,22   c0.1318359,0,0.2626953-0.0522461,0.359375-0.152832l2.8979492-3c0.0283203-0.0288086,0.0527344-0.0610352,0.0732422-0.0961914   L7.008606,15H17.335144l0.9075928,1.5881958c-0.0654297,0.4852295-0.1170044,1.7445679,0.9037476,2.7653198   c0.9379883,0.9384766,1.8920898,2.0439453,1.8540039,3.1289063c-0.0087891,0.237793,0.1518555,0.4487305,0.3837891,0.5039063   C21.4228516,22.9956055,21.4619141,23,21.5,23c0.1914063,0,0.3706055-0.1103516,0.4541016-0.2905273   C21.996582,22.6171875,23,20.4282227,23,19c0-2.6687012-1.5925903-3.633606-2.1472168-3.8903198L20.7901001,15H23.5   c0.2763672,0,0.5-0.2236328,0.5-0.5v-3C24,11.2236328,23.7763672,11,23.5,11z" fill="#303C42"/><rect fill="#81D4FA" height="12.8301687" transform="matrix(0.8682435 -0.4961384 0.4961384 0.8682435 -1.9845194 8.5272169)" width="0.9999089" x="14.5626984" y="1.5849465"/><rect fill="#81D4FA" height="1.2945293" transform="matrix(0.8682402 -0.496144 0.496144 0.8682402 -4.9304848 11.4342213)" width="0.9999089" x="18.5626984" y="14.352766"/><rect fill="#81D4FA" height="0.9996126" transform="matrix(0.5016523 -0.8650693 0.8650693 0.5016523 -1.1008676 12.0692568)" width="1.2898892" x="9.2799826" y="6.4903064"/><polygon fill="#81D4FA" points="1,14 1,12 5.2814941,12 4.1201782,14  "/><polygon fill="#81D4FA" points="2.9694824,18.2491455 3.5946045,18.6119995 2.5473633,19.6962891  "/><rect fill="#81D4FA" height="0.9997352" transform="matrix(0.5020442 -0.8648419 0.8648419 0.5020442 -8.0260067 12.03895)" width="10.583663" x="1.1496967" y="12.4893293"/><polygon fill="#81D4FA" points="7.5892944,14 8.7506104,12 15.6209106,12 16.7637329,14  "/><path d="M22,19c0,0.5385742-0.1875038,1.2460938-0.3959961,1.8666992   c-0.4013672-0.7949219-1.059082-1.5288086-1.7504883-2.2202148c-0.656189-0.656189-0.6676636-1.4699097-0.631897-1.8401489   l1.3023682-0.7442627C20.9528198,16.2875977,22,17.0340576,22,19z" fill="#81D4FA"/><polygon fill="#81D4FA" points="23,14 20.218689,14 19.0758057,12 23,12  "/><linearGradient gradientUnits="userSpaceOnUse" id="SVGID_1_" x1="9.6778564" x2="14.6844177" y1="11.0727539" y2="16.0793152"><stop offset="0" style="stop-color:#000000;stop-opacity:0.15"/><stop offset="1" style="stop-color:#000000;stop-opacity:0"/></linearGradient><polygon fill="url(#SVGID_1_)" points="7.5892944,14 8.7506104,12 15.6209106,12 16.7637329,14  "/><linearGradient gradientUnits="userSpaceOnUse" id="SVGID_2_" x1="19.8425751" x2="22.8046722" y1="11.2332306" y2="14.1953278"><stop offset="0" style="stop-color:#000000;stop-opacity:0.15"/><stop offset="1" style="stop-color:#000000;stop-opacity:0"/></linearGradient><polygon fill="url(#SVGID_2_)" points="23,14 20.218689,14 19.0758057,12 23,12  "/><linearGradient gradientUnits="userSpaceOnUse" id="SVGID_3_" x1="1.2075837" x2="23.5766582" y1="8.7990236" y2="19.2298927"><stop offset="0" style="stop-color:#FFFFFF;stop-opacity:0.2"/><stop offset="1" style="stop-color:#FFFFFF;stop-opacity:0"/></linearGradient><path d="M23.5,11h-4.9956055L12.934082,1.2519534   c-0.092186-0.1617355-0.2608566-0.2517151-0.4338913-0.2519531c-0.0845051-0.0001162-0.1700516,0.0205765-0.2482376,0.065918   L10.515625,2.0581057c-0.2397461,0.137207-0.3232422,0.4423828-0.1860352,0.6821289L15.0494385,11H9.3312378l2.4661255-4.2470698   c0.0664063-0.1147461,0.0844727-0.2509766,0.0507813-0.3793945c-0.0341797-0.1279297-0.1176758-0.2373047-0.2324219-0.3041992   L9.8862305,5.0654302C9.6464844,4.9257817,9.3408203,5.0083013,9.2026367,5.2470708L5.8621216,11H0.5   C0.2236328,11,0,11.2236328,0,11.5v3C0,14.7763672,0.2236328,15,0.5,15h3.0394897l-1.3036499,2.2451172   c-0.0200195,0.034668-0.0361328,0.0722656-0.0473633,0.1108398l-1.168457,4.0039063   c-0.0644531,0.2207031,0.0302734,0.4570313,0.2290039,0.5727539C1.3271484,21.9780273,1.4140625,22,1.5,22   c0.1318359,0,0.2626953-0.0522461,0.359375-0.152832l2.8979492-3c0.0283203-0.0288086,0.0527344-0.0610352,0.0732422-0.0961914   L7.008606,15H17.335144l0.9075928,1.5881958c-0.0654297,0.4852295-0.1170044,1.7445679,0.9037476,2.7653198   c0.9379883,0.9384766,1.8920898,2.0439453,1.8540039,3.1289063c-0.0087891,0.237793,0.1518555,0.4487305,0.3837891,0.5039063   C21.4228516,22.9956055,21.4619141,23,21.5,23c0.1914063,0,0.3706055-0.1103516,0.4541016-0.2905273   C21.996582,22.6171875,23,20.4282227,23,19c0-2.6687012-1.5925903-3.633606-2.1472168-3.8903198L20.7901001,15H23.5   c0.2763672,0,0.5-0.2236328,0.5-0.5v-3C24,11.2236328,23.7763672,11,23.5,11z" fill="url(#SVGID_3_)"/></g><g/><g/><g/><g/><g/><g/><g/><g/><g/><g/><g/><g/><g/><g/><g/></svg>