<?xml version="1.0" ?><svg enable-background="new 0 0 24 24" id="Layer_1" version="1.1" viewBox="0 0 24 24" xml:space="preserve" xmlns="http://www.w3.org/2000/svg" xmlns:xlink="http://www.w3.org/1999/xlink"><g><path d="M22.8535156,4.1464844l-3-3C19.7597656,1.0527344,19.6328125,1,19.5,1H3C1.8974609,1,1,1.8969727,1,3v18   c0,1.1030273,0.8974609,2,2,2h18c1.1025391,0,2-0.8969727,2-2V4.5C23,4.3671875,22.9472656,4.2402344,22.8535156,4.1464844z" fill="#303C42"/><path d="M8,2h10v6c0,0.5512695-0.4482422,1-1,1H9C8.4482422,9,8,8.5512695,8,8V2z" fill="#64B5F6"/><path d="M14.5,8h2C16.7763672,8,17,7.7763672,17,7.5v-4C17,3.2236328,16.7763672,3,16.5,3h-2   C14.2236328,3,14,3.2236328,14,3.5v4C14,7.7763672,14.2236328,8,14.5,8z" fill="#303C42"/><path d="M22,21c0,0.5512695-0.4482422,1-1,1h-1v-9.5c0-0.2763672-0.2236328-0.5-0.5-0.5h-15   C4.2236328,12,4,12.2236328,4,12.5V22H3c-0.5517578,0-1-0.4487305-1-1V3c0-0.5512695,0.4482422-1,1-1h4v6   c0,1.1030273,0.8974609,2,2,2h8c1.1025391,0,2-0.8969727,2-2V2h0.2929688L22,4.7070313V21z" fill="#1976D2"/><rect fill="#1976D2" height="3" width="1" x="15" y="4"/><rect fill="#FFFFFF" height="7" width="14" x="5" y="13"/><rect fill="#E53935" height="1" width="14" x="5" y="21"/><path d="M6.5,15h11c0.2763672,0,0.5-0.2236328,0.5-0.5S17.7763672,14,17.5,14h-11C6.2236328,14,6,14.2236328,6,14.5   S6.2236328,15,6.5,15z" fill="#E53935"/><path d="M6.5,17h11c0.2763672,0,0.5-0.2236328,0.5-0.5S17.7763672,16,17.5,16h-11C6.2236328,16,6,16.2236328,6,16.5   S6.2236328,17,6.5,17z" fill="#E53935"/><path d="M6.5,19h11c0.2763672,0,0.5-0.2236328,0.5-0.5S17.7763672,18,17.5,18h-11C6.2236328,18,6,18.2236328,6,18.5   S6.2236328,19,6.5,19z" fill="#E53935"/><linearGradient gradientUnits="userSpaceOnUse" id="SVGID_1_" x1="12.3246155" x2="25.5300598" y1="4.6781311" y2="17.8835754"><stop offset="0" style="stop-color:#000000;stop-opacity:0.1"/><stop offset="1" style="stop-color:#000000;stop-opacity:0"/></linearGradient><path d="M19,2v6c0,1.1030273-0.8974609,2-2,2H9c-0.5505981,0-1.0499878-0.2238159-1.4120483-0.5852051   L10.1731567,12H19.5c0.2763672,0,0.5,0.2236328,0.5,0.5V22h1c0.5517578,0,1-0.4487305,1-1V4.7070313L19.2929688,2H19z" fill="url(#SVGID_1_)"/><linearGradient gradientUnits="userSpaceOnUse" id="SVGID_2_" x1="7.5846863" x2="7.5854187" y1="9.4114685" y2="9.4122009"><stop offset="0" style="stop-color:#000000;stop-opacity:0.1"/><stop offset="1" style="stop-color:#000000;stop-opacity:0"/></linearGradient><polygon fill="url(#SVGID_2_)" points="7.5847168,9.411438 7.5846558,9.411499 7.5853882,9.4122314  "/><g><g><linearGradient gradientUnits="userSpaceOnUse" id="SVGID_3_" x1="15.0039063" x2="18.2107239" y1="4.9960938" y2="8.2029114"><stop offset="0" style="stop-color:#000000;stop-opacity:0.1"/><stop offset="1" style="stop-color:#000000;stop-opacity:0"/></linearGradient><path d="M16.8536377,3.1463623C16.9440918,3.2368164,17,3.3618164,17,3.5v4     C17,7.7763672,16.7763672,8,16.5,8h-2c-0.1173706,0-0.220459-0.0465088-0.3057251-0.1140747L15.3083496,9H17     c0.5517578,0,1-0.4487305,1-1V4.2927246L16.8536377,3.1463623z" fill="url(#SVGID_3_)"/><linearGradient gradientUnits="userSpaceOnUse" id="SVGID_4_" x1="15.0039063" x2="18.2107239" y1="4.9960938" y2="8.2029114"><stop offset="0" style="stop-color:#000000;stop-opacity:0.1"/><stop offset="1" style="stop-color:#000000;stop-opacity:0"/></linearGradient><path d="M14.102356,7.7883911l-0.0020752,0.00354l0.0137939,0.0137939     C14.1097412,7.8002319,14.1064453,7.7940063,14.102356,7.7883911z" fill="url(#SVGID_4_)"/></g><g><linearGradient gradientUnits="userSpaceOnUse" id="SVGID_5_" x1="15.0039063" x2="18.2107239" y1="4.9960938" y2="8.2029114"><stop offset="0" style="stop-color:#000000;stop-opacity:0.1"/><stop offset="1" style="stop-color:#000000;stop-opacity:0"/></linearGradient><path d="M16.8536377,3.1463623C16.9440918,3.2368164,17,3.3618164,17,3.5v4     C17,7.7763672,16.7763672,8,16.5,8h-2c-0.1173706,0-0.220459-0.0465088-0.3057251-0.1140747L15.3083496,9H17     c0.5517578,0,1-0.4487305,1-1V4.2927246L16.8536377,3.1463623z" fill="url(#SVGID_5_)"/><linearGradient gradientUnits="userSpaceOnUse" id="SVGID_6_" x1="14.1009521" x2="14.1154785" y1="7.7897949" y2="7.8043213"><stop offset="0" style="stop-color:#000000;stop-opacity:0.1"/><stop offset="1" style="stop-color:#000000;stop-opacity:0"/></linearGradient><path d="M14.102356,7.7883911l-0.0020752,0.00354l0.0137939,0.0137939     C14.1097412,7.8002319,14.1064453,7.7940063,14.102356,7.7883911z" fill="url(#SVGID_6_)"/></g></g><linearGradient gradientUnits="userSpaceOnUse" id="SVGID_7_" x1="-0.8158927" x2="24.4886379" y1="6.4510508" y2="18.2507477"><stop offset="0" style="stop-color:#FFFFFF;stop-opacity:0.2"/><stop offset="1" style="stop-color:#FFFFFF;stop-opacity:0"/></linearGradient><path d="M22.8535156,4.1464844l-3-3C19.7597656,1.0527344,19.6328125,1,19.5,1H3   C1.8974609,1,1,1.8969727,1,3v18c0,1.1030273,0.8974609,2,2,2h18c1.1025391,0,2-0.8969727,2-2V4.5   C23,4.3671875,22.9472656,4.2402344,22.8535156,4.1464844z" fill="url(#SVGID_7_)"/></g><g/><g/><g/><g/><g/><g/><g/><g/><g/><g/><g/><g/><g/><g/><g/></svg>