<?xml version="1.0" ?><svg enable-background="new 0 0 24 24" id="Layer_1" version="1.1" viewBox="0 0 24 24" xml:space="preserve" xmlns="http://www.w3.org/2000/svg" xmlns:xlink="http://www.w3.org/1999/xlink"><g><path d="M22.8320313,1.1261262c-0.1069336-0.0947266-0.2490234-0.1401367-0.3911133-0.1225586l-10,1.1904296   C12.1894531,2.2242706,12,2.4371612,12,2.6905792v7.8095703c0,0.2763672,0.2236328,0.5,0.5,0.5h10   c0.2763672,0,0.5-0.2236328,0.5-0.5v-9C23,1.3570832,22.9389648,1.221341,22.8320313,1.1261262z" fill="#303C42"/><polygon fill="#7CB342" points="22,10.0001497 13,10.0001497 13,3.1344268 22,2.0631378  "/><path d="M9.440918,2.551419l-8,0.9521484C1.1894531,3.5333526,1,3.7467315,1,4.0001497v6.5   c0,0.2763672,0.2236328,0.5,0.5,0.5h8c0.2763672,0,0.5-0.2236328,0.5-0.5V3.0480011   c0-0.1430664-0.0610352-0.2788086-0.1679688-0.3740234C9.7255859,2.5797393,9.5830078,2.5343292,9.440918,2.551419z" fill="#303C42"/><polygon fill="#E64A19" points="9,10.0001497 2,10.0001497 2,4.4439974 9,3.6109893  "/><path d="M9.5,13.0001497h-8c-0.2763672,0-0.5,0.2236328-0.5,0.5v6.499999   c0,0.253418,0.1894531,0.4667969,0.440918,0.496582l8,0.9521484c0.0195313,0.0024414,0.0395508,0.003418,0.059082,0.003418   c0.121582,0,0.2402344-0.0444336,0.3320313-0.1259766C9.9389648,21.2311058,10,21.0953636,10,20.9522972v-7.4521475   C10,13.2237825,9.7763672,13.0001497,9.5,13.0001497z" fill="#303C42"/><polygon fill="#039BE5" points="9,20.3893089 2,19.5563011 2,14.0001497 9,14.0001497  "/><path d="M22.5,13.0001497h-10c-0.2763672,0-0.5,0.2236328-0.5,0.5v7.8095694   c0,0.253418,0.1894531,0.4663086,0.440918,0.496582l10,1.1904297c0.0195313,0.0024414,0.0395508,0.003418,0.059082,0.003418   c0.121582,0,0.2402344-0.0444336,0.3320313-0.1259766C22.9389648,22.7789574,23,22.6432152,23,22.5001488v-8.999999   C23,13.2237825,22.7763672,13.0001497,22.5,13.0001497z" fill="#303C42"/><polygon fill="#FBC02D" points="22,21.9371605 13,20.8658714 13,14.0001497 22,14.0001497  "/><polygon opacity="0.1" points="2,19.5563011 9,20.3893089 9,19.48489 2,18.7816429  "/><polygon opacity="0.1" points="13,20.8658714 22,21.9371605 22,20.7916527 13,19.8872337  "/><polygon fill="#FFFFFF" opacity="0.2" points="2,4.4439974 9,3.6109893 9,4.5154085 2,5.2186556  "/><polygon fill="#FFFFFF" opacity="0.2" points="13,3.1344268 22,2.0631378 22,3.2086456 13,4.1130648  "/><linearGradient gradientUnits="userSpaceOnUse" id="SVGID_1_" x1="0.3367225" x2="25.5783463" y1="5.3114672" y2="17.081831"><stop offset="0" style="stop-color:#FFFFFF;stop-opacity:0.2"/><stop offset="1" style="stop-color:#FFFFFF;stop-opacity:0"/></linearGradient><path d="M22.8320313,1.1261262c-0.1069336-0.0947266-0.2490234-0.1401367-0.3911133-0.1225586l-10,1.1904296   C12.1894531,2.2242706,12,2.4371612,12,2.6905792v7.8095703c0,0.2763672,0.2236328,0.5,0.5,0.5h10   c0.2763672,0,0.5-0.2236328,0.5-0.5v-9C23,1.3570832,22.9389648,1.221341,22.8320313,1.1261262z M9.440918,2.551419l-8,0.9521484   C1.1894531,3.5333526,1,3.7467315,1,4.0001497v6.5c0,0.2763672,0.2236328,0.5,0.5,0.5h8c0.2763672,0,0.5-0.2236328,0.5-0.5   V3.0480011c0-0.1430664-0.0610352-0.2788086-0.1679688-0.3740234C9.7255859,2.5797393,9.5830078,2.5343292,9.440918,2.551419z    M9.5,13.0001497h-8c-0.2763672,0-0.5,0.2236328-0.5,0.5v6.499999c0,0.253418,0.1894531,0.4667969,0.440918,0.496582l8,0.9521484   c0.0195313,0.0024414,0.0395508,0.003418,0.059082,0.003418c0.121582,0,0.2402344-0.0444336,0.3320313-0.1259766   C9.9389648,21.2311058,10,21.0953636,10,20.9522972v-7.4521475C10,13.2237825,9.7763672,13.0001497,9.5,13.0001497z    M22.5,13.0001497h-10c-0.2763672,0-0.5,0.2236328-0.5,0.5v7.8095694c0,0.253418,0.1894531,0.4663086,0.440918,0.496582   l10,1.1904297c0.0195313,0.0024414,0.0395508,0.003418,0.059082,0.003418c0.121582,0,0.2402344-0.0444336,0.3320313-0.1259766   C22.9389648,22.7789574,23,22.6432152,23,22.5001488v-8.999999C23,13.2237825,22.7763672,13.0001497,22.5,13.0001497z" fill="url(#SVGID_1_)"/></g><g/><g/><g/><g/><g/><g/><g/><g/><g/><g/><g/><g/><g/><g/><g/></svg>